<?xml version="1.0" encoding="UTF-8"?>
<!DOCTYPE svg PUBLIC "-//W3C//DTD SVG 1.1//EN" "http://www.w3.org/Graphics/SVG/1.1/DTD/svg11.dtd">
<svg xmlns="http://www.w3.org/2000/svg" version="1.1" width="500px" height="302px" style="shape-rendering:geometricPrecision; text-rendering:geometricPrecision; image-rendering:optimizeQuality; fill-rule:evenodd; clip-rule:evenodd" xmlns:xlink="http://www.w3.org/1999/xlink">
<g><path style="opacity:1" fill="#fefefe" d="M -0.5,-0.5 C 166.167,-0.5 332.833,-0.5 499.5,-0.5C 499.5,100.167 499.5,200.833 499.5,301.5C 332.833,301.5 166.167,301.5 -0.5,301.5C -0.5,200.833 -0.5,100.167 -0.5,-0.5 Z"/></g>
<g><path style="opacity:1" fill="#fbc4e4" d="M 179.5,25.5 C 179.741,27.8984 179.074,29.8984 177.5,31.5C 177.259,29.1016 177.926,27.1016 179.5,25.5 Z"/></g>
<g><path style="opacity:1" fill="#fec1e5" d="M 244.5,50.5 C 245.613,51.9464 245.78,53.6131 245,55.5C 243.918,57.6181 242.751,59.6181 241.5,61.5C 242.241,57.7077 243.241,54.0411 244.5,50.5 Z"/></g>
<g><path style="opacity:1" fill="#f952b9" d="M 180.5,9.5 C 181.5,9.5 182.5,9.5 183.5,9.5C 183.296,15.2015 181.963,20.5349 179.5,25.5C 177.926,27.1016 177.259,29.1016 177.5,31.5C 176.571,32.9361 175.405,34.2695 174,35.5C 171.652,40.0352 169.486,44.7019 167.5,49.5C 165.05,51.6291 163.383,54.2957 162.5,57.5C 160.75,58.6594 159.75,60.326 159.5,62.5C 157.041,65.0872 155.374,68.0872 154.5,71.5C 153.414,71.62 152.747,72.2867 152.5,73.5C 151.475,77.5317 150.475,81.5317 149.5,85.5C 149.5,86.1667 149.5,86.8333 149.5,87.5C 146.441,98.0223 145.441,108.689 146.5,119.5C 145.458,120.791 144.292,120.791 143,119.5C 142.356,105.981 143.69,92.648 147,79.5C 152.624,66.9191 159.29,54.9191 167,43.5C 169.651,38.1978 172.318,32.8644 175,27.5C 177.708,21.7554 179.541,15.7554 180.5,9.5 Z"/></g>
<g><path style="opacity:1" fill="#fec3e5" d="M 238.5,68.5 C 238.333,72.6734 237,76.3401 234.5,79.5C 235.025,75.467 236.358,71.8004 238.5,68.5 Z"/></g>
<g><path style="opacity:1" fill="#fb51b8" d="M 254.5,70.5 C 255.822,70.33 256.989,70.6634 258,71.5C 258.5,77.8246 258.666,84.1579 258.5,90.5C 258.189,91.4778 257.522,92.1445 256.5,92.5C 255.801,85.1112 255.135,77.7778 254.5,70.5 Z"/></g>
<g><path style="opacity:1" fill="#fa53b9" d="M 111.5,62.5 C 107.793,65.5758 104.793,69.2424 102.5,73.5C 100.086,74.9108 98.4194,76.9108 97.5,79.5C 95.8564,79.8102 94.8564,80.8102 94.5,82.5C 92.4131,83.5846 91.0798,85.2512 90.5,87.5C 88.5509,89.2969 86.8842,91.2969 85.5,93.5C 84.7611,93.369 84.0944,93.5357 83.5,94C 79.0383,99.0572 74.3716,103.891 69.5,108.5C 66.865,109.473 64.865,111.14 63.5,113.5C 61.5956,113.738 60.2623,114.738 59.5,116.5C 56.6756,117.945 53.6756,119.111 50.5,120C 47.633,120.801 44.9664,120.634 42.5,119.5C 45.2706,119.579 47.9373,119.079 50.5,118C 55.4352,115.394 60.1019,112.394 64.5,109C 80.3956,93.0589 95.7289,76.5589 110.5,59.5C 111.386,60.325 111.719,61.325 111.5,62.5 Z"/></g>
<g><path style="opacity:1" fill="#9661ca" d="M 180.5,9.5 C 179.541,15.7554 177.708,21.7554 175,27.5C 172.318,32.8644 169.651,38.1978 167,43.5C 159.29,54.9191 152.624,66.9191 147,79.5C 143.69,92.648 142.356,105.981 143,119.5C 144.292,120.791 145.458,120.791 146.5,119.5C 147.5,119.167 148.167,118.5 148.5,117.5C 160.689,102.131 172.356,86.2972 183.5,70C 188.328,65.538 193.328,65.3713 198.5,69.5C 202.609,64.7986 206.609,59.9652 210.5,55C 211.577,54.5304 212.577,54.6971 213.5,55.5C 213.5,55.8333 213.5,56.1667 213.5,56.5C 209.451,65.9388 205.951,75.6055 203,85.5C 202.182,88.2272 202.348,90.8938 203.5,93.5C 204.183,93.1373 204.85,92.8039 205.5,92.5C 213.424,87.9346 220.591,82.2679 227,75.5C 229.503,66.8286 232.836,58.4953 237,50.5C 238.041,48.6885 239.207,48.3552 240.5,49.5C 240.923,50.2646 241.257,51.0979 241.5,52C 233.63,67.3266 228.796,83.4933 227,100.5C 228.189,98.7669 229.356,97.1002 230.5,95.5C 231.737,94.0351 232.737,92.3684 233.5,90.5C 236.962,83.7496 241.296,77.5829 246.5,72C 248.87,69.5709 251.537,69.0709 254.5,70.5C 255.135,77.7778 255.801,85.1112 256.5,92.5C 257.522,92.1445 258.189,91.4778 258.5,90.5C 262.269,87.572 265.936,84.4054 269.5,81C 271.265,80.3603 272.932,80.5269 274.5,81.5C 276.344,85.1916 278.677,88.5249 281.5,91.5C 282.107,91.3764 282.44,91.0431 282.5,90.5C 286.187,89.824 289.52,88.324 292.5,86C 295.867,82.2974 299.534,78.964 303.5,76C 305.066,75.235 306.399,75.4017 307.5,76.5C 307.649,77.552 307.483,78.552 307,79.5C 302.167,83.6667 297.333,87.8333 292.5,92C 289.269,94.5582 285.602,96.0582 281.5,96.5C 277.227,95.2249 274.227,92.5582 272.5,88.5C 271.998,86.9153 270.998,86.4153 269.5,87C 265.26,91.7454 260.593,95.912 255.5,99.5C 253.089,99.8633 251.589,98.8633 251,96.5C 250.501,92.1794 250.334,87.8461 250.5,83.5C 250.5,82.1667 250.5,80.8333 250.5,79.5C 250.719,78.325 250.386,77.325 249.5,76.5C 247.879,78.6239 246.046,80.6239 244,82.5C 237.74,93.3612 231.24,104.028 224.5,114.5C 224.167,114.5 223.833,114.5 223.5,114.5C 222.504,114.586 221.671,114.252 221,113.5C 220.335,106.805 220.502,100.138 221.5,93.5C 222.404,92.791 222.737,91.791 222.5,90.5C 223.028,89.1526 223.195,87.8193 223,86.5C 217.118,91.9037 210.618,96.237 203.5,99.5C 202.167,99.1667 200.833,98.8333 199.5,98.5C 198.883,98.3893 198.383,98.056 198,97.5C 197.824,93.3123 197.324,89.3123 196.5,85.5C 197.242,83.5742 198.242,81.7409 199.5,80C 198.833,79.3333 198.167,79.3333 197.5,80C 192.199,86.3021 186.532,92.3021 180.5,98C 178.922,99.0945 177.255,99.9278 175.5,100.5C 174.167,100.5 172.833,100.5 171.5,100.5C 171.539,99.2438 171.039,98.2438 170,97.5C 163.036,108.288 154.87,117.954 145.5,126.5C 145.167,126.5 144.833,126.5 144.5,126.5C 141.178,125.342 139.012,123.008 138,119.5C 137.255,110.756 137.755,102.089 139.5,93.5C 140.451,92.0813 140.784,90.4147 140.5,88.5C 140.304,86.3544 139.304,86.1878 137.5,88C 126.029,98.47 114.863,109.303 104,120.5C 100.608,128.009 97.608,135.675 95,143.5C 91.389,151.577 86.2223,158.41 79.5,164C 77.5273,164.495 75.5273,164.662 73.5,164.5C 71.1163,163.575 70.1163,161.742 70.5,159C 70.9524,155.591 72.119,152.424 74,149.5C 81.2401,138.923 89.2401,128.923 98,119.5C 103.121,101.731 107.287,83.731 110.5,65.5C 111.404,64.791 111.737,63.791 111.5,62.5C 111.719,61.325 111.386,60.325 110.5,59.5C 95.7289,76.5589 80.3956,93.0589 64.5,109C 60.1019,112.394 55.4352,115.394 50.5,118C 47.9373,119.079 45.2706,119.579 42.5,119.5C 41.8333,119.5 41.1667,119.5 40.5,119.5C 37.4406,117.603 35.2739,114.936 34,111.5C 33.3333,106.833 33.3333,102.167 34,97.5C 39.707,73.0178 50.3737,51.0178 66,31.5C 72.7962,23.6971 80.9629,17.8637 90.5,14C 95.1355,13.0613 99.4689,13.5613 103.5,15.5C 106.386,21.1028 107.22,27.1028 106,33.5C 102.765,44.6338 97.9317,54.9671 91.5,64.5C 90.5,64.5 89.5,64.5 88.5,64.5C 87.9569,64.44 87.6236,64.1067 87.5,63.5C 94.976,52.5551 99.6427,40.5551 101.5,27.5C 101.44,25.0788 101.107,22.7455 100.5,20.5C 100.5,19.8333 100.167,19.5 99.5,19.5C 96.6965,18.3622 93.6965,18.1955 90.5,19C 81.9315,22.5557 74.7648,28.0557 69,35.5C 54.427,53.8474 44.427,74.5141 39,97.5C 38.1743,102.589 38.5076,107.589 40,112.5C 40.8159,113.823 41.9826,114.489 43.5,114.5C 49.9537,113.273 55.6204,110.44 60.5,106C 74.118,93.5543 86.4513,80.0543 97.5,65.5C 99.5869,64.4154 100.92,62.7488 101.5,60.5C 106.167,55.5 110.833,50.5 115.5,45.5C 116.959,45.4326 118.292,45.7659 119.5,46.5C 115.599,67.2344 111.266,87.9011 106.5,108.5C 107,108.833 107.5,109.167 108,109.5C 109.011,108.944 109.844,108.278 110.5,107.5C 120.495,97.6723 130.662,88.0056 141,78.5C 146.517,64.957 151.85,51.2903 157,37.5C 161.548,26.8919 167.715,17.3919 175.5,9C 177.265,8.36026 178.932,8.52692 180.5,9.5 Z"/></g>
<g><path style="opacity:1" fill="#f97aca" d="M 274.5,81.5 C 279.222,82.6492 281.889,85.6492 282.5,90.5C 282.44,91.0431 282.107,91.3764 281.5,91.5C 278.677,88.5249 276.344,85.1916 274.5,81.5 Z"/></g>
<g><path style="opacity:1" fill="#fb53ba" d="M 213.5,56.5 C 215.912,56.6941 216.912,58.0274 216.5,60.5C 215.596,61.209 215.263,62.209 215.5,63.5C 213.229,65.6123 211.896,68.279 211.5,71.5C 210.122,75.9875 208.289,80.3209 206,84.5C 205.503,87.146 205.336,89.8127 205.5,92.5C 204.85,92.8039 204.183,93.1373 203.5,93.5C 202.348,90.8938 202.182,88.2272 203,85.5C 205.951,75.6055 209.451,65.9388 213.5,56.5 Z"/></g>
<g><path style="opacity:1" fill="#fa4fb8" d="M 99.5,19.5 C 94.6866,18.7413 90.6866,20.0747 87.5,23.5C 84.865,24.4735 82.865,26.1402 81.5,28.5C 74.3965,32.9363 69.0631,38.9363 65.5,46.5C 62.92,49.9893 60.5867,53.6559 58.5,57.5C 56.412,59.3356 55.0787,61.6689 54.5,64.5C 52.7549,66.0326 51.7549,68.0326 51.5,70.5C 50.8902,71.391 50.5569,72.391 50.5,73.5C 48.3455,75.6174 47.3455,78.284 47.5,81.5C 46.8333,83.5 46.1667,85.5 45.5,87.5C 44.0762,89.5145 43.4095,91.8478 43.5,94.5C 43.5,94.8333 43.5,95.1667 43.5,95.5C 42.7784,95.9175 42.2784,96.5842 42,97.5C 41.1849,102.352 41.3516,107.019 42.5,111.5C 43.1098,112.391 43.4431,113.391 43.5,114.5C 41.9826,114.489 40.8159,113.823 40,112.5C 38.5076,107.589 38.1743,102.589 39,97.5C 44.427,74.5141 54.427,53.8474 69,35.5C 74.7648,28.0557 81.9315,22.5557 90.5,19C 93.6965,18.1955 96.6965,18.3622 99.5,19.5 Z"/></g>
<g><path style="opacity:1" fill="#f73bae" d="M 194.5,73.5 C 191.041,74.436 188.207,76.436 186,79.5C 184.14,83.2198 182.307,86.8864 180.5,90.5C 179.735,91.6602 178.735,92.6602 177.5,93.5C 177.167,92.6667 176.833,91.8333 176.5,91C 178.524,86.4515 180.691,81.9515 183,77.5C 184.873,75.2911 187.04,73.4578 189.5,72C 191.535,71.4014 193.201,71.9014 194.5,73.5 Z"/></g>
<g><path style="opacity:1" fill="#fed5ee" d="M 154.5,71.5 C 154.6,76.9707 152.933,81.6374 149.5,85.5C 150.475,81.5317 151.475,77.5317 152.5,73.5C 152.747,72.2867 153.414,71.62 154.5,71.5 Z"/></g>
<g><path style="opacity:1" fill="#fd92d1" d="M 50.5,73.5 C 49.871,76.3973 48.871,79.064 47.5,81.5C 47.3455,78.284 48.3455,75.6174 50.5,73.5 Z"/></g>
<g><path style="opacity:1" fill="#fbe6f5" d="M 194.5,73.5 C 194.291,74.9217 193.791,76.255 193,77.5C 189.278,82.292 185.111,86.6254 180.5,90.5C 182.307,86.8864 184.14,83.2198 186,79.5C 188.207,76.436 191.041,74.436 194.5,73.5 Z"/></g>
<g><path style="opacity:1" fill="#fdcee7" d="M 118.5,71.5 C 118.622,77.1771 117.622,82.5105 115.5,87.5C 115.299,81.8196 116.299,76.4862 118.5,71.5 Z"/></g>
<g><path style="opacity:1" fill="#fdc3e5" d="M 102.5,73.5 C 101.581,76.0892 99.914,78.0892 97.5,79.5C 98.4194,76.9108 100.086,74.9108 102.5,73.5 Z"/></g>
<g><path style="opacity:1" fill="#fdbde8" d="M 111.5,62.5 C 111.737,63.791 111.404,64.791 110.5,65.5C 108.146,68.5211 105.479,71.1877 102.5,73.5C 104.793,69.2424 107.793,65.5758 111.5,62.5 Z"/></g>
<g><path style="opacity:1" fill="#fcc6e9" d="M 215.5,63.5 C 215.104,66.721 213.771,69.3877 211.5,71.5C 211.896,68.279 213.229,65.6123 215.5,63.5 Z"/></g>
<g><path style="opacity:1" fill="#fd98d7" d="M 54.5,64.5 C 54.5,65.1667 54.5,65.8333 54.5,66.5C 53.8571,68.0764 52.8571,69.4097 51.5,70.5C 51.7549,68.0326 52.7549,66.0326 54.5,64.5 Z"/></g>
<g><path style="opacity:1" fill="#fadcf3" d="M 100.5,57.5 C 100.586,58.4959 100.252,59.3292 99.5,60C 100.094,60.4643 100.761,60.631 101.5,60.5C 100.92,62.7488 99.5869,64.4154 97.5,65.5C 95.8439,66.1465 94.1772,66.8131 92.5,67.5C 90.8405,66.8284 89.5072,65.8284 88.5,64.5C 89.5,64.5 90.5,64.5 91.5,64.5C 92.2506,65.5735 93.2506,65.7401 94.5,65C 96.1784,62.0862 98.1784,59.5862 100.5,57.5 Z"/></g>
<g><path style="opacity:1" fill="#ffceeb" d="M 58.5,57.5 C 58.4865,61.2506 57.1531,64.2506 54.5,66.5C 54.5,65.8333 54.5,65.1667 54.5,64.5C 55.0787,61.6689 56.412,59.3356 58.5,57.5 Z"/></g>
<g><path style="opacity:1" fill="#fecdec" d="M 122.5,51.5 C 122.981,58.0212 121.648,64.0212 118.5,69.5C 118.989,63.1959 120.322,57.1959 122.5,51.5 Z"/></g>
<g><path style="opacity:1" fill="#ffafe1" d="M 162.5,57.5 C 162.25,59.674 161.25,61.3406 159.5,62.5C 159.75,60.326 160.75,58.6594 162.5,57.5 Z"/></g>
<g><path style="opacity:1" fill="#fdaadf" d="M 213.5,56.5 C 213.5,56.1667 213.5,55.8333 213.5,55.5C 214.833,55.5 216.167,55.5 217.5,55.5C 217.784,57.4147 217.451,59.0813 216.5,60.5C 216.912,58.0274 215.912,56.6941 213.5,56.5 Z"/></g>
<g><path style="opacity:1" fill="#fec9eb" d="M 167.5,49.5 C 167.657,50.8734 167.49,52.2068 167,53.5C 165.532,54.9893 164.032,56.3226 162.5,57.5C 163.383,54.2957 165.05,51.6291 167.5,49.5 Z"/></g>
<g><path style="opacity:1" fill="#fd93d2" d="M 105.5,44.5 C 105.448,47.3462 104.448,49.6796 102.5,51.5C 102.759,48.7282 103.759,46.3949 105.5,44.5 Z"/></g>
<g><path style="opacity:1" fill="#ffcbea" d="M 81.5,28.5 C 75.6505,34.3314 70.3172,40.3314 65.5,46.5C 69.0631,38.9363 74.3965,32.9363 81.5,28.5 Z"/></g>
<g><path style="opacity:1" fill="#f3cfef" d="M 115.5,45.5 C 117.694,44.2335 120.028,44.2335 122.5,45.5C 123.793,47.6365 123.793,49.6365 122.5,51.5C 122.5,49.8333 122.5,48.1667 122.5,46.5C 121.5,46.5 120.5,46.5 119.5,46.5C 118.292,45.7659 116.959,45.4326 115.5,45.5 Z"/></g>
<g><path style="opacity:1" fill="#f951b8" d="M 103.5,15.5 C 103.833,15.5 104.167,15.5 104.5,15.5C 105.833,17.5 107.5,19.1667 109.5,20.5C 110.332,28.9049 108.999,36.9049 105.5,44.5C 103.759,46.3949 102.759,48.7282 102.5,51.5C 101.833,53.5 101.167,55.5 100.5,57.5C 98.1784,59.5862 96.1784,62.0862 94.5,65C 93.2506,65.7401 92.2506,65.5735 91.5,64.5C 97.9317,54.9671 102.765,44.6338 106,33.5C 107.22,27.1028 106.386,21.1028 103.5,15.5 Z"/></g>
<g><path style="opacity:1" fill="#fec4e7" d="M 109.5,20.5 C 111.832,25.0497 112.166,29.883 110.5,35C 109.479,38.6063 107.813,41.773 105.5,44.5C 108.999,36.9049 110.332,28.9049 109.5,20.5 Z"/></g>
<g><path style="opacity:1" fill="#f346b6" d="M 172.5,18.5 C 173.376,18.3691 174.043,18.7025 174.5,19.5C 169.604,29.6255 164.437,39.6255 159,49.5C 158.333,48.1667 158.333,46.8333 159,45.5C 163.357,36.3439 167.857,27.3439 172.5,18.5 Z"/></g>
<g><path style="opacity:1" fill="#fdcceb" d="M 99.5,19.5 C 100.167,19.5 100.5,19.8333 100.5,20.5C 96.0434,20.9547 91.7101,21.9547 87.5,23.5C 90.6866,20.0747 94.6866,18.7413 99.5,19.5 Z"/></g>
<g><path style="opacity:1" fill="#fefcfd" d="M 100.5,20.5 C 101.107,22.7455 101.44,25.0788 101.5,27.5C 99.6427,40.5551 94.976,52.5551 87.5,63.5C 87.6236,64.1067 87.9569,64.44 88.5,64.5C 89.5072,65.8284 90.8405,66.8284 92.5,67.5C 94.1772,66.8131 95.8439,66.1465 97.5,65.5C 86.4513,80.0543 74.118,93.5543 60.5,106C 55.6204,110.44 49.9537,113.273 43.5,114.5C 43.4431,113.391 43.1098,112.391 42.5,111.5C 42.3921,106.13 42.7255,100.797 43.5,95.5C 43.5,95.1667 43.5,94.8333 43.5,94.5C 44.9238,92.4855 45.5905,90.1522 45.5,87.5C 46.1667,85.5 46.8333,83.5 47.5,81.5C 48.871,79.064 49.871,76.3973 50.5,73.5C 50.5569,72.391 50.8902,71.391 51.5,70.5C 52.8571,69.4097 53.8571,68.0764 54.5,66.5C 57.1531,64.2506 58.4865,61.2506 58.5,57.5C 60.5867,53.6559 62.92,49.9893 65.5,46.5C 70.3172,40.3314 75.6505,34.3314 81.5,28.5C 82.865,26.1402 84.865,24.4735 87.5,23.5C 91.7101,21.9547 96.0434,20.9547 100.5,20.5 Z"/></g>
<g><path style="opacity:1" fill="#fdc3e8" d="M 104.5,15.5 C 107.702,15.5367 109.368,17.2033 109.5,20.5C 107.5,19.1667 105.833,17.5 104.5,15.5 Z"/></g>
<g><path style="opacity:1" fill="#febfe6" d="M 250.5,79.5 C 250.5,80.8333 250.5,82.1667 250.5,83.5C 248.938,83.7329 247.605,84.3995 246.5,85.5C 247.057,82.9501 248.39,80.9501 250.5,79.5 Z"/></g>
<g><path style="opacity:1" fill="#feb3e0" d="M 94.5,82.5 C 93.9202,84.7488 92.5869,86.4154 90.5,87.5C 91.0798,85.2512 92.4131,83.5846 94.5,82.5 Z"/></g>
<g><path style="opacity:1" fill="#febfe6" d="M 310.5,76.5 C 311.942,78.8169 311.608,80.9836 309.5,83C 305.5,86.3333 301.5,89.6667 297.5,93C 295.133,94.8448 292.467,96.0114 289.5,96.5C 295.911,91.9419 302.245,87.1086 308.5,82C 310.155,80.5557 310.822,78.7224 310.5,76.5 Z"/></g>
<g><path style="opacity:1" fill="#ffafe0" d="M 45.5,87.5 C 45.5905,90.1522 44.9238,92.4855 43.5,94.5C 43.4095,91.8478 44.0762,89.5145 45.5,87.5 Z"/></g>
<g><path style="opacity:1" fill="#fb54ba" d="M 196.5,85.5 C 195.662,85.8417 195.328,86.5084 195.5,87.5C 191.833,90.5 188.5,93.8333 185.5,97.5C 183.731,98.4214 182.065,99.5881 180.5,101C 178.613,101.78 176.946,101.613 175.5,100.5C 177.255,99.9278 178.922,99.0945 180.5,98C 186.532,92.3021 192.199,86.3021 197.5,80C 198.167,79.3333 198.833,79.3333 199.5,80C 198.242,81.7409 197.242,83.5742 196.5,85.5 Z"/></g>
<g><path style="opacity:1" fill="#f955ba" d="M 272.5,88.5 C 270.5,89.8333 268.833,91.5 267.5,93.5C 265.186,95.4773 262.853,97.4773 260.5,99.5C 259.311,100.429 257.978,100.762 256.5,100.5C 255.833,100.5 255.5,100.167 255.5,99.5C 260.593,95.912 265.26,91.7454 269.5,87C 270.998,86.4153 271.998,86.9153 272.5,88.5 Z"/></g>
<g><path style="opacity:1" fill="#ffd0ed" d="M 195.5,87.5 C 193.123,91.8771 189.79,95.2104 185.5,97.5C 188.5,93.8333 191.833,90.5 195.5,87.5 Z"/></g>
<g><path style="opacity:1" fill="#fa5cbd" d="M 307.5,76.5 C 308.5,76.5 309.5,76.5 310.5,76.5C 310.822,78.7224 310.155,80.5557 308.5,82C 302.245,87.1086 295.911,91.9419 289.5,96.5C 286.833,97.8333 284.167,97.8333 281.5,96.5C 285.602,96.0582 289.269,94.5582 292.5,92C 297.333,87.8333 302.167,83.6667 307,79.5C 307.483,78.552 307.649,77.552 307.5,76.5 Z"/></g>
<g><path style="opacity:1" fill="#f6afe1" d="M 140.5,88.5 C 140.784,90.4147 140.451,92.0813 139.5,93.5C 138.798,92.8843 137.798,92.8843 136.5,93.5C 137.864,91.8089 139.197,90.1423 140.5,88.5 Z"/></g>
<g><path style="opacity:1" fill="#f95cbd" d="M 222.5,90.5 C 220.089,91.517 218.422,93.1837 217.5,95.5C 215.973,95.427 214.973,96.0937 214.5,97.5C 210.985,98.9193 207.319,99.586 203.5,99.5C 210.618,96.237 217.118,91.9037 223,86.5C 223.195,87.8193 223.028,89.1526 222.5,90.5 Z"/></g>
<g><path style="opacity:1" fill="#f950b8" d="M 119.5,46.5 C 120.5,46.5 121.5,46.5 122.5,46.5C 122.5,48.1667 122.5,49.8333 122.5,51.5C 120.322,57.1959 118.989,63.1959 118.5,69.5C 118.5,70.1667 118.5,70.8333 118.5,71.5C 116.299,76.4862 115.299,81.8196 115.5,87.5C 113.341,93.9376 111.674,100.604 110.5,107.5C 109.844,108.278 109.011,108.944 108,109.5C 107.5,109.167 107,108.833 106.5,108.5C 111.266,87.9011 115.599,67.2344 119.5,46.5 Z"/></g>
<g><path style="opacity:1" fill="#fac5eb" d="M 222.5,90.5 C 222.737,91.791 222.404,92.791 221.5,93.5C 219.938,93.7329 218.605,94.3995 217.5,95.5C 218.422,93.1837 220.089,91.517 222.5,90.5 Z"/></g>
<g><path style="opacity:1" fill="#e7aee4" d="M 232.5,87.5 C 232.263,88.791 232.596,89.791 233.5,90.5C 232.737,92.3684 231.737,94.0351 230.5,95.5C 230.802,92.6275 231.469,89.9608 232.5,87.5 Z"/></g>
<g><path style="opacity:1" fill="#fcc5e8" d="M 246.5,85.5 C 245.217,87.6064 244.384,89.9398 244,92.5C 242.961,93.7101 241.794,94.7101 240.5,95.5C 241.223,91.4346 243.223,88.1013 246.5,85.5 Z"/></g>
<g><path style="opacity:1" fill="#fa4eb8" d="M 240.5,49.5 C 242.099,49.2322 243.432,49.5655 244.5,50.5C 243.241,54.0411 242.241,57.7077 241.5,61.5C 239.935,63.5093 238.935,65.8427 238.5,68.5C 236.358,71.8004 235.025,75.467 234.5,79.5C 234.037,82.221 233.371,84.8877 232.5,87.5C 231.469,89.9608 230.802,92.6275 230.5,95.5C 229.356,97.1002 228.189,98.7669 227,100.5C 228.796,83.4933 233.63,67.3266 241.5,52C 241.257,51.0979 240.923,50.2646 240.5,49.5 Z"/></g>
<g><path style="opacity:1" fill="#feccec" d="M 267.5,93.5 C 266.366,96.5994 264.366,99.0994 261.5,101C 259.613,101.78 257.946,101.613 256.5,100.5C 257.978,100.762 259.311,100.429 260.5,99.5C 262.853,97.4773 265.186,95.4773 267.5,93.5 Z"/></g>
<g><path style="opacity:1" fill="#fdd4ee" d="M 85.5,93.5 C 81.6874,100.129 76.354,105.129 69.5,108.5C 74.3716,103.891 79.0383,99.0572 83.5,94C 84.0944,93.5357 84.7611,93.369 85.5,93.5 Z"/></g>
<g><path style="opacity:1" fill="#fa4fb8" d="M 250.5,79.5 C 248.39,80.9501 247.057,82.9501 246.5,85.5C 243.223,88.1013 241.223,91.4346 240.5,95.5C 239.263,96.9649 238.263,98.6316 237.5,100.5C 235,103.494 233,106.827 231.5,110.5C 231.5,110.833 231.5,111.167 231.5,111.5C 229.787,113.85 227.453,114.85 224.5,114.5C 231.24,104.028 237.74,93.3612 244,82.5C 246.046,80.6239 247.879,78.6239 249.5,76.5C 250.386,77.325 250.719,78.325 250.5,79.5 Z"/></g>
<g><path style="opacity:1" fill="#fad4f0" d="M 214.5,97.5 C 213.942,98.7899 212.942,99.6232 211.5,100C 208.232,101.213 204.899,101.546 201.5,101C 200.619,100.292 199.953,99.4584 199.5,98.5C 200.833,98.8333 202.167,99.1667 203.5,99.5C 207.319,99.586 210.985,98.9193 214.5,97.5 Z"/></g>
<g><path style="opacity:1" fill="#feb5e1" d="M 43.5,95.5 C 42.7255,100.797 42.3921,106.13 42.5,111.5C 41.3516,107.019 41.1849,102.352 42,97.5C 42.2784,96.5842 42.7784,95.9175 43.5,95.5 Z"/></g>
<g><path style="opacity:1" fill="#febee6" d="M 237.5,100.5 C 237.018,104.805 235.018,108.139 231.5,110.5C 233,106.827 235,103.494 237.5,100.5 Z"/></g>
<g><path style="opacity:1" fill="#feb7e1" d="M 125.5,103.5 C 124.243,106.427 122.243,108.761 119.5,110.5C 120.757,107.573 122.757,105.239 125.5,103.5 Z"/></g>
<g><path style="opacity:1" fill="#fdb3de" d="M 69.5,108.5 C 68.1092,110.89 66.1092,112.557 63.5,113.5C 64.865,111.14 66.865,109.473 69.5,108.5 Z"/></g>
<g><path style="opacity:1" fill="#f94eb8" d="M 171.5,100.5 C 168.759,102.975 166.759,105.975 165.5,109.5C 162.353,111.313 160.353,113.98 159.5,117.5C 156.703,119.795 154.036,122.295 151.5,125C 149.564,125.813 147.564,126.313 145.5,126.5C 154.87,117.954 163.036,108.288 170,97.5C 171.039,98.2438 171.539,99.2438 171.5,100.5 Z"/></g>
<g><path style="opacity:1" fill="#fdc2e9" d="M 149.5,87.5 C 148.829,95.8628 147.829,104.196 146.5,112.5C 146.667,113.833 146.833,115.167 147,116.5C 147.383,117.056 147.883,117.389 148.5,117.5C 148.167,118.5 147.5,119.167 146.5,119.5C 145.441,108.689 146.441,98.0223 149.5,87.5 Z"/></g>
<g><path style="opacity:1" fill="#feafdd" d="M 165.5,109.5 C 163.878,112.455 161.878,115.122 159.5,117.5C 160.353,113.98 162.353,111.313 165.5,109.5 Z"/></g>
<g><path style="opacity:1" fill="#fdb8e2" d="M 117.5,111.5 C 116.243,114.427 114.243,116.761 111.5,118.5C 112.757,115.573 114.757,113.239 117.5,111.5 Z"/></g>
<g><path style="opacity:1" fill="#fdb8e3" d="M 231.5,111.5 C 230.754,114.555 228.754,116.222 225.5,116.5C 224.287,116.253 223.62,115.586 223.5,114.5C 223.833,114.5 224.167,114.5 224.5,114.5C 227.453,114.85 229.787,113.85 231.5,111.5 Z"/></g>
<g><path style="opacity:1" fill="#fcc3e6" d="M 59.5,116.5 C 59.6309,117.376 59.2975,118.043 58.5,118.5C 53.1038,121.173 47.4371,122.006 41.5,121C 40.944,120.617 40.6107,120.117 40.5,119.5C 41.1667,119.5 41.8333,119.5 42.5,119.5C 44.9664,120.634 47.633,120.801 50.5,120C 53.6756,119.111 56.6756,117.945 59.5,116.5 Z"/></g>
<g><path style="opacity:1" fill="#feafde" d="M 159.5,117.5 C 156.968,122.865 152.801,126.198 147,127.5C 145.93,127.472 145.097,127.139 144.5,126.5C 144.833,126.5 145.167,126.5 145.5,126.5C 147.564,126.313 149.564,125.813 151.5,125C 154.036,122.295 156.703,119.795 159.5,117.5 Z"/></g>
<g><path style="opacity:1" fill="#f3d0ee" d="M 258.5,132.5 C 265.359,130.439 271.692,131.605 277.5,136C 278.582,137.33 279.249,138.83 279.5,140.5C 279.167,140.5 278.833,140.5 278.5,140.5C 277.833,137.833 276.167,136.167 273.5,135.5C 268.882,132.98 263.882,131.98 258.5,132.5 Z"/></g>
<g><path style="opacity:1" fill="#f850b9" d="M 89.5,142.5 C 86.1972,146.313 83.0305,150.313 80,154.5C 79.2086,155.745 78.7086,157.078 78.5,158.5C 77.1765,159.85 76.1765,159.683 75.5,158C 79.7882,149.368 85.2882,141.535 92,134.5C 92.0665,137.387 91.2332,140.054 89.5,142.5 Z"/></g>
<g><path style="opacity:1" fill="#fecceb" d="M 102.5,135.5 C 101.024,141.461 98.6905,147.128 95.5,152.5C 95.0431,153.298 94.3764,153.631 93.5,153.5C 95.9922,147.182 98.9922,141.182 102.5,135.5 Z"/></g>
<g><path style="opacity:1" fill="#fdd4ee" d="M 279.5,140.5 C 280.458,140.953 281.292,141.619 282,142.5C 282.814,147.02 282.647,151.354 281.5,155.5C 281.817,150.328 281.151,145.328 279.5,140.5 Z"/></g>
<g><path style="opacity:1" fill="#f852ba" d="M 140.5,88.5 C 139.197,90.1423 137.864,91.8089 136.5,93.5C 132.782,96.8901 129.115,100.223 125.5,103.5C 122.757,105.239 120.757,107.573 119.5,110.5C 118.833,110.833 118.167,111.167 117.5,111.5C 114.757,113.239 112.757,115.573 111.5,118.5C 106.666,123.166 103.666,128.833 102.5,135.5C 98.9922,141.182 95.9922,147.182 93.5,153.5C 91.6736,155.147 90.3403,157.147 89.5,159.5C 87.1024,161.548 84.4357,163.381 81.5,165C 79.5273,165.495 77.5273,165.662 75.5,165.5C 74.5084,165.672 73.8417,165.338 73.5,164.5C 75.5273,164.662 77.5273,164.495 79.5,164C 86.2223,158.41 91.389,151.577 95,143.5C 97.608,135.675 100.608,128.009 104,120.5C 114.863,109.303 126.029,98.47 137.5,88C 139.304,86.1878 140.304,86.3544 140.5,88.5 Z"/></g>
<g><path style="opacity:1" fill="#fe79c8" d="M 278.5,140.5 C 278.833,140.5 279.167,140.5 279.5,140.5C 281.151,145.328 281.817,150.328 281.5,155.5C 281.843,157.483 281.176,158.817 279.5,159.5C 279.653,153.131 279.32,146.797 278.5,140.5 Z"/></g>
<g><path style="opacity:1" fill="#f5c5eb" d="M 89.5,142.5 C 87.3874,148.938 83.7207,154.272 78.5,158.5C 78.7086,157.078 79.2086,155.745 80,154.5C 83.0305,150.313 86.1972,146.313 89.5,142.5 Z"/></g>
<g><path style="opacity:1" fill="#fb4fb8" d="M 273.5,135.5 C 276.167,136.167 277.833,137.833 278.5,140.5C 279.32,146.797 279.653,153.131 279.5,159.5C 279.5,160.833 279.5,162.167 279.5,163.5C 276.357,166.004 274.691,169.337 274.5,173.5C 271.848,177.458 269.182,181.458 266.5,185.5C 266.5,185.833 266.5,186.167 266.5,186.5C 261.308,190.645 260.308,189.645 263.5,183.5C 269.908,174.351 274.408,164.351 277,153.5C 277.739,147.124 276.572,141.124 273.5,135.5 Z"/></g>
<g><path style="opacity:1" fill="#fdc6e7" d="M 89.5,159.5 C 88.1006,164.757 84.6006,167.091 79,166.5C 77.6153,166.486 76.4486,166.152 75.5,165.5C 77.5273,165.662 79.5273,165.495 81.5,165C 84.4357,163.381 87.1024,161.548 89.5,159.5 Z"/></g>
<g><path style="opacity:1" fill="#fec7ea" d="M 444.5,157.5 C 443.394,160.054 442.561,162.721 442,165.5C 441.583,166.756 440.75,167.423 439.5,167.5C 440.606,164.946 441.439,162.279 442,159.5C 442.417,158.244 443.25,157.577 444.5,157.5 Z"/></g>
<g><path style="opacity:1" fill="#fa4eb7" d="M 441.5,150.5 C 442.833,150.5 444.167,150.5 445.5,150.5C 445.552,152.903 445.219,155.236 444.5,157.5C 443.25,157.577 442.417,158.244 442,159.5C 441.439,162.279 440.606,164.946 439.5,167.5C 436.887,170.645 435.221,174.311 434.5,178.5C 433.167,178.5 431.833,178.5 430.5,178.5C 430.34,176.801 430.506,175.134 431,173.5C 435.045,166.076 438.545,158.41 441.5,150.5 Z"/></g>
<g><path style="opacity:1" fill="#f9c5e8" d="M 439.5,167.5 C 438.805,170.567 437.805,173.567 436.5,176.5C 437.325,177.386 438.325,177.719 439.5,177.5C 438.081,178.451 436.415,178.784 434.5,178.5C 435.221,174.311 436.887,170.645 439.5,167.5 Z"/></g>
<g><path style="opacity:1" fill="#fed4ed" d="M 485.5,174.5 C 487.764,175.219 490.097,175.552 492.5,175.5C 493.661,180.175 491.994,182.841 487.5,183.5C 478.177,184.068 468.844,184.401 459.5,184.5C 459.5,184.167 459.5,183.833 459.5,183.5C 469.545,183.262 479.545,182.429 489.5,181C 491.161,177.85 490.161,176.35 486.5,176.5C 486.167,175.833 485.833,175.167 485.5,174.5 Z"/></g>
<g><path style="opacity:1" fill="#fe85cd" d="M 459.5,183.5 C 459.5,183.833 459.5,184.167 459.5,184.5C 452.803,184.885 446.136,185.552 439.5,186.5C 437.5,186.5 435.5,186.5 433.5,186.5C 441.929,184.67 450.596,183.67 459.5,183.5 Z"/></g>
<g><path style="opacity:1" fill="#fee7f7" d="M 487.5,183.5 C 468.931,185.069 450.264,187.069 431.5,189.5C 431.611,188.883 431.944,188.383 432.5,188C 435.036,187.814 437.369,187.314 439.5,186.5C 446.136,185.552 452.803,184.885 459.5,184.5C 468.844,184.401 478.177,184.068 487.5,183.5 Z"/></g>
<g><path style="opacity:1" fill="#f94eb8" d="M 486.5,176.5 C 490.161,176.35 491.161,177.85 489.5,181C 479.545,182.429 469.545,183.262 459.5,183.5C 450.596,183.67 441.929,184.67 433.5,186.5C 428.569,187.436 426.235,190.436 426.5,195.5C 423.033,203.107 419.533,210.774 416,218.5C 415.499,222.51 414.999,226.51 414.5,230.5C 414.5,230.833 414.5,231.167 414.5,231.5C 411.666,237.161 409.499,243.161 408,249.5C 407.006,254.118 406.506,258.785 406.5,263.5C 404.772,269.238 404.105,275.238 404.5,281.5C 403.614,282.776 402.614,282.776 401.5,281.5C 400.673,270.758 401.506,260.092 404,249.5C 409.587,228.821 416.254,208.487 424,188.5C 425.214,186.951 426.714,185.785 428.5,185C 447.78,182.596 467.113,180.762 486.5,179.5C 486.5,178.5 486.5,177.5 486.5,176.5 Z"/></g>
<g><path style="opacity:1" fill="#feb7e1" d="M 433.5,186.5 C 435.5,186.5 437.5,186.5 439.5,186.5C 437.369,187.314 435.036,187.814 432.5,188C 431.944,188.383 431.611,188.883 431.5,189.5C 429.833,191.5 428.167,193.5 426.5,195.5C 426.235,190.436 428.569,187.436 433.5,186.5 Z"/></g>
<g><path style="opacity:1" fill="#ff91d1" d="M 426.5,195.5 C 423.244,207.575 419.244,219.242 414.5,230.5C 414.999,226.51 415.499,222.51 416,218.5C 419.533,210.774 423.033,203.107 426.5,195.5 Z"/></g>
<g><path style="opacity:1" fill="#9561cb" d="M 258.5,132.5 C 263.882,131.98 268.882,132.98 273.5,135.5C 276.572,141.124 277.739,147.124 277,153.5C 274.408,164.351 269.908,174.351 263.5,183.5C 259.936,187.614 256.603,191.948 253.5,196.5C 252.292,197.234 250.959,197.567 249.5,197.5C 249.343,196.127 249.51,194.793 250,193.5C 258.42,183.828 264.92,172.995 269.5,161C 271.351,155.286 271.851,149.453 271,143.5C 270.148,142.429 269.315,141.429 268.5,140.5C 268.5,139.833 268.167,139.5 267.5,139.5C 263.741,137.054 259.741,136.888 255.5,139C 230.99,149.178 213.823,166.678 204,191.5C 196.985,206.905 193.152,223.071 192.5,240C 192.418,248.177 194.585,255.677 199,262.5C 200.777,264.79 202.944,266.457 205.5,267.5C 211.224,271.324 217.558,272.49 224.5,271C 240.732,266.72 255.065,259.053 267.5,248C 277.869,237.299 287.869,226.299 297.5,215C 299.639,213.596 301.972,212.763 304.5,212.5C 308.232,213.476 311.898,214.309 315.5,215C 319.833,209.333 324.167,203.667 328.5,198C 330.352,197.227 331.686,197.727 332.5,199.5C 328.584,209.408 324.75,219.408 321,229.5C 319.038,234.656 318.205,239.989 318.5,245.5C 320.553,245.598 322.22,244.931 323.5,243.5C 326.09,242.872 328.423,241.705 330.5,240C 337.5,234.167 344.5,228.333 351.5,222.5C 353.357,218.619 355.357,214.786 357.5,211C 359.463,210.156 360.796,210.656 361.5,212.5C 361.5,212.833 361.5,213.167 361.5,213.5C 356.905,225.449 352.405,237.449 348,249.5C 346.037,261.027 347.203,261.027 351.5,249.5C 353.75,246.001 355.75,242.335 357.5,238.5C 359.745,235.68 361.745,232.68 363.5,229.5C 366.003,227.167 368.669,225.001 371.5,223C 373.929,222.297 376.262,222.463 378.5,223.5C 379.986,227.137 381.986,230.47 384.5,233.5C 386.316,234.735 387.983,234.735 389.5,233.5C 395.343,230.83 400.51,227.163 405,222.5C 408.541,211.375 412.375,200.375 416.5,189.5C 416.5,189.167 416.5,188.833 416.5,188.5C 415.486,187.235 413.986,186.569 412,186.5C 404.328,187.312 396.828,188.312 389.5,189.5C 389.167,189.5 388.833,189.5 388.5,189.5C 384.839,189.65 383.839,188.15 385.5,185C 396.772,182.693 408.105,180.859 419.5,179.5C 424.732,169.371 430.232,159.371 436,149.5C 438.235,148.02 440.068,148.353 441.5,150.5C 438.545,158.41 435.045,166.076 431,173.5C 430.506,175.134 430.34,176.801 430.5,178.5C 431.833,178.5 433.167,178.5 434.5,178.5C 436.415,178.784 438.081,178.451 439.5,177.5C 454.826,176.367 470.159,175.367 485.5,174.5C 485.833,175.167 486.167,175.833 486.5,176.5C 486.5,177.5 486.5,178.5 486.5,179.5C 467.113,180.762 447.78,182.596 428.5,185C 426.714,185.785 425.214,186.951 424,188.5C 416.254,208.487 409.587,228.821 404,249.5C 401.506,260.092 400.673,270.758 401.5,281.5C 402.614,282.776 403.614,282.776 404.5,281.5C 405.791,281.737 406.791,281.404 407.5,280.5C 419.835,263.992 432.002,247.325 444,230.5C 446.37,227.961 448.87,225.628 451.5,223.5C 453.973,223.088 455.306,224.088 455.5,226.5C 442.354,244.099 429.187,261.765 416,279.5C 412.513,283.835 408.346,287.168 403.5,289.5C 402.833,289.5 402.167,289.5 401.5,289.5C 398.548,288.641 396.715,286.641 396,283.5C 394.993,280.425 394.493,277.258 394.5,274C 395.874,264.174 397.207,254.341 398.5,244.5C 399.738,242.786 400.405,240.786 400.5,238.5C 401.473,236.932 401.64,235.265 401,233.5C 396.71,236.645 392.043,238.978 387,240.5C 385.862,240.011 384.695,239.678 383.5,239.5C 380.911,238.581 378.911,236.914 377.5,234.5C 377.5,233.833 377.167,233.5 376.5,233.5C 375.984,231.8 374.984,230.467 373.5,229.5C 369.813,232.353 366.647,235.686 364,239.5C 357.932,252.64 351.098,265.307 343.5,277.5C 339.046,276.839 337.379,274.172 338.5,269.5C 338.95,261.081 340.617,252.915 343.5,245C 343.43,244.235 343.097,243.735 342.5,243.5C 344.854,240.465 346.354,237.132 347,233.5C 338.929,242.088 329.429,248.421 318.5,252.5C 315.921,252.148 314.087,250.814 313,248.5C 312.502,245.518 312.335,242.518 312.5,239.5C 313.451,238.081 313.784,236.415 313.5,234.5C 313.586,232.323 314.253,230.323 315.5,228.5C 314.998,227.479 314.332,227.312 313.5,228C 305.23,238.107 295.897,246.94 285.5,254.5C 285.167,254.5 284.833,254.5 284.5,254.5C 283.29,254.068 282.29,253.401 281.5,252.5C 281.068,251.29 280.401,250.29 279.5,249.5C 280.323,247.545 280.49,245.545 280,243.5C 261.826,264.337 238.993,275.67 211.5,277.5C 210.432,276.566 209.099,276.232 207.5,276.5C 195.505,270.644 188.671,260.977 187,247.5C 186.828,214.348 196.828,184.681 217,158.5C 228.267,145.623 242.101,136.956 258.5,132.5 Z"/></g>
<g><path style="opacity:1" fill="#fa4eb8" d="M 332.5,199.5 C 332.833,199.5 333.167,199.5 333.5,199.5C 335.69,200.374 336.69,202.041 336.5,204.5C 333.597,209.984 330.763,215.65 328,221.5C 326.648,224.72 325.814,228.053 325.5,231.5C 322.897,235.268 322.231,239.268 323.5,243.5C 322.22,244.931 320.553,245.598 318.5,245.5C 318.205,239.989 319.038,234.656 321,229.5C 324.75,219.408 328.584,209.408 332.5,199.5 Z"/></g>
<g><path style="opacity:1" fill="#fdcfec" d="M 308.5,220.5 C 309.833,221.5 309.833,222.5 308.5,223.5C 308.565,223.062 308.399,222.728 308,222.5C 305.868,223.928 303.701,225.261 301.5,226.5C 302.746,223.357 305.08,221.357 308.5,220.5 Z"/></g>
<g><path style="opacity:1" fill="#fe97cf" d="M 200.5,215.5 C 200.435,218.428 199.768,221.095 198.5,223.5C 198.294,220.505 198.96,217.838 200.5,215.5 Z"/></g>
<g><path style="opacity:1" fill="#fd9ed8" d="M 361.5,213.5 C 361.5,213.167 361.5,212.833 361.5,212.5C 362.833,212.5 364.167,212.5 365.5,212.5C 365.665,215.518 365.498,218.518 365,221.5C 364.722,222.416 364.222,223.082 363.5,223.5C 364.051,220.193 364.384,216.86 364.5,213.5C 363.5,213.5 362.5,213.5 361.5,213.5 Z"/></g>
<g><path style="opacity:1" fill="#feb6e2" d="M 336.5,204.5 C 333.596,213.952 329.929,222.952 325.5,231.5C 325.814,228.053 326.648,224.72 328,221.5C 330.763,215.65 333.597,209.984 336.5,204.5 Z"/></g>
<g><path style="opacity:1" fill="#fb55ba" d="M 267.5,139.5 C 264.15,139.335 260.817,139.502 257.5,140C 255.456,140.498 254.122,141.665 253.5,143.5C 248.217,145.14 243.551,147.806 239.5,151.5C 239.5,151.833 239.5,152.167 239.5,152.5C 236.638,153.247 234.638,154.914 233.5,157.5C 229.833,159.167 227.167,161.833 225.5,165.5C 224.5,165.833 223.833,166.5 223.5,167.5C 220.864,170.31 218.364,173.31 216,176.5C 214.872,178.345 214.372,180.345 214.5,182.5C 209.841,188.82 206.508,195.82 204.5,203.5C 203.152,207.584 201.819,211.584 200.5,215.5C 198.96,217.838 198.294,220.505 198.5,223.5C 198.5,224.833 198.5,226.167 198.5,227.5C 196.983,231.56 196.316,235.893 196.5,240.5C 196.502,243.686 196.835,246.686 197.5,249.5C 198.811,256.131 201.477,262.131 205.5,267.5C 202.944,266.457 200.777,264.79 199,262.5C 194.585,255.677 192.418,248.177 192.5,240C 193.152,223.071 196.985,206.905 204,191.5C 213.823,166.678 230.99,149.178 255.5,139C 259.741,136.888 263.741,137.054 267.5,139.5 Z"/></g>
<g><path style="opacity:1" fill="#ffb0e1" d="M 333.5,199.5 C 334.833,199.5 336.167,199.5 337.5,199.5C 337.784,201.415 337.451,203.081 336.5,204.5C 336.69,202.041 335.69,200.374 333.5,199.5 Z"/></g>
<g><path style="opacity:1" fill="#fb74c7" d="M 263.5,183.5 C 260.308,189.645 261.308,190.645 266.5,186.5C 264.976,190.202 262.81,193.536 260,196.5C 258.254,198.457 256.088,199.457 253.5,199.5C 253.5,198.5 253.5,197.5 253.5,196.5C 256.603,191.948 259.936,187.614 263.5,183.5 Z"/></g>
<g><path style="opacity:1" fill="#fed3ee" d="M 214.5,182.5 C 211.979,189.876 208.646,196.876 204.5,203.5C 206.508,195.82 209.841,188.82 214.5,182.5 Z"/></g>
<g><path style="opacity:1" fill="#fdbce3" d="M 416.5,188.5 C 416.5,188.833 416.5,189.167 416.5,189.5C 409.853,190.295 403.186,190.962 396.5,191.5C 393.41,191.478 390.743,190.812 388.5,189.5C 388.833,189.5 389.167,189.5 389.5,189.5C 391.304,190.162 393.304,190.495 395.5,190.5C 402.473,189.504 409.473,188.838 416.5,188.5 Z"/></g>
<g><path style="opacity:1" fill="#fa5dbe" d="M 416.5,188.5 C 409.473,188.838 402.473,189.504 395.5,190.5C 393.304,190.495 391.304,190.162 389.5,189.5C 396.828,188.312 404.328,187.312 412,186.5C 413.986,186.569 415.486,187.235 416.5,188.5 Z"/></g>
<g><path style="opacity:1" fill="#fca2d8" d="M 274.5,173.5 C 273.331,178.507 270.664,182.507 266.5,185.5C 269.182,181.458 271.848,177.458 274.5,173.5 Z"/></g>
<g><path style="opacity:1" fill="#fdb0e0" d="M 223.5,167.5 C 220.735,172.706 217.735,177.706 214.5,182.5C 214.372,180.345 214.872,178.345 216,176.5C 218.364,173.31 220.864,170.31 223.5,167.5 Z"/></g>
<g><path style="opacity:1" fill="#fb8ed0" d="M 279.5,163.5 C 278.327,167.179 276.661,170.512 274.5,173.5C 274.691,169.337 276.357,166.004 279.5,163.5 Z"/></g>
<g><path style="opacity:1" fill="#feaade" d="M 233.5,157.5 C 231.167,160.5 228.5,163.167 225.5,165.5C 227.167,161.833 229.833,159.167 233.5,157.5 Z"/></g>
<g><path style="opacity:1" fill="#feacdb" d="M 239.5,152.5 C 237.909,154.633 235.909,156.299 233.5,157.5C 234.638,154.914 236.638,153.247 239.5,152.5 Z"/></g>
<g><path style="opacity:1" fill="#fdb0df" d="M 253.5,143.5 C 254.167,143.5 254.833,143.5 255.5,143.5C 250.25,146.359 244.917,149.026 239.5,151.5C 243.551,147.806 248.217,145.14 253.5,143.5 Z"/></g>
<g><path style="opacity:1" fill="#fc7fca" d="M 267.5,139.5 C 268.167,139.5 268.5,139.833 268.5,140.5C 263.813,140.551 259.479,141.551 255.5,143.5C 254.833,143.5 254.167,143.5 253.5,143.5C 254.122,141.665 255.456,140.498 257.5,140C 260.817,139.502 264.15,139.335 267.5,139.5 Z"/></g>
<g><path style="opacity:1" fill="#8f8d8e" d="M 114.5,157.5 C 119.183,157.186 123.683,157.852 128,159.5C 141.085,155.208 150.085,159.542 155,172.5C 155.499,177.489 155.666,182.489 155.5,187.5C 159.437,187.207 163.27,187.54 167,188.5C 173.947,216.073 177.78,244.073 178.5,272.5C 145.879,274.379 113.212,275.046 80.5,274.5C 80.3982,245.146 83.3982,216.146 89.5,187.5C 93.5,187.5 97.5,187.5 101.5,187.5C 97.7739,173.647 102.107,163.647 114.5,157.5 Z"/></g>
<g><path style="opacity:1" fill="#fcfcfc" d="M 150.5,191.5 C 155.305,190.513 160.305,190.179 165.5,190.5C 167.503,202.181 169.669,213.848 172,225.5C 174.231,239.457 175.064,253.457 174.5,267.5C 172.343,265.588 170.009,263.921 167.5,262.5C 165.183,265.317 162.683,267.984 160,270.5C 158.787,253.824 157.454,237.157 156,220.5C 154.363,210.66 152.53,200.994 150.5,191.5 Z"/></g>
<g><path style="opacity:1" fill="#fdfdfd" d="M 91.5,190.5 C 94.5,190.5 97.5,190.5 100.5,190.5C 100.5,193.5 100.5,196.5 100.5,199.5C 101.5,199.5 102.5,199.5 103.5,199.5C 103.5,196.5 103.5,193.5 103.5,190.5C 114.5,190.5 125.5,190.5 136.5,190.5C 137.167,202.5 137.833,202.5 138.5,190.5C 141.833,190.5 145.167,190.5 148.5,190.5C 153.466,217.267 156.466,244.267 157.5,271.5C 132.5,271.5 107.5,271.5 82.5,271.5C 83.0425,244.191 86.0425,217.191 91.5,190.5 Z"/></g>
<g><path style="opacity:1" fill="#fafafa" d="M 126.5,162.5 C 130.33,163.485 133.163,165.819 135,169.5C 136.361,175.407 136.861,181.407 136.5,187.5C 130.833,187.5 125.167,187.5 119.5,187.5C 117.669,177.817 120.002,169.483 126.5,162.5 Z"/></g>
<g><path style="opacity:1" fill="#fbfafb" d="M 132.5,159.5 C 141.987,158.82 148.487,162.82 152,171.5C 152.499,176.823 152.666,182.156 152.5,187.5C 147.833,187.5 143.167,187.5 138.5,187.5C 138.666,181.824 138.499,176.157 138,170.5C 136.224,167.059 134.057,163.892 131.5,161C 132.056,160.617 132.389,160.117 132.5,159.5 Z"/></g>
<g><path style="opacity:1" fill="#fcfbfb" d="M 115.5,159.5 C 118.978,159.184 122.312,159.684 125.5,161C 121.872,163.638 119.372,167.138 118,171.5C 117.501,176.823 117.334,182.156 117.5,187.5C 112.833,187.5 108.167,187.5 103.5,187.5C 100.39,174.759 104.39,165.426 115.5,159.5 Z"/></g>
<g><path style="opacity:1" fill="#f370c5" d="M 378.5,223.5 C 382.099,224.953 384.599,227.619 386,231.5C 386.816,232.823 387.983,233.489 389.5,233.5C 387.983,234.735 386.316,234.735 384.5,233.5C 381.986,230.47 379.986,227.137 378.5,223.5 Z"/></g>
<g><path style="opacity:1" fill="#fcb3e3" d="M 299.5,229.5 C 297.787,232.86 296.12,236.193 294.5,239.5C 294.167,240.5 293.5,241.167 292.5,241.5C 293.1,236.549 295.433,232.549 299.5,229.5 Z"/></g>
<g><path style="opacity:1" fill="#f7d8f2" d="M 363.5,223.5 C 363.046,225.741 363.046,227.741 363.5,229.5C 361.745,232.68 359.745,235.68 357.5,238.5C 358.37,234.315 359.703,230.315 361.5,226.5C 361.932,225.29 362.599,224.29 363.5,223.5 Z"/></g>
<g><path style="opacity:1" fill="#f9eff8" d="M 308.5,223.5 C 304.177,229.155 299.51,234.488 294.5,239.5C 296.12,236.193 297.787,232.86 299.5,229.5C 300.167,228.5 300.833,227.5 301.5,226.5C 303.701,225.261 305.868,223.928 308,222.5C 308.399,222.728 308.565,223.062 308.5,223.5 Z"/></g>
<g><path style="opacity:1" fill="#fdd2ed" d="M 451.5,223.5 C 451.917,222.876 452.584,222.543 453.5,222.5C 455.5,223 457.5,223.5 459.5,224C 460.081,224.893 460.415,225.893 460.5,227C 459.956,230.919 458.456,234.419 456,237.5C 454.989,238.337 453.822,238.67 452.5,238.5C 455.033,234.768 457.033,230.768 458.5,226.5C 457.5,226.5 456.5,226.5 455.5,226.5C 455.306,224.088 453.973,223.088 451.5,223.5 Z"/></g>
<g><path style="opacity:1" fill="#fa3bad" d="M 308.5,220.5 C 305.08,221.357 302.746,223.357 301.5,226.5C 300.833,227.5 300.167,228.5 299.5,229.5C 295.433,232.549 293.1,236.549 292.5,241.5C 291.036,243.63 289.036,244.963 286.5,245.5C 288.316,234.187 293.982,225.353 303.5,219C 305.674,218.123 307.341,218.623 308.5,220.5 Z"/></g>
<g><path style="opacity:1" fill="#fa51b9" d="M 313.5,234.5 C 312.833,234.5 312.5,234.833 312.5,235.5C 310.574,236.242 308.741,237.242 307,238.5C 306.011,240.97 304.845,243.303 303.5,245.5C 301.123,248.384 298.456,251.217 295.5,254C 292.05,255.429 288.717,255.595 285.5,254.5C 295.897,246.94 305.23,238.107 313.5,228C 314.332,227.312 314.998,227.479 315.5,228.5C 314.253,230.323 313.586,232.323 313.5,234.5 Z"/></g>
<g><path style="opacity:1" fill="#e4bcea" d="M 313.5,234.5 C 313.784,236.415 313.451,238.081 312.5,239.5C 312.158,238.662 311.492,238.328 310.5,238.5C 311.167,237.5 311.833,236.5 312.5,235.5C 312.5,234.833 312.833,234.5 313.5,234.5 Z"/></g>
<g><path style="opacity:1" fill="#f945b5" d="M 361.5,213.5 C 362.5,213.5 363.5,213.5 364.5,213.5C 364.384,216.86 364.051,220.193 363.5,223.5C 362.599,224.29 361.932,225.29 361.5,226.5C 360.206,227.29 359.039,228.29 358,229.5C 355.532,236.095 353.365,242.761 351.5,249.5C 347.203,261.027 346.037,261.027 348,249.5C 352.405,237.449 356.905,225.449 361.5,213.5 Z"/></g>
<g><path style="opacity:1" fill="#fd80ca" d="M 312.5,235.5 C 311.833,236.5 311.167,237.5 310.5,238.5C 310.5,239.167 310.167,239.5 309.5,239.5C 307.916,241.751 305.916,243.751 303.5,245.5C 304.845,243.303 306.011,240.97 307,238.5C 308.741,237.242 310.574,236.242 312.5,235.5 Z"/></g>
<g><path style="opacity:1" fill="#fdb8e5" d="M 325.5,231.5 C 324.833,235.5 324.167,239.5 323.5,243.5C 322.231,239.268 322.897,235.268 325.5,231.5 Z"/></g>
<g><path style="opacity:1" fill="#fb52b9" d="M 376.5,233.5 C 375.417,233.539 374.417,233.873 373.5,234.5C 371.031,236.948 369.031,239.615 367.5,242.5C 365.182,244.185 364.182,246.519 364.5,249.5C 361.181,255.468 357.848,261.468 354.5,267.5C 352.613,269.789 351.279,272.455 350.5,275.5C 349.872,278.955 347.872,280.122 344.5,279C 343.944,278.617 343.611,278.117 343.5,277.5C 351.098,265.307 357.932,252.64 364,239.5C 366.647,235.686 369.813,232.353 373.5,229.5C 374.984,230.467 375.984,231.8 376.5,233.5 Z"/></g>
<g><path style="opacity:1" fill="#fdbae3" d="M 198.5,227.5 C 197.882,234.817 197.549,242.151 197.5,249.5C 196.835,246.686 196.502,243.686 196.5,240.5C 196.316,235.893 196.983,231.56 198.5,227.5 Z"/></g>
<g><path style="opacity:1" fill="#f959be" d="M 400.5,238.5 C 395.922,241.133 390.922,242.133 385.5,241.5C 384.5,241.167 383.833,240.5 383.5,239.5C 384.695,239.678 385.862,240.011 387,240.5C 392.043,238.978 396.71,236.645 401,233.5C 401.64,235.265 401.473,236.932 400.5,238.5 Z"/></g>
<g><path style="opacity:1" fill="#fcd8f0" d="M 400.5,238.5 C 400.405,240.786 399.738,242.786 398.5,244.5C 398.631,243.624 398.298,242.957 397.5,242.5C 393.892,243.593 390.225,243.76 386.5,243C 385.944,242.617 385.611,242.117 385.5,241.5C 390.922,242.133 395.922,241.133 400.5,238.5 Z"/></g>
<g><path style="opacity:1" fill="#fa6ec5" d="M 361.5,226.5 C 359.703,230.315 358.37,234.315 357.5,238.5C 355.75,242.335 353.75,246.001 351.5,249.5C 353.365,242.761 355.532,236.095 358,229.5C 359.039,228.29 360.206,227.29 361.5,226.5 Z"/></g>
<g><path style="opacity:1" fill="#fa4fb9" d="M 342.5,243.5 C 340.427,244.3 338.76,245.633 337.5,247.5C 334.669,248.079 332.336,249.412 330.5,251.5C 326.618,252.803 322.618,253.47 318.5,253.5C 318.5,253.167 318.5,252.833 318.5,252.5C 329.429,248.421 338.929,242.088 347,233.5C 346.354,237.132 344.854,240.465 342.5,243.5 Z"/></g>
<g><path style="opacity:1" fill="#fdacdf" d="M 367.5,242.5 C 367.296,244.685 366.63,246.685 365.5,248.5C 365.5,249.167 365.167,249.5 364.5,249.5C 364.182,246.519 365.182,244.185 367.5,242.5 Z"/></g>
<g><path style="opacity:1" fill="#fee0f3" d="M 376.5,233.5 C 377.167,233.5 377.5,233.833 377.5,234.5C 373.151,238.85 369.151,243.517 365.5,248.5C 366.63,246.685 367.296,244.685 367.5,242.5C 369.031,239.615 371.031,236.948 373.5,234.5C 374.417,233.873 375.417,233.539 376.5,233.5 Z"/></g>
<g><path style="opacity:1" fill="#ffc9e9" d="M 414.5,231.5 C 412.434,242.356 409.767,253.023 406.5,263.5C 406.506,258.785 407.006,254.118 408,249.5C 409.499,243.161 411.666,237.161 414.5,231.5 Z"/></g>
<g><path style="opacity:1" fill="#fca0d7" d="M 452.5,238.5 C 450.833,241.167 449.167,243.833 447.5,246.5C 445.5,248.5 443.5,250.5 441.5,252.5C 444.216,247.059 447.882,242.393 452.5,238.5 Z"/></g>
<g><path style="opacity:1" fill="#8c8b8b" d="M 105.5,216.5 C 110.609,215.803 115.276,216.803 119.5,219.5C 124.075,216.609 129.075,215.775 134.5,217C 140.22,221.884 142.053,228.05 140,235.5C 135.888,244.276 129.221,250.276 120,253.5C 107.442,249.949 100.276,241.782 98.5,229C 98.9639,223.722 101.297,219.556 105.5,216.5 Z"/></g>
<g><path style="opacity:1" fill="#fdfdfd" d="M 106.5,218.5 C 112.006,217.378 116.34,219.044 119.5,223.5C 123.53,218.368 128.53,217.201 134.5,220C 137.466,222.265 138.799,225.265 138.5,229C 136.781,241.386 129.781,248.386 117.5,250C 110.721,246.888 105.555,242.055 102,235.5C 100.268,228.84 101.768,223.174 106.5,218.5 Z"/></g>
<g><path style="opacity:1" fill="#fda5dd" d="M 337.5,247.5 C 335.664,249.588 333.331,250.921 330.5,251.5C 332.336,249.412 334.669,248.079 337.5,247.5 Z"/></g>
<g><path style="opacity:1" fill="#f951b9" d="M 279.5,249.5 C 276.704,252.797 273.704,255.964 270.5,259C 263.993,262.084 257.993,265.917 252.5,270.5C 246.42,273.417 240.087,275.75 233.5,277.5C 226.013,278.655 218.68,278.655 211.5,277.5C 238.993,275.67 261.826,264.337 280,243.5C 280.49,245.545 280.323,247.545 279.5,249.5 Z"/></g>
<g><path style="opacity:1" fill="#fedff3" d="M 309.5,239.5 C 309.649,240.552 309.483,241.552 309,242.5C 304.833,247.333 300.333,251.833 295.5,256C 291.974,257.337 288.308,257.837 284.5,257.5C 284.5,256.5 284.5,255.5 284.5,254.5C 284.833,254.5 285.167,254.5 285.5,254.5C 288.717,255.595 292.05,255.429 295.5,254C 298.456,251.217 301.123,248.384 303.5,245.5C 305.916,243.751 307.916,241.751 309.5,239.5 Z"/></g>
<g><path style="opacity:1" fill="#feceec" d="M 447.5,246.5 C 445.587,250.262 443.421,253.929 441,257.5C 438.008,259.326 435.508,261.659 433.5,264.5C 435.178,259.803 437.844,255.803 441.5,252.5C 443.5,250.5 445.5,248.5 447.5,246.5 Z"/></g>
<g><path style="opacity:1" fill="#fdcceb" d="M 330.5,251.5 C 327.848,255.314 324.181,256.481 319.5,255C 318.944,254.617 318.611,254.117 318.5,253.5C 322.618,253.47 326.618,252.803 330.5,251.5 Z"/></g>
<g><path style="opacity:1" fill="#fdc4e6" d="M 279.5,249.5 C 280.401,250.29 281.068,251.29 281.5,252.5C 273.828,257.834 266.161,263.167 258.5,268.5C 256.55,269.372 254.55,270.039 252.5,270.5C 257.993,265.917 263.993,262.084 270.5,259C 273.704,255.964 276.704,252.797 279.5,249.5 Z"/></g>
<g><path style="opacity:1" fill="#f4f4f4" d="M 167.5,265.5 C 169.649,266.748 171.649,268.248 173.5,270C 170.137,270.626 166.804,270.959 163.5,271C 165.439,269.568 166.772,267.735 167.5,265.5 Z"/></g>
<g><path style="opacity:1" fill="#fed9f1" d="M 364.5,249.5 C 361.922,257.989 358.256,265.989 353.5,273.5C 353.517,271.435 353.85,269.435 354.5,267.5C 357.848,261.468 361.181,255.468 364.5,249.5 Z"/></g>
<g><path style="opacity:1" fill="#ffa9de" d="M 429.5,269.5 C 428.243,272.427 426.243,274.761 423.5,276.5C 424.757,273.573 426.757,271.239 429.5,269.5 Z"/></g>
<g><path style="opacity:1" fill="#fb4cb7" d="M 455.5,226.5 C 456.5,226.5 457.5,226.5 458.5,226.5C 457.033,230.768 455.033,234.768 452.5,238.5C 447.882,242.393 444.216,247.059 441.5,252.5C 437.844,255.803 435.178,259.803 433.5,264.5C 431.937,265.945 430.604,267.611 429.5,269.5C 426.757,271.239 424.757,273.573 423.5,276.5C 420.365,279.808 417.365,283.308 414.5,287C 412.668,287.748 411.001,288.748 409.5,290C 407.288,290.789 405.288,290.622 403.5,289.5C 408.346,287.168 412.513,283.835 416,279.5C 429.187,261.765 442.354,244.099 455.5,226.5 Z"/></g>
<g><path style="opacity:1" fill="#fd9ed7" d="M 354.5,267.5 C 353.85,269.435 353.517,271.435 353.5,273.5C 352.5,274.167 351.5,274.833 350.5,275.5C 351.279,272.455 352.613,269.789 354.5,267.5 Z"/></g>
<g><path style="opacity:1" fill="#fab7e6" d="M 406.5,263.5 C 406.597,268.03 406.264,272.53 405.5,277C 405.608,278.681 406.275,279.848 407.5,280.5C 406.791,281.404 405.791,281.737 404.5,281.5C 404.105,275.238 404.772,269.238 406.5,263.5 Z"/></g>
<g><path style="opacity:1" fill="#fec7e7" d="M 252.5,270.5 C 246.395,275.381 239.395,278.381 231.5,279.5C 232.167,278.833 232.833,278.167 233.5,277.5C 240.087,275.75 246.42,273.417 252.5,270.5 Z"/></g>
<g><path style="opacity:1" fill="#fa87cf" d="M 207.5,276.5 C 209.099,276.232 210.432,276.566 211.5,277.5C 218.68,278.655 226.013,278.655 233.5,277.5C 232.833,278.167 232.167,278.833 231.5,279.5C 226.167,279.5 220.833,279.5 215.5,279.5C 212.169,279.982 209.503,278.982 207.5,276.5 Z"/></g>
<g><path style="opacity:1" fill="#ffd0ec" d="M 215.5,279.5 C 220.833,279.5 226.167,279.5 231.5,279.5C 226.167,282.167 220.833,282.167 215.5,279.5 Z"/></g>
<g><path style="opacity:1" fill="#fe9ad6" d="M 423.5,276.5 C 420.432,282.471 416.099,287.304 410.5,291C 407.833,291.667 405.167,291.667 402.5,291C 401.944,290.617 401.611,290.117 401.5,289.5C 402.167,289.5 402.833,289.5 403.5,289.5C 405.288,290.622 407.288,290.789 409.5,290C 411.001,288.748 412.668,287.748 414.5,287C 417.365,283.308 420.365,279.808 423.5,276.5 Z"/></g>
</svg>
