<?xml version="1.0" encoding="UTF-8"?>
<svg version="1.1" xmlns="http://www.w3.org/2000/svg" width="194" height="259">
<path d="M0 0 C64.02 0 128.04 0 194 0 C194 85.47 194 170.94 194 259 C129.98 259 65.96 259 0 259 C0 173.53 0 88.06 0 0 Z " fill="#F6F6F7" transform="translate(0,0)"/>
<path d="M0 0 C0.9765625 2.96223958 1.953125 5.92447917 2.9296875 8.88671875 C3.5762189 10.76732285 4.26617712 12.63480733 5.03515625 14.46875 C6.20910617 17.54858622 6.89450805 20.58445513 7.5625 23.8125 C7.81128906 24.97394531 8.06007813 26.13539062 8.31640625 27.33203125 C10.43677326 39.91558557 10.15715635 53.00162979 10.3558979 65.7275486 C10.65721215 84.19512616 11.29990534 102.63391961 12.19140625 121.08203125 C12.24623547 122.21791561 12.30106468 123.35379997 12.35755539 124.52410507 C12.69390539 131.4514836 13.03860983 138.37842798 13.38647461 145.30523682 C13.85725771 154.68547587 14.32122007 164.06603649 14.77802849 173.44696617 C14.93613513 176.66233398 15.0994679 179.87740422 15.26332092 183.09248352 C15.82625446 194.4064199 16.14527009 205.67208945 16 217 C10.62483457 217.02366773 5.24971601 217.04284927 -0.12548828 217.05493164 C-1.95492121 217.05996737 -3.78435009 217.06679627 -5.61376953 217.07543945 C-8.23991898 217.08753824 -10.86601532 217.09323583 -13.4921875 217.09765625 C-14.31306854 217.10281754 -15.13394958 217.10797882 -15.97970581 217.11329651 C-21.77225659 217.11387171 -21.77225659 217.11387171 -24 216 C-23.99723462 215.10136467 -23.99723462 215.10136467 -23.99441338 214.18457508 C-23.94995602 199.50636071 -23.91700962 184.82815035 -23.89637566 170.14988422 C-23.8861282 163.05115124 -23.87219536 155.95246361 -23.84912109 148.85375977 C-23.82898447 142.65577716 -23.81623634 136.45782743 -23.81182301 130.25981301 C-23.80924934 126.98777622 -23.80223862 123.7158536 -23.78853989 120.44384193 C-23.73332947 106.69417321 -23.97873301 93.17548148 -25.55715942 79.50822449 C-26.31142334 72.6872017 -26.1744443 65.85178426 -26 59 C-26.66 59 -27.32 59 -28 59 C-29.54140985 79.92724771 -30.28070944 100.69498411 -30.1953125 121.6875 C-30.19042397 124.46671438 -30.18862816 127.24592866 -30.18673706 130.02514648 C-30.18062796 136.4910704 -30.16436768 142.95692311 -30.14403808 149.42281628 C-30.12134054 156.80913921 -30.11060243 164.19546635 -30.10064721 171.58181572 C-30.07998604 186.72125613 -30.04345023 201.86060459 -30 217 C-42.21 217 -54.42 217 -67 217 C-67.04700135 211.19533377 -67.08646663 205.3913783 -67.10986328 199.58666992 C-67.11965882 197.62961543 -67.13308954 195.67257433 -67.15087891 193.71557617 C-67.25367909 182.07799069 -66.96892965 170.5444308 -66.16309738 158.93242645 C-65.17736593 144.68664018 -64.77043996 130.48631255 -64.65625 116.20703125 C-64.64813168 115.21684809 -64.64001335 114.22666492 -64.63164902 113.20647621 C-64.56788541 105.03718148 -64.52546375 96.86779835 -64.48431396 88.69836426 C-64.45265908 82.55057662 -64.41323643 76.40292796 -64.36405945 70.25525475 C-64.3445368 67.44527896 -64.33579666 64.63542167 -64.32775879 61.82539368 C-64.27392438 52.60873781 -63.91605487 43.47492633 -63.10351562 34.29174805 C-63.0263607 33.40853536 -62.94920578 32.52532267 -62.86971283 31.61534595 C-62.08773114 23.52422263 -61.33762852 15.97792414 -57 9 C-56.28076792 5.30476048 -56.28076792 5.30476048 -56 2 C-51.85948341 0.85439954 -47.80690289 0.77377437 -43.53515625 0.68359375 C-42.70600204 0.66281265 -41.87684784 0.64203156 -41.02256775 0.62062073 C-39.26501423 0.57741529 -37.50740657 0.53636622 -35.74975586 0.49731445 C-33.10321899 0.43840635 -30.45690244 0.37315185 -27.81054688 0.30664062 C-18.53840487 0.0809223 -9.2753106 -0.06671362 0 0 Z " fill="#55718C" transform="translate(123,21)"/>
<path d="M0 0 C0.33 0 0.66 0 1 0 C1 3.3 1 6.6 1 10 C0.01 10.495 0.01 10.495 -1 11 C-2.13350534 13.01669827 -2.13350534 13.01669827 -3 15 C-2.67 15.33 -2.34 15.66 -2 16 C-1.67 15.34 -1.34 14.68 -1 14 C-0.34 14 0.32 14 1 14 C1 13.34 1 12.68 1 12 C1.66 12 2.32 12 3 12 C3 13.32 3 14.64 3 16 C5.64 16 8.28 16 11 16 C10.67 16.99 10.34 17.98 10 19 C9.01 19 8.02 19 7 19 C6.67 23.95 6.34 28.9 6 34 C6.33 34 6.66 34 7 34 C7 35.98 7 37.96 7 40 C7.99 39.505 7.99 39.505 9 39 C10.74076947 32.90076262 9.92004922 28.48969254 7 23 C10.01148016 19.52521521 12.50735835 18.02956371 17 17 C19.375 17.375 19.375 17.375 21 18 C20.34 18 19.68 18 19 18 C19.66 18.99 20.32 19.98 21 21 C20.9765625 23.69921875 20.9765625 23.69921875 20.625 26.6875 C20.51414063 27.68136719 20.40328125 28.67523438 20.2890625 29.69921875 C20.14597656 30.83810547 20.14597656 30.83810547 20 32 C20.33 32 20.66 32 21 32 C21.33 29.03 21.66 26.06 22 23 C23.32 22.67 24.64 22.34 26 22 C26 24.97 26 27.94 26 31 C27.32 30.67 28.64 30.34 30 30 C30.01687363 30.83674255 30.03374725 31.67348511 30.0511322 32.5355835 C30.48087714 52.77258639 31.21592526 72.98501476 32.19140625 93.203125 C32.24614483 94.33933792 32.30088341 95.47555084 32.35728073 96.64619446 C32.81173455 106.04839162 33.27590586 115.45010509 33.74047852 124.85180664 C34.09007053 131.93319993 34.43625529 139.01474437 34.77802849 146.09651947 C34.93647107 149.3517315 35.09975857 152.60667517 35.26332092 155.8616333 C35.82190896 167.25219938 36.14681198 178.59573721 36 190 C30.62483457 190.02366773 25.24971601 190.04284927 19.87451172 190.05493164 C18.04507879 190.05996737 16.21564991 190.06679627 14.38623047 190.07543945 C11.76008102 190.08753824 9.13398468 190.09323583 6.5078125 190.09765625 C5.68693146 190.10281754 4.86605042 190.10797882 4.02029419 190.11329651 C-1.77225659 190.11387171 -1.77225659 190.11387171 -4 189 C-3.99815641 188.40090978 -3.99631283 187.80181955 -3.99441338 187.18457508 C-3.94995602 172.50636071 -3.91700962 157.82815035 -3.89637566 143.14988422 C-3.8861282 136.05115124 -3.87219536 128.95246361 -3.84912109 121.85375977 C-3.82898447 115.65577716 -3.81623634 109.45782743 -3.81182301 103.25981301 C-3.80924934 99.98777622 -3.80223862 96.7158536 -3.78853989 93.44384193 C-3.73332947 79.69417321 -3.97873301 66.17548148 -5.55715942 52.50822449 C-6.31142334 45.6872017 -6.1744443 38.85178426 -6 32 C-6.66 32 -7.32 32 -8 32 C-8.08302368 33.3912207 -8.08302368 33.3912207 -8.16772461 34.81054688 C-8.37628276 38.28463518 -8.58716044 41.75856715 -8.79956055 45.23242188 C-8.89064553 46.72976229 -8.98083259 48.22715762 -9.07006836 49.72460938 C-9.19923881 51.88947727 -9.33174542 54.05412045 -9.46484375 56.21875 C-9.543396 57.51748047 -9.62194824 58.81621094 -9.70288086 60.15429688 C-9.90366058 62.75304968 -10.17600075 65.34710839 -10.51367188 67.93164062 C-11.07661104 72.24505273 -11.22184262 76.5292327 -11.31640625 80.875 C-11.33718735 81.68493408 -11.35796844 82.49486816 -11.37937927 83.3293457 C-11.44413656 85.88615424 -11.50341194 88.44305481 -11.5625 91 C-11.60575566 92.74610281 -11.64937204 94.49219672 -11.69335938 96.23828125 C-11.79974083 100.49209609 -11.90121018 104.74600236 -12 109 C-12.66 109 -13.32 109 -14 109 C-15.17426264 106.65147472 -15.11508173 105.26225935 -15.09765625 102.6484375 C-15.09443359 101.79765625 -15.09121094 100.946875 -15.08789062 100.0703125 C-15.07951172 99.18085938 -15.07113281 98.29140625 -15.0625 97.375 C-15.05798828 96.4778125 -15.05347656 95.580625 -15.04882812 94.65625 C-15.03702591 92.43743352 -15.02056155 90.21874982 -15 88 C-15.99 91.465 -15.99 91.465 -17 95 C-17.33 95 -17.66 95 -18 95 C-17.85975781 92.52039864 -17.7130815 90.04147598 -17.5625 87.5625 C-17.52318359 86.85544922 -17.48386719 86.14839844 -17.44335938 85.41992188 C-17.11328125 80.11328125 -17.11328125 80.11328125 -16 79 C-15.97869855 76.83333789 -16.01016691 74.66613474 -16.0625 72.5 C-16.17665322 65.74014424 -15.56582682 59.22770999 -14.53540039 52.54882812 C-13.85349304 48.02393729 -13.85349304 48.02393729 -16 44 C-15.34 44 -14.68 44 -14 44 C-14.0721875 43.34773438 -14.144375 42.69546875 -14.21875 42.0234375 C-14.71756166 37.3262944 -15.12451246 32.73147344 -15 28 C-15.99 27.67 -16.98 27.34 -18 27 C-16.08400609 24.55178556 -15.02756971 24.00675177 -11.9375 23.25 C-9 23 -9 23 -7 24 C-7.33 22.35 -7.66 20.7 -8 19 C-7.67 19 -7.34 19 -7 19 C-6.896875 17.783125 -6.79375 16.56625 -6.6875 15.3125 C-6.22500324 11.58609755 -5.30394352 9.04120544 -3 6 C-2.34 5.67 -1.68 5.34 -1 5 C-0.34444881 2.47266765 -0.34444881 2.47266765 0 0 Z " fill="#516E88" transform="translate(103,48)"/>
<path d="M0 0 C0.9765625 2.96223958 1.953125 5.92447917 2.9296875 8.88671875 C3.57978505 10.77769594 4.27119773 12.65599149 5.03515625 14.50390625 C8.83197659 24.32644955 9.35478875 34.90606001 9.8125 45.3125 C9.89189819 46.98650879 9.89189819 46.98650879 9.97290039 48.69433594 C10.00891357 49.74008789 10.04492676 50.78583984 10.08203125 51.86328125 C10.11530518 52.80469971 10.1485791 53.74611816 10.18286133 54.71606445 C10 57 10 57 8 59 C7.01 59 6.02 59 5 59 C4.875 51.25 4.875 51.25 6 49 C4.68 49.33 3.36 49.66 2 50 C2 52.97 2 55.94 2 59 C1.01 59 0.02 59 -1 59 C-0.67 56.03 -0.34 53.06 0 50 C-0.33 50 -0.66 50 -1 50 C-1 48.35 -1 46.7 -1 45 C-6.49090959 45.94768395 -6.49090959 45.94768395 -11.0625 48.8125 C-12.27373992 51.63872647 -12.00890907 53.12848957 -11 56 C-10.01 56.495 -10.01 56.495 -9 57 C-9.495 61.95 -9.495 61.95 -10 67 C-10.99 67 -11.98 67 -13 67 C-15.43465916 63.27804979 -15.06579791 60.27197369 -14.6875 55.9375 C-14.58824219 54.70902344 -14.48898438 53.48054688 -14.38671875 52.21484375 C-14 49 -14 49 -13 46 C-12.01 45.67 -11.02 45.34 -10 45 C-9.505 44.01 -9.505 44.01 -9 43 C-9.99 43.495 -9.99 43.495 -11 44 C-13.3329866 44.04022391 -15.66706666 44.04320247 -18 44 C-17.67 42.35 -17.34 40.7 -17 39 C-17.66 39 -18.32 39 -19 39 C-19 39.66 -19 40.32 -19 41 C-19.66 41 -20.32 41 -21 41 C-21.66 42.65 -22.32 44.3 -23 46 C-23.66 44.68 -24.32 43.36 -25 42 C-24.34 41.01 -23.68 40.02 -23 39 C-22.67 39.33 -22.34 39.66 -22 40 C-21.505 39.01 -21.505 39.01 -21 38 C-21.99 37.505 -21.99 37.505 -23 37 C-21.68 37 -20.36 37 -19 37 C-19.33 35.35 -19.66 33.7 -20 32 C-20.99 32.33 -21.98 32.66 -23 33 C-23.144375 33.639375 -23.28875 34.27875 -23.4375 34.9375 C-23.7159375 35.9584375 -23.7159375 35.9584375 -24 37 C-25.32 37.66 -26.64 38.32 -28 39 C-28 30.42 -28 21.84 -28 13 C-28.99 13.33 -29.98 13.66 -31 14 C-32.16552619 9.80410573 -32.08954032 9.17908064 -30 5 C-33.3 4.67 -36.6 4.34 -40 4 C-40.33 6.97 -40.66 9.94 -41 13 C-43 13 -45 13 -47 13 C-46.67 13.99 -46.34 14.98 -46 16 C-48.97 16.33 -51.94 16.66 -55 17 C-55 17.99 -55 18.98 -55 20 C-53.02 19.34 -51.04 18.68 -49 18 C-49.5625 19.9375 -49.5625 19.9375 -51 22 C-54.625 22.75 -54.625 22.75 -58 23 C-58 23.66 -58 24.32 -58 25 C-57.01 25.33 -56.02 25.66 -55 26 C-55 27.32 -55 28.64 -55 30 C-54.01 29.67 -53.02 29.34 -52 29 C-49.3125 29.4375 -49.3125 29.4375 -47 30 C-47 30.99 -47 31.98 -47 33 C-48.485 33.495 -48.485 33.495 -50 34 C-51.21869929 36.50447516 -51.21869929 36.50447516 -52 39 C-52.495 37.515 -52.495 37.515 -53 36 C-52.67 35.34 -52.34 34.68 -52 34 C-52.99 34.495 -52.99 34.495 -54 35 C-54.65213292 37.02463255 -54.65213292 37.02463255 -55 39 C-55.99 39 -56.98 39 -58 39 C-58 39.66 -58 40.32 -58 41 C-54.37114676 41.15149298 -54.37114676 41.15149298 -51 40 C-50.22686955 45.9114744 -49.85180723 51.1314592 -51 57 C-51.66 57 -52.32 57 -53 57 C-53 57.66 -53 58.32 -53 59 C-54.485 59.495 -54.485 59.495 -56 60 C-56.04898438 60.56847656 -56.09796875 61.13695312 -56.1484375 61.72265625 C-56.63076235 66.7039077 -57.57408888 71.18754996 -59 76 C-60.12265405 82.30349456 -60.32859886 88.60989767 -60.5625 95 C-60.60568359 96.10762695 -60.64886719 97.21525391 -60.69335938 98.35644531 C-60.96026393 105.61582543 -61.0726416 112.84551374 -60.9375 120.109375 C-61 123 -61 123 -61.49681091 125.19767761 C-62.12920185 128.71954111 -62.13153849 132.16361212 -62.11352539 135.7277832 C-62.11367142 136.48929184 -62.11381744 137.25080048 -62.1139679 138.03538513 C-62.11327387 140.54054662 -62.1055054 143.04563282 -62.09765625 145.55078125 C-62.09579026 147.29241393 -62.09436721 149.03404714 -62.09336853 150.77568054 C-62.08955762 155.35085509 -62.07973953 159.9259977 -62.06866455 164.50115967 C-62.05841975 169.17329476 -62.05386434 173.84543503 -62.04882812 178.51757812 C-62.03811596 187.67839942 -62.02105668 196.83919705 -62 206 C-62.33 206 -62.66 206 -63 206 C-63.33 203.36 -63.66 200.72 -64 198 C-64.33 200.31 -64.66 202.62 -65 205 C-65.33 205 -65.66 205 -66 205 C-66.20188427 200.90526039 -66.37835923 196.81020747 -66.53710938 192.71362305 C-66.6199732 190.68553089 -66.7196029 188.65814371 -66.8203125 186.63085938 C-67.19965687 177.47681409 -66.83110847 168.46883873 -66.19628525 159.33068085 C-65.19898139 144.95111702 -64.76932035 130.6207059 -64.65625 116.20703125 C-64.64414049 114.72257224 -64.64414049 114.72257224 -64.63178635 113.20812416 C-64.56798096 105.03827955 -64.52546653 96.86834855 -64.48431396 88.69836426 C-64.45265908 82.55057662 -64.41323643 76.40292796 -64.36405945 70.25525475 C-64.3445368 67.44527896 -64.33579666 64.63542167 -64.32775879 61.82539368 C-64.27392438 52.60873781 -63.91605487 43.47492633 -63.10351562 34.29174805 C-63.0263607 33.40853536 -62.94920578 32.52532267 -62.86971283 31.61534595 C-62.08773114 23.52422263 -61.33762852 15.97792414 -57 9 C-56.28076792 5.30476048 -56.28076792 5.30476048 -56 2 C-51.85948341 0.85439954 -47.80690289 0.77377437 -43.53515625 0.68359375 C-42.70600204 0.66281265 -41.87684784 0.64203156 -41.02256775 0.62062073 C-39.26501423 0.57741529 -37.50740657 0.53636622 -35.74975586 0.49731445 C-33.10321899 0.43840635 -30.45690244 0.37315185 -27.81054688 0.30664062 C-18.53840487 0.0809223 -9.2753106 -0.06671362 0 0 Z " fill="#506F8E" transform="translate(123,21)"/>
<path d="M0 0 C0 0.66 0 1.32 0 2 C0.99 2 1.98 2 3 2 C3 1.34 3 0.68 3 0 C5.31 0 7.62 0 10 0 C9.34 0.66 8.68 1.32 8 2 C8.2475 2.928125 8.2475 2.928125 8.5 3.875 C9.14106968 6.59954614 8.41793887 7.66457128 7 10 C9.64 10.33 12.28 10.66 15 11 C14.67 11.66 14.34 12.32 14 13 C12.02 13 10.04 13 8 13 C8 20.59 8 28.18 8 36 C7.01 36.495 7.01 36.495 6 37 C6 28.42 6 19.84 6 11 C5.01 11.33 4.02 11.66 3 12 C1.83447381 7.80410573 1.91045968 7.17908064 4 3 C0.7 2.67 -2.6 2.34 -6 2 C-6.33 4.97 -6.66 7.94 -7 11 C-9 11 -11 11 -13 11 C-12.67 11.99 -12.34 12.98 -12 14 C-16.455 14.495 -16.455 14.495 -21 15 C-21 15.99 -21 16.98 -21 18 C-19.02 17.34 -17.04 16.68 -15 16 C-15.5625 17.9375 -15.5625 17.9375 -17 20 C-20.625 20.75 -20.625 20.75 -24 21 C-24 21.66 -24 22.32 -24 23 C-23.01 23.33 -22.02 23.66 -21 24 C-21 25.32 -21 26.64 -21 28 C-20.01 27.67 -19.02 27.34 -18 27 C-15.3125 27.4375 -15.3125 27.4375 -13 28 C-13 28.99 -13 29.98 -13 31 C-14.485 31.495 -14.485 31.495 -16 32 C-17.21869929 34.50447516 -17.21869929 34.50447516 -18 37 C-18.495 35.515 -18.495 35.515 -19 34 C-18.67 33.34 -18.34 32.68 -18 32 C-18.99 32.495 -18.99 32.495 -20 33 C-20.65213292 35.02463255 -20.65213292 35.02463255 -21 37 C-21.99 37 -22.98 37 -24 37 C-24 37.66 -24 38.32 -24 39 C-20.37114676 39.15149298 -20.37114676 39.15149298 -17 38 C-16.22686955 43.9114744 -15.85180723 49.1314592 -17 55 C-17.66 55 -18.32 55 -19 55 C-19 55.66 -19 56.32 -19 57 C-20.485 57.495 -20.485 57.495 -22 58 C-22.04898438 58.56847656 -22.09796875 59.13695312 -22.1484375 59.72265625 C-22.63076235 64.7039077 -23.57408888 69.18754996 -25 74 C-26.12265405 80.30349456 -26.32859886 86.60989767 -26.5625 93 C-26.60568359 94.10762695 -26.64886719 95.21525391 -26.69335938 96.35644531 C-26.96026393 103.61582543 -27.0726416 110.84551374 -26.9375 118.109375 C-27 121 -27 121 -27.49681091 123.19767761 C-28.12920185 126.71954111 -28.13153849 130.16361212 -28.11352539 133.7277832 C-28.11367142 134.48929184 -28.11381744 135.25080048 -28.1139679 136.03538513 C-28.11327387 138.54054662 -28.1055054 141.04563282 -28.09765625 143.55078125 C-28.09579026 145.29241393 -28.09436721 147.03404714 -28.09336853 148.77568054 C-28.08955762 153.35085509 -28.07973953 157.9259977 -28.06866455 162.50115967 C-28.05841975 167.17329476 -28.05386434 171.84543503 -28.04882812 176.51757812 C-28.03811596 185.67839942 -28.02105668 194.83919705 -28 204 C-28.33 204 -28.66 204 -29 204 C-29.33 201.36 -29.66 198.72 -30 196 C-30.33 198.31 -30.66 200.62 -31 203 C-31.33 203 -31.66 203 -32 203 C-32.20188427 198.90526039 -32.37835923 194.81020747 -32.53710938 190.71362305 C-32.6199732 188.68553089 -32.7196029 186.65814371 -32.8203125 184.63085938 C-33.19965687 175.47681409 -32.83110847 166.46883873 -32.19628525 157.33068085 C-31.19898139 142.95111702 -30.76932035 128.6207059 -30.65625 114.20703125 C-30.64414049 112.72257224 -30.64414049 112.72257224 -30.63178635 111.20812416 C-30.56798096 103.03827955 -30.52546653 94.86834855 -30.48431396 86.69836426 C-30.45265908 80.55057662 -30.41323643 74.40292796 -30.36405945 68.25525475 C-30.3445368 65.44527896 -30.33579666 62.63542167 -30.32775879 59.82539368 C-30.27392438 50.60873781 -29.91605487 41.47492633 -29.10351562 32.29174805 C-29.0263607 31.40853536 -28.94920578 30.52532267 -28.86971283 29.61534595 C-28.08773114 21.52422263 -27.33762852 13.97792414 -23 7 C-22.28076792 3.30476048 -22.28076792 3.30476048 -22 0 C-14.79614524 -2.03974314 -7.31745462 -0.92920059 0 0 Z " fill="#64819E" transform="translate(89,23)"/>
<path d="M0 0 C0.33 0 0.66 0 1 0 C1 3.3 1 6.6 1 10 C0.01 10.495 0.01 10.495 -1 11 C-2.13350534 13.01669827 -2.13350534 13.01669827 -3 15 C-2.67 15.33 -2.34 15.66 -2 16 C-1.67 15.34 -1.34 14.68 -1 14 C-0.34 14 0.32 14 1 14 C1 13.34 1 12.68 1 12 C1.66 12 2.32 12 3 12 C3 13.32 3 14.64 3 16 C5.64 16 8.28 16 11 16 C10.67 16.99 10.34 17.98 10 19 C9.01 19 8.02 19 7 19 C7 19.99 7 20.98 7 22 C6.34 22 5.68 22 5 22 C4.34 24.64 3.68 27.28 3 30 C1.68 29.67 0.36 29.34 -1 29 C-1.0825 29.78375 -1.165 30.5675 -1.25 31.375 C-2 34 -2 34 -4.0625 35.3125 C-4.701875 35.539375 -5.34125 35.76625 -6 36 C-6 34.68 -6 33.36 -6 32 C-6.66 32 -7.32 32 -8 32 C-8.08302368 33.3912207 -8.08302368 33.3912207 -8.16772461 34.81054688 C-8.37628276 38.28463518 -8.58716044 41.75856715 -8.79956055 45.23242188 C-8.89064553 46.72976229 -8.98083259 48.22715762 -9.07006836 49.72460938 C-9.19923881 51.88947727 -9.33174542 54.05412045 -9.46484375 56.21875 C-9.543396 57.51748047 -9.62194824 58.81621094 -9.70288086 60.15429688 C-9.90366058 62.75304968 -10.17600075 65.34710839 -10.51367188 67.93164062 C-11.07661104 72.24505273 -11.22184262 76.5292327 -11.31640625 80.875 C-11.33718735 81.68493408 -11.35796844 82.49486816 -11.37937927 83.3293457 C-11.44413656 85.88615424 -11.50341194 88.44305481 -11.5625 91 C-11.60575566 92.74610281 -11.64937204 94.49219672 -11.69335938 96.23828125 C-11.79974083 100.49209609 -11.90121018 104.74600236 -12 109 C-12.66 109 -13.32 109 -14 109 C-15.17426264 106.65147472 -15.11508173 105.26225935 -15.09765625 102.6484375 C-15.09443359 101.79765625 -15.09121094 100.946875 -15.08789062 100.0703125 C-15.07951172 99.18085938 -15.07113281 98.29140625 -15.0625 97.375 C-15.05798828 96.4778125 -15.05347656 95.580625 -15.04882812 94.65625 C-15.03702591 92.43743352 -15.02056155 90.21874982 -15 88 C-15.99 91.465 -15.99 91.465 -17 95 C-17.33 95 -17.66 95 -18 95 C-17.85975781 92.52039864 -17.7130815 90.04147598 -17.5625 87.5625 C-17.52318359 86.85544922 -17.48386719 86.14839844 -17.44335938 85.41992188 C-17.11328125 80.11328125 -17.11328125 80.11328125 -16 79 C-15.97869855 76.83333789 -16.01016691 74.66613474 -16.0625 72.5 C-16.17665322 65.74014424 -15.56582682 59.22770999 -14.53540039 52.54882812 C-13.85349304 48.02393729 -13.85349304 48.02393729 -16 44 C-15.34 44 -14.68 44 -14 44 C-14.0721875 43.34773438 -14.144375 42.69546875 -14.21875 42.0234375 C-14.71756166 37.3262944 -15.12451246 32.73147344 -15 28 C-15.99 27.67 -16.98 27.34 -18 27 C-16.08400609 24.55178556 -15.02756971 24.00675177 -11.9375 23.25 C-9 23 -9 23 -7 24 C-7.33 22.35 -7.66 20.7 -8 19 C-7.67 19 -7.34 19 -7 19 C-6.896875 17.783125 -6.79375 16.56625 -6.6875 15.3125 C-6.22500324 11.58609755 -5.30394352 9.04120544 -3 6 C-2.34 5.67 -1.68 5.34 -1 5 C-0.34444881 2.47266765 -0.34444881 2.47266765 0 0 Z " fill="#3C5E7E" transform="translate(103,48)"/>
<path d="M0 0 C0.33 0 0.66 0 1 0 C1.09706112 6.11485027 0.77040851 11.93303301 0 18 C-0.66 16.68 -1.32 15.36 -2 14 C-2.66 14 -3.32 14 -4 14 C-3.855625 14.60328125 -3.71125 15.2065625 -3.5625 15.828125 C-3.376875 16.62734375 -3.19125 17.4265625 -3 18.25 C-2.814375 19.03890625 -2.62875 19.8278125 -2.4375 20.640625 C-2 23 -2 23 -2 27 C-2.66 27 -3.32 27 -4 27 C-3.82597656 27.53625 -3.65195313 28.0725 -3.47265625 28.625 C-2.88741495 31.5657166 -3.15190545 34.01007184 -3.4375 37 C-4.38893423 49.30765567 -4.08393298 61.664435 -4 74 C-3.34 74 -2.68 74 -2 74 C-2.165 74.845625 -2.33 75.69125 -2.5 76.5625 C-3.0899624 80.03954597 -3.0899624 80.03954597 -3 83.75 C-3 87 -3 87 -4 89 C-3.34 89.33 -2.68 89.66 -2 90 C-2.33 90.61875 -2.66 91.2375 -3 91.875 C-4.14193235 93.91018344 -4.14193235 93.91018344 -4 96 C-4.66 96 -5.32 96 -6 96 C-6 96.66 -6 97.32 -6 98 C-5.34 98.33 -4.68 98.66 -4 99 C-4.33 99.99 -4.66 100.98 -5 102 C-7.0625 102.6875 -7.0625 102.6875 -9 103 C-8.99555878 102.34506058 -8.99111755 101.69012115 -8.98654175 101.01533508 C-8.94166808 94.08617375 -8.91187356 87.15705483 -8.89013672 80.2277832 C-8.88019086 77.65517495 -8.86662942 75.08257766 -8.84912109 72.51000977 C-8.7501319 57.57137659 -9.06002409 42.91368536 -10.78390503 28.0688324 C-11.82676535 18.08478135 -11.82676535 18.08478135 -11 14 C-9.0390625 11.87890625 -9.0390625 11.87890625 -7 10 C-6.67 9.01 -6.34 8.02 -6 7 C-5.01 7 -4.02 7 -3 7 C-2.01 4.69 -1.02 2.38 0 0 Z " fill="#506F8E" transform="translate(108,70)"/>
<path d="M0 0 C0.33 0 0.66 0 1 0 C1.02316338 12.82163962 1.04093552 25.64327426 1.05181217 38.46493053 C1.05703223 44.41844102 1.06411402 50.3719372 1.07543945 56.32543945 C1.08629941 62.07015944 1.09228345 67.81486565 1.09487724 73.55959511 C1.09672587 75.75205006 1.10033573 77.94450426 1.10573006 80.13695335 C1.11298167 83.20614632 1.11398919 86.27528228 1.11352539 89.34448242 C1.11712067 90.25222916 1.12071594 91.15997589 1.12442017 92.0952301 C1.11763822 96.23877751 0.85361657 99.93761042 0 104 C-0.08728014 106.58561186 -0.12658892 109.14296062 -0.11352539 111.7277832 C-0.11367142 112.48929184 -0.11381744 113.25080048 -0.1139679 114.03538513 C-0.11327387 116.54054662 -0.1055054 119.04563282 -0.09765625 121.55078125 C-0.09579026 123.29241393 -0.09436721 125.03404714 -0.09336853 126.77568054 C-0.08955762 131.35085509 -0.07973953 135.9259977 -0.06866455 140.50115967 C-0.05841975 145.17329476 -0.05386434 149.84543503 -0.04882812 154.51757812 C-0.03811596 163.67839942 -0.02105668 172.83919705 0 182 C-0.33 182 -0.66 182 -1 182 C-1.33 179.36 -1.66 176.72 -2 174 C-2.33 176.31 -2.66 178.62 -3 181 C-3.33 181 -3.66 181 -4 181 C-4.20188427 176.90526039 -4.37835923 172.81020747 -4.53710938 168.71362305 C-4.6199732 166.68553089 -4.7196029 164.65814371 -4.8203125 162.63085938 C-5.19965687 153.47681409 -4.83110847 144.46883873 -4.19628525 135.33068085 C-3.19898139 120.95111702 -2.76932035 106.6207059 -2.65625 92.20703125 C-2.64414049 90.72257224 -2.64414049 90.72257224 -2.63178635 89.20812416 C-2.56798096 81.03827955 -2.52546653 72.86834855 -2.48431396 64.69836426 C-2.45265908 58.55057662 -2.41323643 52.40292796 -2.36405945 46.25525475 C-2.3445368 43.44527896 -2.33579666 40.63542167 -2.32775879 37.82539368 C-2.25138394 25.13420547 -1.33724117 12.61890706 0 0 Z " fill="#99ABBB" transform="translate(61,45)"/>
<path d="M0 0 C9.24 0 18.48 0 28 0 C27.34 0.66 26.68 1.32 26 2 C26.33 2.7425 26.66 3.485 27 4.25 C28 7 28 7 28 11 C28.78375 11.061875 29.5675 11.12375 30.375 11.1875 C31.24125 11.455625 32.1075 11.72375 33 12 C34.125 14.5 34.125 14.5 35 17 C35.99 17.33 36.98 17.66 38 18 C38 18.66 38 19.32 38 20 C38.66 20 39.32 20 40 20 C40 20.66 40 21.32 40 22 C38.35 21.67 36.7 21.34 35 21 C35 20.34 35 19.68 35 19 C33.02 18.67 31.04 18.34 29 18 C28.54625 18.825 28.0925 19.65 27.625 20.5 C27.08875 21.325 26.5525 22.15 26 23 C25.34 23 24.68 23 24 23 C24 23.66 24 24.32 24 25 C23.34 25 22.68 25 22 25 C21.896875 25.53625 21.79375 26.0725 21.6875 26.625 C20.81907303 29.62502044 19.44379704 32.2379535 18 35 C17.34 34.67 16.68 34.34 16 34 C16.33 27.4 16.66 20.8 17 14 C17.99 13.67 18.98 13.34 20 13 C18.35 12.34 16.7 11.68 15 11 C15.66 10.67 16.32 10.34 17 10 C17.20970559 5.85906302 17.20970559 5.85906302 16 2 C13.97536745 1.34786708 13.97536745 1.34786708 12 1 C12 1.66 12 2.32 12 3 C11.01 3 10.02 3 9 3 C9 2.34 9 1.68 9 1 C6.03 1 3.06 1 0 1 C0 0.67 0 0.34 0 0 Z " fill="#486482" transform="translate(80,22)"/>
<path d="M0 0 C0.33 0.99 0.66 1.98 1 3 C0.01 3 -0.98 3 -2 3 C-2 2.34 -2 1.68 -2 1 C-1.34 0.67 -0.68 0.34 0 0 Z M-6.4375 1.9375 C-5.303125 1.958125 -4.16875 1.97875 -3 2 C-2.67 2.66 -2.34 3.32 -2 4 C-2.9375 6.625 -2.9375 6.625 -4 9 C-4.33 8.01 -4.66 7.02 -5 6 C-4.67 5.34 -4.34 4.68 -4 4 C-4.99 4.495 -4.99 4.495 -6 5 C-6.65213292 7.02463255 -6.65213292 7.02463255 -7 9 C-7.99 9 -8.98 9 -10 9 C-10 9.66 -10 10.32 -10 11 C-6.37114676 11.15149298 -6.37114676 11.15149298 -3 10 C-2.22686955 15.9114744 -1.85180723 21.1314592 -3 27 C-3.66 27 -4.32 27 -5 27 C-5 27.66 -5 28.32 -5 29 C-5.99 29.33 -6.98 29.66 -8 30 C-8.04898438 30.56847656 -8.09796875 31.13695313 -8.1484375 31.72265625 C-8.63076235 36.7039077 -9.57408888 41.18754996 -11 46 C-11.36950465 48.32787927 -11.71352467 50.66045145 -12 53 C-12.33 53 -12.66 53 -13 53 C-13.04980918 48.03785631 -13.08591147 43.07586139 -13.10986328 38.11352539 C-13.11985897 36.42892925 -13.13346004 34.74435019 -13.15087891 33.05981445 C-13.17541276 30.62446859 -13.18654758 28.18935408 -13.1953125 25.75390625 C-13.20563507 25.01290176 -13.21595764 24.27189728 -13.22659302 23.50843811 C-13.22758421 18.78371382 -12.59954356 14.53514049 -11.43673706 9.95396423 C-10.91273276 7.60956585 -10.92520861 5.39332437 -11 3 C-10 2 -10 2 -6.4375 1.9375 Z " fill="#607D99" transform="translate(75,51)"/>
<path d="M0 0 C3.3 0.33 6.6 0.66 10 1 C10 3.66666667 10 6.33333333 10 9 C10.66 9 11.32 9 12 9 C12 10.98 12 12.96 12 15 C11.01 15.33 10.02 15.66 9 16 C8.91995518 19.5219721 8.95994298 22.61981469 10 26 C8.68 26.33 7.36 26.66 6 27 C6.33 25.68 6.66 24.36 7 23 C4.03 23 1.06 23 -2 23 C-2 23.66 -2 24.32 -2 25 C-2.66 25 -3.32 25 -4 25 C-4 24.34 -4 23.68 -4 23 C-4.66 23 -5.32 23 -6 23 C-6.33 21.68 -6.66 20.36 -7 19 C-6.34 19 -5.68 19 -5 19 C-5 19.66 -5 20.32 -5 21 C-4.34 21 -3.68 21 -3 21 C-3.20625 20.38125 -3.4125 19.7625 -3.625 19.125 C-3.810625 18.073125 -3.810625 18.073125 -4 17 C-3.34 16.34 -2.68 15.68 -2 15 C-2 16.32 -2 17.64 -2 19 C0.22713126 17.19519984 0.22713126 17.19519984 0.23046875 14.6875 C0.21628906 13.800625 0.20210938 12.91375 0.1875 12 C0.18105469 11.113125 0.17460938 10.22625 0.16796875 9.3125 C0.14581927 6.97393655 0.14581927 6.97393655 -1 5 C-0.72057545 3.32345271 -0.39171753 1.65391846 0 0 Z M-9 21 C-8.34 21.33 -7.68 21.66 -7 22 C-8 23 -8 23 -10.5625 23.0625 C-11.7690625 23.0315625 -11.7690625 23.0315625 -13 23 C-11.125 21.9375 -11.125 21.9375 -9 21 Z " fill="#557596" transform="translate(83,25)"/>
<path d="M0 0 C2.31 0.66 4.62 1.32 7 2 C7 2.66 7 3.32 7 4 C9.475 4.495 9.475 4.495 12 5 C12 4.34 12 3.68 12 3 C14.64 3.33 17.28 3.66 20 4 C19.67 4.66 19.34 5.32 19 6 C17.125 6.5625 17.125 6.5625 15 7 C14.01 7.33 13.02 7.66 12 8 C13.98 8.66 15.96 9.32 18 10 C18 10.66 18 11.32 18 12 C17.0925 11.814375 16.185 11.62875 15.25 11.4375 C12.31685676 11.04265379 10.7355343 11.05308428 8 12 C8.33 12.99 8.66 13.98 9 15 C5.45225265 16.62182736 2.87562808 17.10199021 -1 17 C-1.99 17.33 -2.98 17.66 -4 18 C-4.33 16.68 -4.66 15.36 -5 14 C-5.99 14.33 -6.98 14.66 -8 15 C-8.73323796 17.01508358 -8.73323796 17.01508358 -9 19 C-9.99 19 -10.98 19 -12 19 C-11.525625 18.278125 -11.05125 17.55625 -10.5625 16.8125 C-9.05847097 14.10524774 -8.43400818 12.03805725 -8 9 C-6.68 8.67 -5.36 8.34 -4 8 C-4 7.34 -4 6.68 -4 6 C-3.34 5.67 -2.68 5.34 -2 5 C-1.27840576 3.35636866 -0.60648579 1.68949614 0 0 Z " fill="#456586" transform="translate(108,39)"/>
<path d="M0 0 C0.33 0 0.66 0 1 0 C1 3.3 1 6.6 1 10 C0.01 10.495 0.01 10.495 -1 11 C-2.13350534 13.01669827 -2.13350534 13.01669827 -3 15 C-2.67 15.33 -2.34 15.66 -2 16 C-1.67 15.34 -1.34 14.68 -1 14 C-0.34 14 0.32 14 1 14 C1 13.34 1 12.68 1 12 C1.66 12 2.32 12 3 12 C3 13.32 3 14.64 3 16 C5.64 16 8.28 16 11 16 C10.67 16.99 10.34 17.98 10 19 C9.01 19 8.02 19 7 19 C7 19.99 7 20.98 7 22 C6.34 22 5.68 22 5 22 C4.34 24.64 3.68 27.28 3 30 C1.68 29.67 0.36 29.34 -1 29 C-1.0825 29.78375 -1.165 30.5675 -1.25 31.375 C-2 34 -2 34 -4.0625 35.3125 C-4.701875 35.539375 -5.34125 35.76625 -6 36 C-6 34.68 -6 33.36 -6 32 C-6.66 32 -7.32 32 -8 32 C-7.814375 30.783125 -7.62875 29.56625 -7.4375 28.3125 C-7.01006818 24.97022061 -7.07741117 22.28031583 -8 19 C-7.67 19 -7.34 19 -7 19 C-6.896875 17.783125 -6.79375 16.56625 -6.6875 15.3125 C-6.22500324 11.58609755 -5.30394352 9.04120544 -3 6 C-2.34 5.67 -1.68 5.34 -1 5 C-0.34444881 2.47266765 -0.34444881 2.47266765 0 0 Z " fill="#3B5773" transform="translate(103,48)"/>
<path d="M0 0 C1.74216797 0.02707031 1.74216797 0.02707031 3.51953125 0.0546875 C4.39996094 0.07789062 5.28039062 0.10109375 6.1875 0.125 C8.31847096 6.42481221 10.43730222 12.70760813 12.1875 19.125 C10.8675 19.125 9.5475 19.125 8.1875 19.125 C8.1875 18.465 8.1875 17.805 8.1875 17.125 C7.5275 17.125 6.8675 17.125 6.1875 17.125 C5.754375 16.67125 5.32125 16.2175 4.875 15.75 C2.8284537 13.77925171 0.81942913 13.13728043 -1.8125 12.125 C-2.4725 11.465 -3.1325 10.805 -3.8125 10.125 C-3.8125 10.785 -3.8125 11.445 -3.8125 12.125 C-5.4625 12.455 -7.1125 12.785 -8.8125 13.125 C-8.998125 12.073125 -8.998125 12.073125 -9.1875 11 C-9.85088345 7.94843613 -10.78461955 5.07159062 -11.8125 2.125 C-7.73526266 0.17468308 -4.49557578 -0.09081971 0 0 Z " fill="#8096AA" transform="translate(116.8125,20.875)"/>
<path d="M0 0 C0.33 0 0.66 0 1 0 C1.33 2.64 1.66 5.28 2 8 C2.66 6.68 3.32 5.36 4 4 C4 12.58 4 21.16 4 30 C4.66 30 5.32 30 6 30 C5.835 30.845625 5.67 31.69125 5.5 32.5625 C4.9100376 36.03954597 4.9100376 36.03954597 5 39.75 C5 43 5 43 4 45 C4.66 45.33 5.32 45.66 6 46 C5.505 46.928125 5.505 46.928125 5 47.875 C3.85806765 49.91018344 3.85806765 49.91018344 4 52 C3.34 52 2.68 52 2 52 C2 52.66 2 53.32 2 54 C2.66 54.33 3.32 54.66 4 55 C3.67 55.99 3.34 56.98 3 58 C0.9375 58.6875 0.9375 58.6875 -1 59 C-1.1430017 39.30096545 -0.78772748 19.68271183 0 0 Z " fill="#43617F" transform="translate(100,114)"/>
<path d="M0 0 C0.33 0 0.66 0 1 0 C1.02712351 2.39591038 1.0468982 4.79150957 1.0625 7.1875 C1.07087891 7.86103516 1.07925781 8.53457031 1.08789062 9.22851562 C1.10127356 11.97201708 1.09609631 14.56620465 0.50099182 17.25260925 C-0.13753593 20.75423373 -0.13144233 24.18263736 -0.11352539 27.7277832 C-0.11367142 28.48929184 -0.11381744 29.25080048 -0.1139679 30.03538513 C-0.11327387 32.54054662 -0.1055054 35.04563282 -0.09765625 37.55078125 C-0.09579026 39.29241393 -0.09436721 41.03404714 -0.09336853 42.77568054 C-0.08955762 47.35085509 -0.07973953 51.9259977 -0.06866455 56.50115967 C-0.05841975 61.17329476 -0.05386434 65.84543503 -0.04882812 70.51757812 C-0.03811596 79.67839942 -0.02105668 88.83919705 0 98 C-0.33 98 -0.66 98 -1 98 C-1.33 95.36 -1.66 92.72 -2 90 C-2.33 92.31 -2.66 94.62 -3 97 C-3.33 97 -3.66 97 -4 97 C-5.2158674 77.36086692 -4.9294646 58.01105751 -3.6875 38.375 C-3.62251312 37.32555206 -3.55752625 36.27610413 -3.49057007 35.19485474 C-2.74647197 23.3934428 -1.79779664 11.69206153 0 0 Z " fill="#6C87A3" transform="translate(61,129)"/>
<path d="M0 0 C0.33 0 0.66 0 1 0 C1 7.92 1 15.84 1 24 C-8.9 24 -18.8 24 -29 24 C-26.28388535 22.64194268 -23.94501926 21.58765718 -21.125 20.625 C-18.36035304 19.61920493 -16.04235861 18.48924629 -13.625 16.8125 C-11 15 -11 15 -9 15 C-9.66 14.34 -10.32 13.68 -11 13 C-10.67 12.01 -10.34 11.02 -10 10 C-6.60694964 10.53980347 -3.33796756 11.16550811 0 12 C0 8.04 0 4.08 0 0 Z " fill="#354C64" transform="translate(92,214)"/>
<path d="M0 0 C0.66 0 1.32 0 2 0 C2.33 0.969375 2.66 1.93875 3 2.9375 C4.76580449 6.40229446 4.76580449 6.40229446 8.8125 6.9375 C12.32703665 7.1377769 15.54075828 6.64357985 19 6 C19.99 6.33 20.98 6.66 22 7 C22.99 6.67 23.98 6.34 25 6 C26.83056393 5.88145444 28.66564306 5.82482767 30.5 5.8125 C31.93859375 5.79123047 31.93859375 5.79123047 33.40625 5.76953125 C36 6 36 6 39 8 C39 9.32 39 10.64 39 12 C33.76725612 12.02467917 28.53454597 12.04285003 23.30175781 12.05493164 C21.52082733 12.05996711 19.739901 12.06679581 17.95898438 12.07543945 C15.40233335 12.08753942 12.84573688 12.09323609 10.2890625 12.09765625 C9.49005524 12.10281754 8.69104797 12.10797882 7.86782837 12.11329651 C2.22774341 12.11387171 2.22774341 12.11387171 0 11 C0 7.37 0 3.74 0 0 Z " fill="#3C5B79" transform="translate(99,226)"/>
<path d="M0 0 C2.21338781 3.32008172 2.24325349 4.29735747 2.21289062 8.15551758 C2.20906372 9.21099289 2.20523682 10.2664682 2.20129395 11.35392761 C2.18642944 12.50170181 2.17156494 13.64947601 2.15625 14.83203125 C2.14410461 16.62783379 2.14410461 16.62783379 2.13171387 18.45991516 C2.10090763 22.30687561 2.05308558 26.15328582 2 30 C1.98356445 31.23925232 1.96712891 32.47850464 1.95019531 33.75531006 C1.82962692 42.39997858 1.66883162 51.04366092 1.5 59.6875 C1.45159233 62.26236547 1.40341434 64.83723526 1.35546875 67.41210938 C1.23961018 73.60812501 1.1209804 79.80408236 1 86 C0.67 86 0.34 86 0 86 C0 84.02 0 82.04 0 80 C-1.98 80.495 -1.98 80.495 -4 81 C-4 80.34 -4 79.68 -4 79 C-3.34 79 -2.68 79 -2 79 C-1.07446257 75.86149936 -0.88335353 73.06319222 -0.90234375 69.796875 C-0.90556641 68.8171875 -0.90878906 67.8375 -0.91210938 66.828125 C-0.92048828 65.81234375 -0.92886719 64.7965625 -0.9375 63.75 C-0.94201172 62.71875 -0.94652344 61.6875 -0.95117188 60.625 C-0.96293912 58.08327427 -0.97937989 55.54166681 -1 53 C-1.99 53 -2.98 53 -4 53 C-4.22291076 47.06809694 -3.89764328 41.80896595 -2.4453125 36.05078125 C-1.85749482 33.34372616 -1.85859133 30.75746915 -2 28 C-1.34 28 -0.68 28 0 28 C-0.14188985 25.45805839 -0.28839155 22.91652007 -0.4375 20.375 C-0.47681641 19.66214844 -0.51613281 18.94929688 -0.55664062 18.21484375 C-0.74984963 14.97487728 -1.01987517 11.88911745 -1.59375 8.6875 C-2.10486804 5.30625758 -1.26745088 3.13134922 0 0 Z " fill="#EFF4F7" transform="translate(98,114)"/>
<path d="M0 0 C4.62 0 9.24 0 14 0 C14 0.66 14 1.32 14 2 C14.99 2 15.98 2 17 2 C17 1.34 17 0.68 17 0 C19.31 0 21.62 0 24 0 C23.34 0.66 22.68 1.32 22 2 C22.2475 2.928125 22.2475 2.928125 22.5 3.875 C23.14106968 6.59954614 22.41793887 7.66457128 21 10 C23.64 10.33 26.28 10.66 29 11 C28.67 11.66 28.34 12.32 28 13 C26.02 13 24.04 13 22 13 C22 20.59 22 28.18 22 36 C21.01 36.495 21.01 36.495 20 37 C20 28.42 20 19.84 20 11 C19.01 11.33 18.02 11.66 17 12 C15.83447381 7.80410573 15.91045968 7.17908064 18 3 C14.7 2.67 11.4 2.34 8 2 C7.67 4.97 7.34 7.94 7 11 C5 11 3 11 1 11 C1.33 11.99 1.66 12.98 2 14 C1.34 14 0.68 14 0 14 C-0.66 12.02 -1.32 10.04 -2 8 C-1.34 8 -0.68 8 0 8 C0.33 6.68 0.66 5.36 1 4 C2.65 4 4.3 4 6 4 C6 3.34 6 2.68 6 2 C3.03 1.505 3.03 1.505 0 1 C0 0.67 0 0.34 0 0 Z " fill="#8B9EB0" transform="translate(75,23)"/>
<path d="M0 0 C0.33 0 0.66 0 1 0 C1.71875936 13.0146785 2.14323814 25.96532922 2 39 C1.360625 39.12375 0.72125 39.2475 0.0625 39.375 C-0.618125 39.58125 -1.29875 39.7875 -2 40 C-2.33 40.66 -2.66 41.32 -3 42 C-3.4640625 41.0409375 -3.4640625 41.0409375 -3.9375 40.0625 C-4.8345163 38.06389179 -4.8345163 38.06389179 -6 37 C-6.23192865 35.48530552 -6.41215238 33.96245438 -6.5625 32.4375 C-6.64628906 31.61121094 -6.73007813 30.78492188 -6.81640625 29.93359375 C-6.90728516 28.97646484 -6.90728516 28.97646484 -7 28 C-5.68 27.34 -4.36 26.68 -3 26 C-3 19.4 -3 12.8 -3 6 C-2.34 6 -1.68 6 -1 6 C-0.67 4.02 -0.34 2.04 0 0 Z M-5 16 C-4.34 16.66 -3.68 17.32 -3 18 C-3.99 19.485 -3.99 19.485 -5 21 C-5 19.35 -5 17.7 -5 16 Z " fill="#5D768A" transform="translate(133,115)"/>
<path d="M0 0 C0.33 0 0.66 0 1 0 C2.58033973 21.70445304 3.28613853 43.23806416 3 65 C2.34 65 1.68 65 1 65 C0.3030301 56.20075499 -0.0421133 47.51261244 0.0625 38.6875 C0.16585064 28.67909765 -0.73037713 18.91892864 -2 9 C-3.65 8.67 -5.3 8.34 -7 8 C-7 6.35 -7 4.7 -7 3 C-5.68 3 -4.36 3 -3 3 C-3 3.66 -3 4.32 -3 5 C-2.34 5 -1.68 5 -1 5 C-0.67 3.35 -0.34 1.7 0 0 Z " fill="#485B6F" transform="translate(135,167)"/>
<path d="M0 0 C0.33 0 0.66 0 1 0 C1 1.98 1 3.96 1 6 C1.66 6 2.32 6 3 6 C3.33 5.01 3.66 4.02 4 3 C4.33 3 4.66 3 5 3 C5 6.96 5 10.92 5 15 C2 16 2 16 1 16 C1 16.66 1 17.32 1 18 C0.34 18 -0.32 18 -1 18 C-1 17.34 -1 16.68 -1 16 C-1.66 16 -2.32 16 -3 16 C-3 16.66 -3 17.32 -3 18 C-6.63 18 -10.26 18 -14 18 C-14 17.34 -14 16.68 -14 16 C-11.36 15.01 -8.72 14.02 -6 13 C-6.99 13.33 -7.98 13.66 -9 14 C-9.99 13.67 -10.98 13.34 -12 13 C-11.67 12.01 -11.34 11.02 -11 10 C-8.67328146 9.31060191 -6.33932406 8.64533078 -4 8 C-1.47403546 6.23182482 -1.08412571 5.32885503 -0.3125 2.3125 C-0.209375 1.549375 -0.10625 0.78625 0 0 Z " fill="#567291" transform="translate(79,28)"/>
<path d="M0 0 C0.99 0 1.98 0 3 0 C2.67 16.17 2.34 32.34 2 49 C1.34 49 0.68 49 0 49 C-1.17462038 46.65075924 -1.10140678 45.29656228 -1.0625 42.68359375 C-1.05476563 41.83732422 -1.04703125 40.99105469 -1.0390625 40.11914062 C-1.02617188 39.23419922 -1.01328125 38.34925781 -1 37.4375 C-0.97460128 35.68625818 -0.95353069 33.93494638 -0.9375 32.18359375 C-0.92589844 31.40556396 -0.91429688 30.62753418 -0.90234375 29.82592773 C-0.7970929 27.98012932 -0.7970929 27.98012932 -2 27 C-2.125 24.5 -2.125 24.5 -2 22 C-1.67 21.67 -1.34 21.34 -1 21 C-0.84313751 19.44051458 -0.74923361 17.87457332 -0.68359375 16.30859375 C-0.62075195 14.89223633 -0.62075195 14.89223633 -0.55664062 13.44726562 C-0.51732422 12.45404297 -0.47800781 11.46082031 -0.4375 10.4375 C-0.37272461 8.94186523 -0.37272461 8.94186523 -0.30664062 7.41601562 C-0.20019702 4.9441585 -0.09818072 2.4721969 0 0 Z " fill="#3D5569" transform="translate(89,108)"/>
<path d="M0 0 C0.99 0.33 1.98 0.66 3 1 C3.16873478 2.43725871 3.33490737 3.87481838 3.5 5.3125 C3.5928125 6.11300781 3.685625 6.91351563 3.78125 7.73828125 C4 10 4 10 4 13 C3.01 13.495 3.01 13.495 2 14 C2 14.66 2 15.32 2 16 C2.99 16.33 3.98 16.66 5 17 C5 18.98 5 20.96 5 23 C4.34 21.68 3.68 20.36 3 19 C2.34 19 1.68 19 1 19 C1.33 19.66 1.66 20.32 2 21 C2.27169454 23.23393291 2.44477833 25.46760508 2.62109375 27.7109375 C2.88838965 30.02809722 2.88838965 30.02809722 4.01953125 32.03125 C5.69114536 35.38779785 5.23915868 38.29304045 5 42 C4.34 42.66 3.68 43.32 3 44 C2.35232207 46.57061311 2.35232207 46.57061311 2 49 C1.67 49 1.34 49 1 49 C0.13124421 43.03594643 -0.1339853 37.27190402 -0.09765625 31.25 C-0.0962413 30.35128174 -0.09482635 29.45256348 -0.09336853 28.52661133 C-0.08781583 25.68437225 -0.07527237 22.84221487 -0.0625 20 C-0.05747888 18.06119906 -0.05291705 16.12239688 -0.04882812 14.18359375 C-0.03786194 9.45569817 -0.02063044 4.72786289 0 0 Z " fill="#354E63" transform="translate(99,175)"/>
<path d="M0 0 C0.33 0 0.66 0 1 0 C1.22512171 4.12426536 1.42725588 8.24933849 1.625 12.375 C1.68945312 13.550625 1.75390625 14.72625 1.8203125 15.9375 C1.871875 17.05898437 1.9234375 18.18046875 1.9765625 19.3359375 C2.02893066 20.37282715 2.08129883 21.4097168 2.13525391 22.47802734 C2 25 2 25 0 27 C-0.99 27 -1.98 27 -3 27 C-3.125 19.25 -3.125 19.25 -2 17 C-3.32 17.33 -4.64 17.66 -6 18 C-6 20.97 -6 23.94 -6 27 C-6.99 27 -7.98 27 -9 27 C-8.505 22.545 -8.505 22.545 -8 18 C-8.33 18 -8.66 18 -9 18 C-9 16.35 -9 14.7 -9 13 C-6.36 12.34 -3.72 11.68 -1 11 C-0.67 7.37 -0.34 3.74 0 0 Z " fill="#5E7A94" transform="translate(131,53)"/>
<path d="M0 0 C1.65 0.33 3.3 0.66 5 1 C5 2.65 5 4.3 5 6 C6.32 5.67 7.64 5.34 9 5 C9.33 6.32 9.66 7.64 10 9 C5.545 9.495 5.545 9.495 1 10 C0.67 10.99 0.34 11.98 0 13 C-0.66 13 -1.32 13 -2 13 C-2.66 14.32 -3.32 15.64 -4 17 C-4.33 16.01 -4.66 15.02 -5 14 C-5.99 14.33 -6.98 14.66 -8 15 C-8.73323796 17.01508358 -8.73323796 17.01508358 -9 19 C-9.99 19 -10.98 19 -12 19 C-11.525625 18.278125 -11.05125 17.55625 -10.5625 16.8125 C-9.05847097 14.10524774 -8.43400818 12.03805725 -8 9 C-6.68 8.67 -5.36 8.34 -4 8 C-4 7.34 -4 6.68 -4 6 C-3.34 5.67 -2.68 5.34 -2 5 C-1.27840576 3.35636866 -0.60648579 1.68949614 0 0 Z " fill="#507092" transform="translate(108,39)"/>
<path d="M0 0 C0.66 0 1.32 0 2 0 C2.33893581 3.83285925 2.67012787 7.66635091 3 11.5 C3.09539062 12.57765625 3.19078125 13.6553125 3.2890625 14.765625 C3.78162326 20.53562244 4.11244203 26.20923553 4 32 C3.34 31.67 2.68 31.34 2 31 C1.67 31.66 1.34 32.32 1 33 C0.34 33 -0.32 33 -1 33 C-3.61497481 23.19384445 -2.8207037 9.62357732 0 0 Z " fill="#E7EEF0" transform="translate(95,80)"/>
<path d="M0 0 C0.79921875 0.00902344 1.5984375 0.01804687 2.421875 0.02734375 C3.02515625 0.03894531 3.6284375 0.05054687 4.25 0.0625 C3.92 0.7225 3.59 1.3825 3.25 2.0625 C3.91 2.3925 4.57 2.7225 5.25 3.0625 C5.25 3.7225 5.25 4.3825 5.25 5.0625 C3.6 5.0625 1.95 5.0625 0.25 5.0625 C-0.08 6.3825 -0.41 7.7025 -0.75 9.0625 C-0.09 9.3925 0.57 9.7225 1.25 10.0625 C0.26 10.3925 -0.73 10.7225 -1.75 11.0625 C-1.42 12.0525 -1.09 13.0425 -0.75 14.0625 C-2.4 14.7225 -4.05 15.3825 -5.75 16.0625 C-7.655247 10.95915983 -9.17589023 6.59907294 -8.75 1.0625 C-5.75519083 0.1901588 -3.11424089 -0.04579766 0 0 Z " fill="#70849A" transform="translate(75.75,21.9375)"/>
<path d="M0 0 C1.18851563 0.00902344 2.37703125 0.01804687 3.6015625 0.02734375 C4.51679687 0.03894531 5.43203125 0.05054687 6.375 0.0625 C6.705 2.7025 7.035 5.3425 7.375 8.0625 C6.61574219 8.12308594 5.85648438 8.18367188 5.07421875 8.24609375 C3.58341797 8.37177734 3.58341797 8.37177734 2.0625 8.5 C1.07636719 8.58121094 0.09023437 8.66242187 -0.92578125 8.74609375 C-3.71875599 8.98062559 -3.71875599 8.98062559 -6.625 10.0625 C-7.285 7.0925 -7.945 4.1225 -8.625 1.0625 C-5.74084117 -0.37957941 -3.20778472 -0.03144887 0 0 Z " fill="#738697" transform="translate(116.625,20.9375)"/>
<path d="M0 0 C9.24 0 18.48 0 28 0 C27.34 0.66 26.68 1.32 26 2 C26.3185177 4.10820797 26.3185177 4.10820797 27 6 C26.01 6.495 26.01 6.495 25 7 C25.33 7.99 25.66 8.98 26 10 C23.04335481 11.4783226 20.25770263 11.06032783 17 11 C17.020625 9.88625 17.04125 8.7725 17.0625 7.625 C17.26380718 4.16784079 17.26380718 4.16784079 16 2 C13.97536745 1.34786708 13.97536745 1.34786708 12 1 C12 1.66 12 2.32 12 3 C11.01 3 10.02 3 9 3 C9 2.34 9 1.68 9 1 C6.03 1 3.06 1 0 1 C0 0.67 0 0.34 0 0 Z " fill="#556575" transform="translate(80,22)"/>
<path d="M0 0 C0.33 0 0.66 0 1 0 C1.02532428 6.49616668 1.04285601 12.99232066 1.05493164 19.48852539 C1.059965 21.69914221 1.06679217 23.90975569 1.07543945 26.12036133 C1.08754859 29.295093 1.09323825 32.46978072 1.09765625 35.64453125 C1.10281754 36.63524124 1.10797882 37.62595123 1.11329651 38.64668274 C1.11337204 39.56741074 1.11344757 40.48813873 1.11352539 41.43676758 C1.115746 42.2472908 1.11796661 43.05781403 1.12025452 43.89289856 C1 46 1 46 0 49 C-0.66 49 -1.32 49 -2 49 C-1.67 51.31 -1.34 53.62 -1 56 C-1.99 56.495 -1.99 56.495 -3 57 C-3.16928239 54.31264212 -3.3354953 51.62515116 -3.5 48.9375 C-3.54769531 48.18533203 -3.59539062 47.43316406 -3.64453125 46.65820312 C-3.92108402 42.09508249 -4.0485677 37.57143477 -4 33 C-3.34 34.32 -2.68 35.64 -2 37 C-1.34 37 -0.68 37 0 37 C0 24.79 0 12.58 0 0 Z " fill="#5F7486" transform="translate(91,120)"/>
<path d="M0 0 C0.33 0 0.66 0 1 0 C1 6.93 1 13.86 1 21 C-5 21 -5 21 -7.375 19.6875 C-9 18 -9 18 -9 15 C-9.66 14.34 -10.32 13.68 -11 13 C-10.67 12.01 -10.34 11.02 -10 10 C-6.60694964 10.53980347 -3.33796756 11.16550811 0 12 C0 8.04 0 4.08 0 0 Z " fill="#43617F" transform="translate(92,214)"/>
<path d="M0 0 C0.33 0 0.66 0 1 0 C1.02712351 2.39591038 1.0468982 4.79150957 1.0625 7.1875 C1.07087891 7.86103516 1.07925781 8.53457031 1.08789062 9.22851562 C1.10123847 11.96482341 1.0962593 14.55867924 0.51147461 17.23974609 C-0.14847391 20.801263 -0.21327184 24.3234643 -0.28125 27.93359375 C-0.30886414 29.06692894 -0.30886414 29.06692894 -0.33703613 30.22315979 C-0.39550316 32.62786453 -0.44842765 35.03263813 -0.5 37.4375 C-0.56803428 40.60300161 -0.64172396 43.7682996 -0.71875 46.93359375 C-0.73232544 47.65252304 -0.74590088 48.37145233 -0.7598877 49.11216736 C-0.85883911 53.16157518 -1.23125526 57.02283531 -2 61 C-2.33 61 -2.66 61 -3 61 C-4.01096358 48.58289071 -3.81261281 36.7033468 -2.625 24.3125 C-2.48324118 22.71950153 -2.34261342 21.126402 -2.203125 19.53320312 C-1.61955078 12.99621068 -0.97379363 6.49213336 0 0 Z " fill="#8597AB" transform="translate(61,129)"/>
<path d="M0 0 C0 1.32 0 2.64 0 4 C-11.22 4 -22.44 4 -34 4 C-34 3.34 -34 2.68 -34 2 C-28.89624579 1.01882593 -23.86560581 0.68719522 -18.6875 0.4375 C-17.88376953 0.39431641 -17.08003906 0.35113281 -16.25195312 0.30664062 C-10.82810474 0.03173922 -5.43063954 -0.03812886 0 0 Z " fill="#3C4E61" transform="translate(138,234)"/>
<path d="M0 0 C0.33 0 0.66 0 1 0 C1.02482932 5.97737327 1.04292109 11.95471611 1.05493164 17.93212891 C1.05994189 19.96305871 1.06675191 21.99398494 1.07543945 24.02490234 C1.08765047 26.95411057 1.09326153 29.88327085 1.09765625 32.8125 C1.10281754 33.71178223 1.10797882 34.61106445 1.11329651 35.53759766 C1.11375728 40.78569067 0.76270154 45.80624001 0 51 C-1.98 51.495 -1.98 51.495 -4 52 C-4 49.03 -4 46.06 -4 43 C-3.01 43 -2.02 43 -1 43 C-1 41.68 -1 40.36 -1 39 C-1.66 38.67 -2.32 38.34 -3 38 C-3 35.03 -3 32.06 -3 29 C-2.34 29 -1.68 29 -1 29 C-0.67 19.43 -0.34 9.86 0 0 Z " fill="#667788" transform="translate(92,171)"/>
<path d="M0 0 C0.99 0.495 0.99 0.495 2 1 C2 1.66 2 2.32 2 3 C3.32 3.33 4.64 3.66 6 4 C4.68 4.33 3.36 4.66 2 5 C2 5.66 2 6.32 2 7 C3.98 7 5.96 7 8 7 C7.01 7.66 6.02 8.32 5 9 C4.49111508 10.95956033 4.49111508 10.95956033 4.4375 13.1875 C4.11179921 17.34184678 3.18643563 20.99577976 2 25 C1.63049535 27.32787927 1.28647533 29.66045145 1 32 C0.67 32 0.34 32 0 32 C0 21.44 0 10.88 0 0 Z " fill="#7D99B0" transform="translate(62,72)"/>
<path d="M0 0 C1.98 0.66 3.96 1.32 6 2 C7.0712828 8.02596573 7.09945415 13.88909517 7 20 C5.68 20 4.36 20 3 20 C3.33 18.35 3.66 16.7 4 15 C3.34 14.67 2.68 14.34 2 14 C2.33 12.68 2.66 11.36 3 10 C2.34 10 1.68 10 1 10 C-0.60725635 6.78548731 -0.05748185 3.56387464 0 0 Z " fill="#415F7A" transform="translate(127,184)"/>
<path d="M0 0 C2.12508244 3.18762365 2.5020163 5.26512223 3 9 C2.34 9 1.68 9 1 9 C1 9.99 1 10.98 1 12 C2.98 11.34 4.96 10.68 7 10 C6.3203125 11.921875 6.3203125 11.921875 5 14 C2.6171875 14.828125 2.6171875 14.828125 -0.125 15.25 C-1.03507812 15.39953125 -1.94515625 15.5490625 -2.8828125 15.703125 C-3.93082031 15.85007812 -3.93082031 15.85007812 -5 16 C-4.74213573 9.47603393 -4.17832479 5.12181749 0 0 Z " fill="#7A93AB" transform="translate(67,29)"/>
<path d="M0 0 C0.33 1.32 0.66 2.64 1 4 C1.66 4 2.32 4 3 4 C2.67 5.32 2.34 6.64 2 8 C4.64 8.33 7.28 8.66 10 9 C9.67 9.66 9.34 10.32 9 11 C7.02 11 5.04 11 3 11 C3 18.59 3 26.18 3 34 C2.01 34.495 2.01 34.495 1 35 C1 26.42 1 17.84 1 9 C0.01 9.33 -0.98 9.66 -2 10 C-2.33 8.35 -2.66 6.7 -3 5 C-2.34 5 -1.68 5 -1 5 C-0.67 3.35 -0.34 1.7 0 0 Z " fill="#7490AD" transform="translate(94,25)"/>
<path d="M0 0 C0.66 0.33 1.32 0.66 2 1 C2.625 3.5625 2.625 3.5625 3 6 C3.33 6 3.66 6 4 6 C4.0544452 8.20805524 4.09299283 10.41650554 4.125 12.625 C4.14820312 13.85476562 4.17140625 15.08453125 4.1953125 16.3515625 C4.0030428 19.94316041 3.30258556 22.66661175 2 26 C1.67 26 1.34 26 1 26 C0.67 23.69 0.34 21.38 0 19 C-0.33 19 -0.66 19 -1 19 C-1.02705308 16.58325776 -1.04686438 14.1668206 -1.0625 11.75 C-1.07087891 11.06808594 -1.07925781 10.38617188 -1.08789062 9.68359375 C-1.10428392 6.30657446 -1.05628768 3.22708361 0 0 Z " fill="#4B6787" transform="translate(100,98)"/>
<path d="M0 0 C3.68890899 1.22963633 6.64361605 3.03683203 10 5 C10 5.66 10 6.32 10 7 C11.98 7.66 13.96 8.32 16 9 C16 9.66 16 10.32 16 11 C5.05220476 10.07551951 5.05220476 10.07551951 1 8 C-0.4375 5 -0.4375 5 -1 2 C-0.67 1.34 -0.34 0.68 0 0 Z " fill="#4E6887" transform="translate(113,31)"/>
<path d="M0 0 C0.99 0 1.98 0 3 0 C3.25 7.625 3.25 7.625 1 11 C0.75944532 13.05709596 0.75944532 13.05709596 0.875 15.1875 C0.91625 16.445625 0.9575 17.70375 1 19 C1.99 19.33 2.98 19.66 4 20 C3.34 20.66 2.68 21.32 2 22 C1.53513282 25.12196336 1.53513282 25.12196336 1.375 28.625 C1.30023438 29.81351563 1.22546875 31.00203125 1.1484375 32.2265625 C1.09945312 33.14179688 1.05046875 34.05703125 1 35 C0.67 35 0.34 35 0 35 C-2.64019729 22.8126607 -2.18085423 12.24783315 0 0 Z " fill="#6F889E" transform="translate(62,136)"/>
<path d="M0 0 C0.33 0 0.66 0 1 0 C1 2.31 1 4.62 1 7 C1.66 7 2.32 7 3 7 C3 9.31 3 11.62 3 14 C2.67 12.68 2.34 11.36 2 10 C1.01 10 0.02 10 -1 10 C-0.99476318 10.63091553 -0.98952637 11.26183105 -0.98413086 11.91186523 C-0.96342174 14.75373347 -0.95035934 17.59558588 -0.9375 20.4375 C-0.92912109 21.43072266 -0.92074219 22.42394531 -0.91210938 23.44726562 C-0.90888672 24.39150391 -0.90566406 25.33574219 -0.90234375 26.30859375 C-0.89710693 27.18314209 -0.89187012 28.05769043 -0.88647461 28.95874023 C-1 31 -1 31 -2 32 C-2.39666227 34.18019479 -2.74315237 36.3696463 -3.0625 38.5625 C-3.23910156 39.76003906 -3.41570312 40.95757812 -3.59765625 42.19140625 C-3.73042969 43.11824219 -3.86320312 44.04507813 -4 45 C-4.33 45 -4.66 45 -5 45 C-4.85975781 42.52039864 -4.7130815 40.04147598 -4.5625 37.5625 C-4.52318359 36.85544922 -4.48386719 36.14839844 -4.44335938 35.41992188 C-4.11328125 30.11328125 -4.11328125 30.11328125 -3 29 C-2.97894387 26.75000207 -3.00970615 24.49947701 -3.0625 22.25 C-3.15909638 15.04269187 -2.56501889 8.05972024 -1 1 C-0.67 0.67 -0.34 0.34 0 0 Z " fill="#455D79" transform="translate(90,98)"/>
<path d="M0 0 C0.33 0 0.66 0 1 0 C1 13.86 1 27.72 1 42 C0.67 42 0.34 42 0 42 C0 39.36 0 36.72 0 34 C-0.99 34 -1.98 34 -3 34 C-3 32.68 -3 31.36 -3 30 C-2.01 30 -1.02 30 0 30 C0 28.35 0 26.7 0 25 C-0.66 25 -1.32 25 -2 25 C-2 24.01 -2 23.02 -2 22 C-1.34 22 -0.68 22 0 22 C0 21.34 0 20.68 0 20 C-0.66 20 -1.32 20 -2 20 C-2.79953138 16.71303767 -3.09658936 15.28976808 -2 12 C-1.34 12 -0.68 12 0 12 C0 9.69 0 7.38 0 5 C-0.66 5 -1.32 5 -2 5 C-2 4.34 -2 3.68 -2 3 C-1.34 3 -0.68 3 0 3 C0 2.01 0 1.02 0 0 Z " fill="#3D5163" transform="translate(91,166)"/>
<path d="M0 0 C0.33 0 0.66 0 1 0 C1.22634311 3.4157233 1.42792113 6.83247322 1.625 10.25 C1.68945312 11.21808594 1.75390625 12.18617188 1.8203125 13.18359375 C1.871875 14.11816406 1.9234375 15.05273438 1.9765625 16.015625 C2.02893066 16.87446289 2.08129883 17.73330078 2.13525391 18.61816406 C2 21 2 21 0 25 C-0.66 19.72 -1.32 14.44 -2 9 C-3.65 8.67 -5.3 8.34 -7 8 C-7 6.35 -7 4.7 -7 3 C-5.68 3 -4.36 3 -3 3 C-3 3.66 -3 4.32 -3 5 C-2.34 5 -1.68 5 -1 5 C-0.67 3.35 -0.34 1.7 0 0 Z " fill="#4D6376" transform="translate(135,167)"/>
<path d="M0 0 C0.99 0.66 1.98 1.32 3 2 C3.08401542 4.98554795 2.99961307 7.72746579 2.75 10.6875 C2.69714844 11.47833984 2.64429687 12.26917969 2.58984375 13.08398438 C2.25776454 17.76012303 1.71924354 22.36831961 1 27 C0.34 27 -0.32 27 -1 27 C-2.00051595 20.99690429 -2.96006223 14.88018669 -1 9 C-0.78196693 7.44146733 -0.59633644 5.87817349 -0.4375 4.3125 C-0.35371094 3.50425781 -0.26992187 2.69601563 -0.18359375 1.86328125 C-0.12300781 1.24839844 -0.06242187 0.63351563 0 0 Z " fill="#2F4458" transform="translate(92,78)"/>
<path d="M0 0 C3.3 0.33 6.6 0.66 10 1 C10 3.66666667 10 6.33333333 10 9 C10.66 9 11.32 9 12 9 C11.67 10.32 11.34 11.64 11 13 C10.01 13 9.02 13 8 13 C8 12.01 8 11.02 8 10 C6.02 10.66 4.04 11.32 2 12 C2 11.01 2 10.02 2 9 C3.32 8.34 4.64 7.68 6 7 C5.34 7 4.68 7 4 7 C4 5.35 4 3.7 4 2 C2.68 2.33 1.36 2.66 0 3 C0 2.01 0 1.02 0 0 Z " fill="#516B87" transform="translate(83,25)"/>
<path d="M0 0 C0.33 0 0.66 0 1 0 C1.09706112 6.11485027 0.77040851 11.93303301 0 18 C-0.66 16.68 -1.32 15.36 -2 14 C-2.66 14 -3.32 14 -4 14 C-4 14.66 -4 15.32 -4 16 C-5.32 16 -6.64 16 -8 16 C-7.51421457 12.87709365 -7.0013988 10.00419641 -6 7 C-5.01 7 -4.02 7 -3 7 C-2.01 4.69 -1.02 2.38 0 0 Z " fill="#476C8E" transform="translate(108,70)"/>
<path d="M0 0 C0.66 0 1.32 0 2 0 C2 1.32 2 2.64 2 4 C4.64 4 7.28 4 10 4 C9.67 4.99 9.34 5.98 9 7 C8.01 7 7.02 7 6 7 C5.67 7.99 5.34 8.98 5 10 C5 9.34 5 8.68 5 8 C2.36 8.99 -0.28 9.98 -3 11 C-4 10 -4 10 -4.1875 7.625 C-4 5 -4 5 -2 2 C-1.34 2 -0.68 2 0 2 C0 1.34 0 0.68 0 0 Z " fill="#426281" transform="translate(104,60)"/>
<path d="M0 0 C0.33 0 0.66 0 1 0 C1.309375 1.093125 1.61875 2.18625 1.9375 3.3125 C2.58337897 5.55407994 3.2623117 7.7869351 4 10 C4.23188622 12.72331488 4.13093368 15.25039269 4 18 C3.34 18.66 2.68 19.32 2 20 C1.35232207 22.57061311 1.35232207 22.57061311 1 25 C0.67 25 0.34 25 0 25 C-1.33257403 8.29157175 -1.33257403 8.29157175 0 0 Z " fill="#405B74" transform="translate(100,199)"/>
<path d="M0 0 C0.66 0 1.32 0 2 0 C1.67 0.99 1.34 1.98 1 3 C1.23870425 5.61098043 1.23870425 5.61098043 2 8 C2.66 8.33 3.32 8.66 4 9 C3.67 12.3 3.34 15.6 3 19 C2.01 19 1.02 19 0 19 C-2.46209717 15.25497097 -2.06276467 12.1755169 -1.6875 7.8125 C-1.58824219 6.56082031 -1.48898438 5.30914062 -1.38671875 4.01953125 C-1 1 -1 1 0 0 Z " fill="#557897" transform="translate(110,69)"/>
<path d="M0 0 C0.33 0 0.66 0 1 0 C1.10094304 8.41192037 1.10102642 16.64399592 0 25 C-0.66 24.67 -1.32 24.34 -2 24 C-2.4140625 21.7421875 -2.4140625 21.7421875 -2.625 18.875 C-2.69847656 17.88628906 -2.77195313 16.89757812 -2.84765625 15.87890625 C-3.02263263 12.57230141 -3.07355086 9.30978891 -3 6 C-2.34 6 -1.68 6 -1 6 C-0.67 4.02 -0.34 2.04 0 0 Z M-5 16 C-4.34 16.66 -3.68 17.32 -3 18 C-3.99 19.485 -3.99 19.485 -5 21 C-5 19.35 -5 17.7 -5 16 Z " fill="#6B8091" transform="translate(133,115)"/>
<path d="M0 0 C1.65 0 3.3 0 5 0 C5.33 1.65 5.66 3.3 6 5 C6.99 5 7.98 5 9 5 C9.33 6.98 9.66 8.96 10 11 C9.67 10.01 9.34 9.02 9 8 C8.34 8 7.68 8 7 8 C7 8.66 7 9.32 7 10 C5.68 10.33 4.36 10.66 3 11 C2.67 9.35 2.34 7.7 2 6 C0.88625 6.309375 0.88625 6.309375 -0.25 6.625 C-3.32330841 7.04408751 -4.42786866 6.61949011 -7 5 C-4.59454362 3.79727181 -3.05003047 3.89928528 -0.375 3.9375 C0.85089844 3.95103516 0.85089844 3.95103516 2.1015625 3.96484375 C3.04128906 3.98224609 3.04128906 3.98224609 4 4 C3.34 3.34 2.68 2.68 2 2 C1.34 1.34 0.68 0.68 0 0 Z " fill="#566F8B" transform="translate(102,28)"/>
<path d="M0 0 C0.99 0.66 1.98 1.32 3 2 C2.67 2.61875 2.34 3.2375 2 3.875 C0.85806765 5.91018344 0.85806765 5.91018344 1 8 C0.34 8 -0.32 8 -1 8 C-1 8.66 -1 9.32 -1 10 C-0.34 10.33 0.32 10.66 1 11 C0.67 11.99 0.34 12.98 0 14 C-1.32 14.33 -2.64 14.66 -4 15 C-4 10.71 -4 6.42 -4 2 C-2.68 1.34 -1.36 0.68 0 0 Z " fill="#3C5672" transform="translate(103,158)"/>
<path d="M0 0 C0.33 0 0.66 0 1 0 C1.33 11.88 1.66 23.76 2 36 C2.66 36 3.32 36 4 36 C4 37.32 4 38.64 4 40 C2.68 40 1.36 40 0 40 C0 26.8 0 13.6 0 0 Z " fill="#607085" transform="translate(56,198)"/>
<path d="M0 0 C1.875 1.125 1.875 1.125 3 3 C3.6875 6.1875 3.6875 6.1875 4 9 C2.68 9 1.36 9 0 9 C0 8.34 0 7.68 0 7 C-0.66 7 -1.32 7 -2 7 C-2.433125 6.54625 -2.86625 6.0925 -3.3125 5.625 C-5.35628817 3.65690769 -7.34530324 2.93273129 -10 2 C-6.30513897 -0.46324069 -4.36706908 -0.38991688 0 0 Z " fill="#6F869D" transform="translate(125,31)"/>
<path d="M0 0 C0.66 1.32 1.32 2.64 2 4 C1.01 4.495 1.01 4.495 0 5 C0.33 5.99 0.66 6.98 1 8 C-1.95664519 9.4783226 -4.74229737 9.06032783 -8 9 C-7.67 6.69 -7.34 4.38 -7 2 C-4.69 2 -2.38 2 0 2 C0 1.34 0 0.68 0 0 Z " fill="#364B64" transform="translate(105,24)"/>
<path d="M0 0 C0.66 0 1.32 0 2 0 C2.08733513 3.08315385 2.14050127 6.16598827 2.1875 9.25 C2.21263672 10.12269531 2.23777344 10.99539062 2.26367188 11.89453125 C2.33834499 18.41598332 2.33834499 18.41598332 0.48828125 21.609375 C-0.00285156 22.06828125 -0.49398437 22.5271875 -1 23 C-1.02911321 19.9166866 -1.04683682 16.83340875 -1.0625 13.75 C-1.07087891 12.87730469 -1.07925781 12.00460938 -1.08789062 11.10546875 C-1.09111328 10.26113281 -1.09433594 9.41679688 -1.09765625 8.546875 C-1.10551147 7.38430176 -1.10551147 7.38430176 -1.11352539 6.19824219 C-1.00036998 4.00716402 -0.60552448 2.10362139 0 0 Z " fill="#F5FAFD" transform="translate(95,80)"/>
<path d="M0 0 C0.33 0 0.66 0 1 0 C1 12.54 1 25.08 1 38 C0.67 38 0.34 38 0 38 C0 36.02 0 34.04 0 32 C-1.98 32.495 -1.98 32.495 -4 33 C-4 32.34 -4 31.68 -4 31 C-3.34 31 -2.68 31 -2 31 C-1.08341617 27.82946805 -0.81167961 24.87176138 -0.68359375 21.578125 C-0.64169922 20.55332031 -0.59980469 19.52851563 -0.55664062 18.47265625 C-0.51732422 17.40917969 -0.47800781 16.34570312 -0.4375 15.25 C-0.39431641 14.17105469 -0.35113281 13.09210938 -0.30664062 11.98046875 C-0.20071011 9.32043572 -0.09863579 6.66031188 0 4 C-0.66 3.67 -1.32 3.34 -2 3 C-1.34 3 -0.68 3 0 3 C0 2.01 0 1.02 0 0 Z " fill="#D0D8E1" transform="translate(98,162)"/>
<path d="M0 0 C0.99 0.495 0.99 0.495 2 1 C2.99 1.33 3.98 1.66 5 2 C5.02698189 3.62490954 5.04638757 5.24994633 5.0625 6.875 C5.07410156 7.77992187 5.08570312 8.68484375 5.09765625 9.6171875 C5 12 5 12 4 14 C4.66 14.33 5.32 14.66 6 15 C5.67 16.32 5.34 17.64 5 19 C4.34 18.67 3.68 18.34 3 18 C3.33 17.34 3.66 16.68 4 16 C3.34 16 2.68 16 2 16 C1.34 10.72 0.68 5.44 0 0 Z " fill="#466888" transform="translate(84,73)"/>
<path d="M0 0 C0.66 0.33 1.32 0.66 2 1 C1.34 2.32 0.68 3.64 0 5 C-0.66 5 -1.32 5 -2 5 C-2 6.98 -2 8.96 -2 11 C-3.98 11.99 -3.98 11.99 -6 13 C-6 11.68 -6 10.36 -6 9 C-6.66 9 -7.32 9 -8 9 C-7.67 7.35 -7.34 5.7 -7 4 C-5.68 4 -4.36 4 -3 4 C-1.22590192 2.07977297 -1.22590192 2.07977297 0 0 Z " fill="#2A4561" transform="translate(103,71)"/>
<path d="M0 0 C0.33 0 0.66 0 1 0 C1 8.91 1 17.82 1 27 C0.34 27 -0.32 27 -1 27 C-2.32229189 24.35541621 -2.09677194 22.32238699 -2.0625 19.375 C-2.05347656 18.37210938 -2.04445313 17.36921875 -2.03515625 16.3359375 C-2.02355469 15.56507813 -2.01195313 14.79421875 -2 14 C-1.67 14 -1.34 14 -1 14 C-0.67 9.38 -0.34 4.76 0 0 Z " fill="#33475A" transform="translate(90,130)"/>
<path d="M0 0 C0.33 1.32 0.66 2.64 1 4 C1.33 4 1.66 4 2 4 C3.33568021 4.32380126 4.66923011 4.65657551 6 5 C5.67 5.99 5.34 6.98 5 8 C2.36 8.33 -0.28 8.66 -3 9 C-3.33 9.99 -3.66 10.98 -4 12 C-4.66 12 -5.32 12 -6 12 C-5.6875 9.625 -5.6875 9.625 -5 7 C-4.01 6.34 -3.02 5.68 -2 5 C-0.79549696 2.44816596 -0.79549696 2.44816596 0 0 Z " fill="#4E6F8F" transform="translate(112,40)"/>
<path d="M0 0 C0.66 0.33 1.32 0.66 2 1 C2.625 3.5625 2.625 3.5625 3 6 C2.34 6 1.68 6 1 6 C1 6.66 1 7.32 1 8 C-2.63 8 -6.26 8 -10 8 C-10 7.34 -10 6.68 -10 6 C-9.16855469 5.72736328 -9.16855469 5.72736328 -8.3203125 5.44921875 C-7.59585938 5.19785156 -6.87140625 4.94648437 -6.125 4.6875 C-5.40570313 4.44386719 -4.68640625 4.20023438 -3.9453125 3.94921875 C-1.66005095 3.03664453 -1.66005095 3.03664453 0 0 Z " fill="#3C5977" transform="translate(75,38)"/>
<path d="M0 0 C1.98 0 3.96 0 6 0 C5.01 0.66 4.02 1.32 3 2 C2.49111508 3.95956033 2.49111508 3.95956033 2.4375 6.1875 C2.11172089 10.38190609 1.27735786 13.99761204 0 18 C-0.33 18 -0.66 18 -1 18 C-1.02717692 15.93757383 -1.0464758 13.87504297 -1.0625 11.8125 C-1.07410156 10.66394531 -1.08570313 9.51539062 -1.09765625 8.33203125 C-1.01192832 5.40699414 -0.67849023 2.83683709 0 0 Z " fill="#7793AC" transform="translate(64,79)"/>
<path d="M0 0 C0.99 0 1.98 0 3 0 C3.10152799 6.7685324 3.03026944 13.30324864 2 20 C1.67 20 1.34 20 1 20 C-0.03026944 13.30324864 -0.10152799 6.7685324 0 0 Z " fill="#32445A" transform="translate(89,108)"/>
<path d="M0 0 C0.33 0 0.66 0 1 0 C1.05802698 3.43742918 1.09360486 6.87473253 1.125 10.3125 C1.15013672 11.77719727 1.15013672 11.77719727 1.17578125 13.27148438 C1.18222656 14.20927734 1.18867188 15.14707031 1.1953125 16.11328125 C1.20578613 16.97735596 1.21625977 17.84143066 1.22705078 18.73168945 C1 21 1 21 -1 24 C-1.66 24 -2.32 24 -3 24 C-2 16 -1 8 0 0 Z " fill="#647D91" transform="translate(131,88)"/>
<path d="M0 0 C1.98 0 3.96 0 6 0 C6 2.31 6 4.62 6 7 C4.35 7.66 2.7 8.32 1 9 C0.67 6.03 0.34 3.06 0 0 Z " fill="#4A6582" transform="translate(61,208)"/>
<path d="M0 0 C0.66 0.33 1.32 0.66 2 1 C2.05404449 3.75026417 2.09369306 6.49946203 2.125 9.25 C2.15013672 10.41595703 2.15013672 10.41595703 2.17578125 11.60546875 C2.23662606 18.72431144 2.23662606 18.72431144 0 22 C-3.01215718 15.97568564 -0.99983645 6.49893695 0 0 Z " fill="#7692A9" transform="translate(62,46)"/>
<path d="M0 0 C0.99 0 1.98 0 3 0 C3 1.65 3 3.3 3 5 C3.66 5 4.32 5 5 5 C4.67 5.66 4.34 6.32 4 7 C3.01 7 2.02 7 1 7 C1.309375 7.61875 1.61875 8.2375 1.9375 8.875 C2.625 10.25 3.3125 11.625 4 13 C2.68 13.33 1.36 13.66 0 14 C-0.91448257 10.91362132 -1 8.20369611 -1 5 C-1.33 4.34 -1.66 3.68 -2 3 C-1.34 2.01 -0.68 1.02 0 0 Z " fill="#6381A0" transform="translate(84,27)"/>
<path d="M0 0 C0.66 0.66 1.32 1.32 2 2 C-6.58 2.33 -15.16 2.66 -24 3 C-24 2.34 -24 1.68 -24 1 C-22.64455078 0.90912109 -22.64455078 0.90912109 -21.26171875 0.81640625 C-19.49248047 0.69072266 -19.49248047 0.69072266 -17.6875 0.5625 C-15.92986328 0.44068359 -15.92986328 0.44068359 -14.13671875 0.31640625 C-4.02791332 -0.70328645 -4.02791332 -0.70328645 0 0 Z " fill="#D3DDE5" transform="translate(92,20)"/>
<path d="M0 0 C0.66 0 1.32 0 2 0 C2 3.96 2 7.92 2 12 C1.34 12 0.68 12 0 12 C0 12.66 0 13.32 0 14 C-1.65 14.33 -3.3 14.66 -5 15 C-4.6875 12.625 -4.6875 12.625 -4 10 C-3.01 9.34 -2.02 8.68 -1 8 C-1 8.66 -1 9.32 -1 10 C-0.34 10 0.32 10 1 10 C0.835 8.906875 0.67 7.81375 0.5 6.6875 C0 3 0 3 0 0 Z " fill="#4B667D" transform="translate(133,154)"/>
<path d="M0 0 C0.33 0 0.66 0 1 0 C1 5.28 1 10.56 1 16 C-0.32 16.33 -1.64 16.66 -3 17 C-2.67 17.99 -2.34 18.98 -2 20 C-3.9375 19.25 -3.9375 19.25 -6 18 C-6.75 15.875 -6.75 15.875 -7 14 C-4.525 14.495 -4.525 14.495 -2 15 C-2 14.01 -2 13.02 -2 12 C-1.34 12 -0.68 12 0 12 C0 8.04 0 4.08 0 0 Z " fill="#374C64" transform="translate(92,214)"/>
<path d="M0 0 C0.33 0 0.66 0 1 0 C1.05399736 1.45792884 1.09279177 2.91642712 1.125 4.375 C1.14820313 5.18710938 1.17140625 5.99921875 1.1953125 6.8359375 C1 9 1 9 -1 11 C-1.99 11 -2.98 11 -4 11 C-4.1953125 4.9453125 -4.1953125 4.9453125 -4 3 C-3.34 2.34 -2.68 1.68 -2 1 C-2 1.66 -2 2.32 -2 3 C-1.34 3 -0.68 3 0 3 C0 2.01 0 1.02 0 0 Z " fill="#6E869A" transform="translate(132,69)"/>
<path d="M0 0 C1.65 0 3.3 0 5 0 C5.95857987 3.72781062 5.88258542 6.27352821 5 10 C5 10.99 5 11.98 5 13 C4.01 13 3.02 13 2 13 C2 9.37 2 5.74 2 2 C1.34 2 0.68 2 0 2 C0 1.34 0 0.68 0 0 Z " fill="#5E7C95" transform="translate(107,89)"/>
<path d="M0 0 C1.65 0 3.3 0 5 0 C5.33 1.65 5.66 3.3 6 5 C4.35 5 2.7 5 1 5 C1 6.32 1 7.64 1 9 C1.66 9.33 2.32 9.66 3 10 C2.01 10.99 1.02 11.98 0 13 C0 8.71 0 4.42 0 0 Z " fill="#314C6A" transform="translate(97,36)"/>
<path d="M0 0 C2 1 2 1 3 3 C3.66 3.66 4.32 4.32 5 5 C4.01 5.495 4.01 5.495 3 6 C2.53045739 9.04581269 2.53045739 9.04581269 2.375 12.5625 C2.30023438 13.76003906 2.22546875 14.95757812 2.1484375 16.19140625 C2.09945312 17.11824219 2.05046875 18.04507813 2 19 C1.67 19 1.34 19 1 19 C0.63528645 16.77253461 0.28364028 14.54292708 -0.0625 12.3125 C-0.25972656 11.07113281 -0.45695312 9.82976562 -0.66015625 8.55078125 C-0.96752656 5.33929143 -0.84273231 3.08216081 0 0 Z " fill="#607F98" transform="translate(61,152)"/>
<path d="M0 0 C0.33 0 0.66 0 1 0 C1 13.375 1 13.375 -1 17 C-2.80864343 13.15663271 -3.43280993 10.24153732 -3 6 C-1.5 2.625 -1.5 2.625 0 0 Z " fill="#607B97" transform="translate(96,59)"/>
<path d="M0 0 C2 1 2 1 2.9375 3.5 C3.288125 4.325 3.63875 5.15 4 6 C4.99 6.33 5.98 6.66 7 7 C7 7.66 7 8.32 7 9 C7.66 9 8.32 9 9 9 C9 9.66 9 10.32 9 11 C7.35 10.67 5.7 10.34 4 10 C4 9.34 4 8.68 4 8 C1.36 7.34 -1.28 6.68 -4 6 C-3.34 5.67 -2.68 5.34 -2 5 C-2 4.34 -2 3.68 -2 3 C-1.34 2.67 -0.68 2.34 0 2 C0 1.34 0 0.68 0 0 Z " fill="#355472" transform="translate(111,33)"/>
<path d="M0 0 C0.33 0 0.66 0 1 0 C1 6.27 1 12.54 1 19 C0.34 19 -0.32 19 -1 19 C-2.26561394 16.46877212 -1.94193763 15.10926042 -1.625 12.3125 C-1.52574219 11.42433594 -1.42648438 10.53617188 -1.32421875 9.62109375 C-0.92651786 6.40594556 -0.48737918 3.20277747 0 0 Z " fill="#687E90" transform="translate(131,53)"/>
<path d="M0 0 C2.475 0.495 2.475 0.495 5 1 C5.66 2.98 6.32 4.96 7 7 C5.35 7.66 3.7 8.32 2 9 C1.34 6.03 0.68 3.06 0 0 Z " fill="#6B85A1" transform="translate(68,29)"/>
<path d="M0 0 C0.33 0 0.66 0 1 0 C1.06058594 0.69867188 1.12117188 1.39734375 1.18359375 2.1171875 C1.26738281 3.02726563 1.35117188 3.93734375 1.4375 4.875 C1.51871094 5.77992188 1.59992188 6.68484375 1.68359375 7.6171875 C1.86989285 10.01110861 1.86989285 10.01110861 3 12 C3.99 12 4.98 12 6 12 C5.1875 13.9375 5.1875 13.9375 4 16 C3.01 16.33 2.02 16.66 1 17 C0 16 0 16 -0.09765625 12.40234375 C-0.0909822 10.91403133 -0.07902183 9.42573568 -0.0625 7.9375 C-0.05798828 7.17888672 -0.05347656 6.42027344 -0.04882812 5.63867188 C-0.0370068 3.75908129 -0.01907078 1.87953101 0 0 Z " fill="#405975" transform="translate(100,132)"/>
<path d="M0 0 C0.33 0 0.66 0 1 0 C1 3.63 1 7.26 1 11 C0.34 10.01 -0.32 9.02 -1 8 C-1.99 8.33 -2.98 8.66 -4 9 C-4.73323796 11.01508358 -4.73323796 11.01508358 -5 13 C-5.99 13 -6.98 13 -8 13 C-7.525625 12.278125 -7.05125 11.55625 -6.5625 10.8125 C-5.05847097 8.10524774 -4.43400818 6.03805725 -4 3 C-2.68 2.67 -1.36 2.34 0 2 C0 1.34 0 0.68 0 0 Z " fill="#617D99" transform="translate(104,45)"/>
<path d="M0 0 C0.99 0.33 1.98 0.66 3 1 C3.16873478 2.43725871 3.33490737 3.87481838 3.5 5.3125 C3.5928125 6.11300781 3.685625 6.91351563 3.78125 7.73828125 C4 10 4 10 4 13 C3.01 13 2.02 13 1 13 C-0.00496852 9.98509443 -0.10335303 7.95818308 -0.0625 4.8125 C-0.05347656 3.91144531 -0.04445313 3.01039063 -0.03515625 2.08203125 C-0.02355469 1.39496094 -0.01195313 0.70789063 0 0 Z " fill="#3D576F" transform="translate(99,175)"/>
<path d="M0 0 C1.81332154 0.30769707 3.62564345 0.62129064 5.4375 0.9375 C6.95150391 1.19853516 6.95150391 1.19853516 8.49609375 1.46484375 C11 2 11 2 12 3 C12.04063832 4.66617115 12.042721 6.33388095 12 8 C9.03 7.505 9.03 7.505 6 7 C6.99 6.01 7.98 5.02 9 4 C4.545 3.01 4.545 3.01 0 2 C0 1.34 0 0.68 0 0 Z " fill="#698198" transform="translate(118,40)"/>
<path d="M0 0 C0.33 1.32 0.66 2.64 1 4 C3.97 4.33 6.94 4.66 10 5 C10 5.33 10 5.66 10 6 C7.70890403 6.08075665 5.41700733 6.13907731 3.125 6.1875 C1.21074219 6.23970703 1.21074219 6.23970703 -0.7421875 6.29296875 C-1.81726563 6.19628906 -2.89234375 6.09960938 -4 6 C-4.66 5.01 -5.32 4.02 -6 3 C-4 2 -2 1 0 0 Z " fill="#E7EAEF" transform="translate(100,16)"/>
<path d="M0 0 C0.89203125 0.10183594 1.7840625 0.20367187 2.703125 0.30859375 C3.37859375 0.39238281 4.0540625 0.47617188 4.75 0.5625 C4.75 1.2225 4.75 1.8825 4.75 2.5625 C2.79235617 2.75706705 0.83384679 2.94294247 -1.125 3.125 C-2.21554688 3.22941406 -3.30609375 3.33382812 -4.4296875 3.44140625 C-7.25 3.5625 -7.25 3.5625 -9.25 2.5625 C-9.25 1.9025 -9.25 1.2425 -9.25 0.5625 C-5.98086376 -0.46865279 -3.38958652 -0.4013984 0 0 Z " fill="#5B7999" transform="translate(83.25,68.4375)"/>
<path d="M0 0 C0.66 0 1.32 0 2 0 C1.67 0.66 1.34 1.32 1 2 C0.67 1.34 0.34 0.68 0 0 Z M3 3 C2.67 3.99 2.34 4.98 2 6 C2.66 6.66 3.32 7.32 4 8 C1.36 8 -1.28 8 -4 8 C-3.625 5.5625 -3.625 5.5625 -3 3 C-0.50907189 1.75453595 0.41080733 2.2232422 3 3 Z " fill="#5E7A94" transform="translate(82,88)"/>
<path d="M0 0 C3.3 0.33 6.6 0.66 10 1 C9 4 9 4 7 6 C6.01 6 5.02 6 4 6 C4 4.68 4 3.36 4 2 C2.68 2.33 1.36 2.66 0 3 C0 2.01 0 1.02 0 0 Z " fill="#415772" transform="translate(83,25)"/>
<path d="M0 0 C4.455 0.99 4.455 0.99 9 2 C9 2.99 9 3.98 9 5 C6.03 5 3.06 5 0 5 C0 3.35 0 1.7 0 0 Z " fill="#324057" transform="translate(84,233)"/>
<path d="M0 0 C0.66 0.33 1.32 0.66 2 1 C2.08086147 2.79093191 2.13912702 4.58289628 2.1875 6.375 C2.22230469 7.37273437 2.25710937 8.37046875 2.29296875 9.3984375 C2.19628906 10.25695312 2.09960938 11.11546875 2 12 C1.01 12.66 0.02 13.32 -1 14 C-1.027193 12.41676312 -1.04648306 10.83338938 -1.0625 9.25 C-1.07410156 8.36828125 -1.08570312 7.4865625 -1.09765625 6.578125 C-1.00826198 4.2181162 -0.66912821 2.25501476 0 0 Z " fill="#46627E" transform="translate(100,98)"/>
<path d="M0 0 C0.66 0 1.32 0 2 0 C2 0.66 2 1.32 2 2 C3.65 2 5.3 2 7 2 C7 2.66 7 3.32 7 4 C6.34 4 5.68 4 5 4 C5 4.66 5 5.32 5 6 C4.34 6 3.68 6 3 6 C3 5.34 3 4.68 3 4 C2.34 4 1.68 4 1 4 C0.67 2.68 0.34 1.36 0 0 Z M-2 2 C-1.34 2.33 -0.68 2.66 0 3 C-1 4 -1 4 -3.5625 4.0625 C-4.7690625 4.0315625 -4.7690625 4.0315625 -6 4 C-4.125 2.9375 -4.125 2.9375 -2 2 Z " fill="#5B7B9B" transform="translate(76,44)"/>
<path d="M0 0 C-0.33 0.99 -0.66 1.98 -1 3 C-3.31 3.33 -5.62 3.66 -8 4 C-7.625 2.0625 -7.625 2.0625 -7 0 C-4.3333581 -1.33332095 -2.83319697 -0.67102033 0 0 Z " fill="#4D647B" transform="translate(68,234)"/>
<path d="M0 0 C0.33 0 0.66 0 1 0 C1.33 2.64 1.66 5.28 2 8 C2.66 6.68 3.32 5.36 4 4 C4 6.97 4 9.94 4 13 C2.68 13.33 1.36 13.66 0 14 C0 9.38 0 4.76 0 0 Z " fill="#435B78" transform="translate(100,114)"/>
<path d="M0 0 C0.66 0 1.32 0 2 0 C2.33 1.98 2.66 3.96 3 6 C2.01 6.33 1.02 6.66 0 7 C0.33 7.99 0.66 8.98 1 10 C0.34 10 -0.32 10 -1 10 C-1.66 8.02 -2.32 6.04 -3 4 C-2.34 4 -1.68 4 -1 4 C-0.67 2.68 -0.34 1.36 0 0 Z " fill="#8497B1" transform="translate(76,27)"/>
<path d="M0 0 C0.66 0 1.32 0 2 0 C6 6.75 6 6.75 6 9 C5.01 9 4.02 9 3 9 C3 8.34 3 7.68 3 7 C2.01 7 1.02 7 0 7 C0 4.69 0 2.38 0 0 Z " fill="#3C4D62" transform="translate(99,226)"/>
<path d="M0 0 C0.33 0 0.66 0 1 0 C1 3.96 1 7.92 1 12 C0.01 12.33 -0.98 12.66 -2 13 C-1.67 10.69 -1.34 8.38 -1 6 C-1.66 6 -2.32 6 -3 6 C-3.33 6.66 -3.66 7.32 -4 8 C-4 7.01 -4 6.02 -4 5 C-3.01 5 -2.02 5 -1 5 C-0.67 3.35 -0.34 1.7 0 0 Z " fill="#4C6682" transform="translate(83,31)"/>
<path d="M0 0 C2.31 0 4.62 0 7 0 C6.34 0.66 5.68 1.32 5 2 C5.3185177 4.10820797 5.3185177 4.10820797 6 6 C4.35 6.33 2.7 6.66 1 7 C0.67 4.69 0.34 2.38 0 0 Z " fill="#9CACBB" transform="translate(92,23)"/>
<path d="M0 0 C2.1492788 4.2985576 2.08225293 6.31158282 2 11 C2.28520405 12.67557379 2.59955696 14.34817245 3 16 C2.01 16 1.02 16 0 16 C0 10.72 0 5.44 0 0 Z " fill="#5E6D82" transform="translate(99,144)"/>
<path d="M0 0 C0.33 0 0.66 0 1 0 C1.12375 0.94875 1.2475 1.8975 1.375 2.875 C1.71687177 6.08667191 1.71687177 6.08667191 4 8 C4.75 10 4.75 10 5 12 C4.34 12.66 3.68 13.32 3 14 C2.67 12.68 2.34 11.36 2 10 C1.34 10 0.68 10 0 10 C0 6.7 0 3.4 0 0 Z " fill="#607388" transform="translate(99,216)"/>
<path d="M0 0 C0.99 0.33 1.98 0.66 3 1 C3.74513723 3.09993221 4 4.77431099 4 7 C4.33 7.66 4.66 8.32 5 9 C3.125 8.875 3.125 8.875 1 8 C-0.3125 5.0625 -0.3125 5.0625 -1 2 C-0.67 1.34 -0.34 0.68 0 0 Z " fill="#59758F" transform="translate(113,31)"/>
<path d="M0 0 C0.33 1.32 0.66 2.64 1 4 C1.66 4 2.32 4 3 4 C2.67 5.65 2.34 7.3 2 9 C0.68 9.33 -0.64 9.66 -2 10 C-2.33 8.35 -2.66 6.7 -3 5 C-2.34 5 -1.68 5 -1 5 C-0.67 3.35 -0.34 1.7 0 0 Z " fill="#73889A" transform="translate(94,25)"/>
<path d="M0 0 C0.33 0 0.66 0 1 0 C1 4.29 1 8.58 1 13 C0.67 13 0.34 13 0 13 C0 11.02 0 9.04 0 7 C-1.32 7.33 -2.64 7.66 -4 8 C-4 7.34 -4 6.68 -4 6 C-3.34 6 -2.68 6 -2 6 C-1.34 4.02 -0.68 2.04 0 0 Z " fill="#E1E7EE" transform="translate(98,187)"/>
<path d="M0 0 C0.99 0.33 1.98 0.66 3 1 C2.67 3.97 2.34 6.94 2 10 C1.01 10 0.02 10 -1 10 C-1.125 3.375 -1.125 3.375 0 0 Z " fill="#5E7E9B" transform="translate(111,78)"/>
<path d="M0 0 C0.33 0 0.66 0 1 0 C1 1.98 1 3.96 1 6 C1.66 6 2.32 6 3 6 C3 6.66 3 7.32 3 8 C2.01 8 1.02 8 0 8 C-0.33 9.32 -0.66 10.64 -1 12 C-1.66 10.02 -2.32 8.04 -3 6 C-2.34 5.67 -1.68 5.34 -1 5 C-0.34444881 2.47266765 -0.34444881 2.47266765 0 0 Z " fill="#6B7F98" transform="translate(79,28)"/>
<path d="M0 0 C-1.32 1.32 -2.64 2.64 -4 4 C-4 3.34 -4 2.68 -4 2 C-6.64 2.33 -9.28 2.66 -12 3 C-12 2.34 -12 1.68 -12 1 C-8.0186217 -0.3271261 -4.14954773 -0.06915913 0 0 Z " fill="#3C556B" transform="translate(122,24)"/>
<path d="M0 0 C0.33 0 0.66 0 1 0 C1 3.96 1 7.92 1 12 C0.34 11.67 -0.32 11.34 -1 11 C-1.484375 9.00390625 -1.484375 9.00390625 -1.75 6.5625 C-1.84796875 5.75941406 -1.9459375 4.95632812 -2.046875 4.12890625 C-2 2 -2 2 0 0 Z " fill="#688398" transform="translate(128,141)"/>
<path d="M0 0 C0.66 0.33 1.32 0.66 2 1 C1.34 2.32 0.68 3.64 0 5 C-0.66 5 -1.32 5 -2 5 C-2.33 6.32 -2.66 7.64 -3 9 C-3.66 8.67 -4.32 8.34 -5 8 C-3.62845496 5.04590299 -2.01136276 2.55991624 0 0 Z " fill="#294A6C" transform="translate(103,71)"/>
<path d="M0 0 C-1.65 1.65 -3.3 3.3 -5 5 C-5.99 4.67 -6.98 4.34 -8 4 C-7 1 -7 1 -4.5625 -0.25 C-2 -1 -2 -1 0 0 Z " fill="#4D6783" transform="translate(75,37)"/>
<path d="M0 0 C2.97 0 5.94 0 9 0 C8.67 0.66 8.34 1.32 8 2 C6.02 2 4.04 2 2 2 C1.34 3.32 0.68 4.64 0 6 C0 4.02 0 2.04 0 0 Z " fill="#8197B2" transform="translate(95,34)"/>
<path d="M0 0 C0.99 0.33 1.98 0.66 3 1 C3 2.65 3 4.3 3 6 C2.34 6 1.68 6 1 6 C0.67 7.32 0.34 8.64 0 10 C0 6.7 0 3.4 0 0 Z " fill="#465E76" transform="translate(98,90)"/>
<path d="M0 0 C0.99 0 1.98 0 3 0 C3 1.98 3 3.96 3 6 C1.68 6 0.36 6 -1 6 C-0.67 4.02 -0.34 2.04 0 0 Z " fill="#3C678F" transform="translate(101,80)"/>
<path d="M0 0 C0.99 0.33 1.98 0.66 3 1 C2.67 2.65 2.34 4.3 2 6 C0.68 5.67 -0.64 5.34 -2 5 C-2.33 5.99 -2.66 6.98 -3 8 C-3 6.68 -3 5.36 -3 4 C-2.34 3.67 -1.68 3.34 -1 3 C-0.67 2.01 -0.34 1.02 0 0 Z " fill="#365B7F" transform="translate(104,72)"/>
<path d="M0 0 C1.125 1.6875 1.125 1.6875 2 4 C1.125 6.75 1.125 6.75 0 9 C-0.66 9 -1.32 9 -2 9 C-2.25 3.375 -2.25 3.375 0 0 Z " fill="#95ACBF" transform="translate(65,32)"/>
<path d="M0 0 C0.99 0 1.98 0 3 0 C3 1.65 3 3.3 3 5 C2.01 5.33 1.02 5.66 0 6 C-0.66 5.67 -1.32 5.34 -2 5 C-1.34 3.35 -0.68 1.7 0 0 Z " fill="#758BA6" transform="translate(84,27)"/>
<path d="M0 0 C0.66 0 1.32 0 2 0 C2.1875 3.375 2.1875 3.375 2 7 C1.01 7.66 0.02 8.32 -1 9 C-0.67 6.03 -0.34 3.06 0 0 Z " fill="#DCE8F0" transform="translate(95,80)"/>
<path d="M0 0 C1.98 0 3.96 0 6 0 C5.01 0.66 4.02 1.32 3 2 C2.42006301 4.19454681 2.42006301 4.19454681 2.3125 6.625 C2.24675781 7.44226563 2.18101563 8.25953125 2.11328125 9.1015625 C2.05720703 10.04128906 2.05720703 10.04128906 2 11 C1.67 11 1.34 11 1 11 C0.67 7.37 0.34 3.74 0 0 Z " fill="#728CA5" transform="translate(64,79)"/>
<path d="M0 0 C-0.33 0.99 -0.66 1.98 -1 3 C-0.34 3.33 0.32 3.66 1 4 C-2.14737182 3.30058404 -5.02588876 2.23921302 -8 1 C-4.93251126 -0.86240388 -3.40254489 -1.2151946 0 0 Z " fill="#516C8D" transform="translate(76,28)"/>
<path d="M0 0 C2.31 0 4.62 0 7 0 C7 0.99 7 1.98 7 3 C5.02 3 3.04 3 1 3 C0.67 2.01 0.34 1.02 0 0 Z " fill="#313F51" transform="translate(131,235)"/>
<path d="M0 0 C0.99 0 1.98 0 3 0 C3 0.66 3 1.32 3 2 C3.66 2 4.32 2 5 2 C5 2.99 5 3.98 5 5 C3.35 4.67 1.7 4.34 0 4 C0 2.68 0 1.36 0 0 Z " fill="#5A6979" transform="translate(99,233)"/>
<path d="M0 0 C0.33 0 0.66 0 1 0 C1.62289134 4.74954648 2 9.20714157 2 14 C1.34 14 0.68 14 0 14 C0 9.38 0 4.76 0 0 Z " fill="#5B799C" transform="translate(59,219)"/>
<path d="M0 0 C3.93846154 3.32307692 3.93846154 3.32307692 4.25 6.75 C4.1675 7.4925 4.085 8.235 4 9 C3.01 8.67 2.02 8.34 1 8 C0.67 5.36 0.34 2.72 0 0 Z " fill="#4B637F" transform="translate(95,67)"/>
<path d="M0 0 C0.33 1.32 0.66 2.64 1 4 C-1.31 4 -3.62 4 -6 4 C-4 1 -4 1 -1.875 0.3125 C-1.25625 0.209375 -0.6375 0.10625 0 0 Z " fill="#547696" transform="translate(111,61)"/>
<path d="M0 0 C1.98 0.66 3.96 1.32 6 2 C6 2.66 6 3.32 6 4 C3.03 3.67 0.06 3.34 -3 3 C-2.01 2.67 -1.02 2.34 0 2 C0 1.34 0 0.68 0 0 Z " fill="#4A637A" transform="translate(123,38)"/>
<path d="M0 0 C1.65 0 3.3 0 5 0 C5.33 1.65 5.66 3.3 6 5 C5.01 5.33 4.02 5.66 3 6 C2.67 5.34 2.34 4.68 2 4 C2.66 4 3.32 4 4 4 C3.34 3.34 2.68 2.68 2 2 C1.34 1.34 0.68 0.68 0 0 Z " fill="#526885" transform="translate(102,28)"/>
<path d="M0 0 C1.65 0 3.3 0 5 0 C5 1.65 5 3.3 5 5 C4.01 5 3.02 5 2 5 C1.34 3.35 0.68 1.7 0 0 Z " fill="#4A5B76" transform="translate(88,230)"/>
<path d="M0 0 C-0.33 0.99 -0.66 1.98 -1 3 C-1.99 3 -2.98 3 -4 3 C-4.33 3.99 -4.66 4.98 -5 6 C-5 5.34 -5 4.68 -5 4 C-5.66 4 -6.32 4 -7 4 C-7 3.34 -7 2.68 -7 2 C-2.25 0 -2.25 0 0 0 Z " fill="#3D5E7C" transform="translate(114,64)"/>
<path d="M0 0 C0.66 0.99 1.32 1.98 2 3 C1.67 3.66 1.34 4.32 1 5 C-1.97 5 -4.94 5 -8 5 C-8 4.67 -8 4.34 -8 4 C-5.69 4 -3.38 4 -1 4 C-0.67 2.68 -0.34 1.36 0 0 Z " fill="#4E5E73" transform="translate(83,233)"/>
<path d="M0 0 C0.99 0.33 1.98 0.66 3 1 C2.34 2.98 1.68 4.96 1 7 C0.34 7 -0.32 7 -1 7 C-0.67 4.69 -0.34 2.38 0 0 Z " fill="#486A88" transform="translate(88,47)"/>
<path d="M0 0 C1.98 0 3.96 0 6 0 C6 1.65 6 3.3 6 5 C4.68 4.67 3.36 4.34 2 4 C2.33 3.34 2.66 2.68 3 2 C2.01 1.34 1.02 0.68 0 0 Z " fill="#5C7282" transform="translate(117,23)"/>
</svg>
