<?xml version="1.0" encoding="UTF-8"?>
<!DOCTYPE svg PUBLIC "-//W3C//DTD SVG 1.1//EN" "http://www.w3.org/Graphics/SVG/1.1/DTD/svg11.dtd">
<svg xmlns="http://www.w3.org/2000/svg" version="1.1" width="500px" height="500px" style="shape-rendering:geometricPrecision; text-rendering:geometricPrecision; image-rendering:optimizeQuality; fill-rule:evenodd; clip-rule:evenodd" xmlns:xlink="http://www.w3.org/1999/xlink">
<g><path style="opacity:1" fill="#fefefe" d="M -0.5,-0.5 C 166.167,-0.5 332.833,-0.5 499.5,-0.5C 499.5,166.167 499.5,332.833 499.5,499.5C 332.833,499.5 166.167,499.5 -0.5,499.5C -0.5,332.833 -0.5,166.167 -0.5,-0.5 Z"/></g>
<g><path style="opacity:1" fill="#f4e5fc" d="M 237.5,74.5 C 228.983,74.1739 220.65,74.5073 212.5,75.5C 210.833,75.5 209.167,75.5 207.5,75.5C 212.119,74.1725 217.119,73.5058 222.5,73.5C 227.678,73.5007 232.678,73.834 237.5,74.5 Z"/></g>
<g><path style="opacity:1" fill="#e5d9eb" d="M 207.5,75.5 C 200.156,76.1771 192.822,77.5105 185.5,79.5C 192.328,75.5837 199.661,74.2504 207.5,75.5 Z"/></g>
<g><path style="opacity:1" fill="#925fca" d="M 207.5,75.5 C 209.167,75.5 210.833,75.5 212.5,75.5C 220.167,75.5 227.833,75.5 235.5,75.5C 236.453,95.8065 236.786,116.14 236.5,136.5C 231.9,136.28 227.567,136.946 223.5,138.5C 217.032,140.585 210.365,142.252 203.5,143.5C 198.23,143.216 193.397,144.55 189,147.5C 186.131,146.433 183.297,146.433 180.5,147.5C 182.297,148.695 183.297,150.362 183.5,152.5C 174.145,158.189 166.812,165.856 161.5,175.5C 159.952,175.821 159.285,176.821 159.5,178.5C 159.737,179.791 159.404,180.791 158.5,181.5C 157.25,181.577 156.417,182.244 156,183.5C 155.503,186.146 155.336,188.813 155.5,191.5C 153.74,194.701 152.906,198.367 153,202.5C 152.175,212.342 152.342,222.009 153.5,231.5C 154.918,233.308 156.918,233.975 159.5,233.5C 176.328,234.332 193.328,234.832 210.5,235C 211.38,236.356 211.714,237.856 211.5,239.5C 210.833,287.5 210.167,335.5 209.5,383.5C 208.833,191.5 208.167,191.5 207.5,383.5C 207.833,384.167 208.167,384.833 208.5,385.5C 207.662,385.842 207.328,386.508 207.5,387.5C 159.5,387.5 111.5,387.5 63.5,387.5C 61.8333,386.167 60.1667,384.833 58.5,383.5C 59.1499,383.804 59.8165,384.137 60.5,384.5C 61.6666,333.17 61.8333,281.837 61,230.5C 60.5939,233.742 59.7605,236.742 58.5,239.5C 58.7087,229.828 59.042,220.161 59.5,210.5C 60.1915,203.043 61.5248,195.71 63.5,188.5C 67.0033,184.969 68.3366,180.636 67.5,175.5C 68.5,175.5 69.5,175.5 70.5,175.5C 73.0127,169.131 74.6794,162.464 75.5,155.5C 78.9868,154.555 80.3201,152.222 79.5,148.5C 93.0771,124.592 112.41,106.925 137.5,95.5C 145.061,94.0872 152.394,92.0872 159.5,89.5C 159.5,88.5 159.5,87.5 159.5,86.5C 162.85,86.665 166.183,86.4983 169.5,86C 170.167,85.3333 170.833,84.6667 171.5,84C 175.918,83.7923 180.251,83.1256 184.5,82C 185.252,81.3292 185.586,80.4959 185.5,79.5C 192.822,77.5105 200.156,76.1771 207.5,75.5 Z"/></g>
<g><path style="opacity:1" fill="#9a74bf" d="M 431.5,75.5 C 427.902,77.2177 423.902,78.3844 419.5,79C 415.514,79.4988 411.514,79.6655 407.5,79.5C 415.153,76.8714 423.153,75.5381 431.5,75.5 Z"/></g>
<g><path style="opacity:1" fill="#935fca" d="M 431.5,75.5 C 439.833,75.5 448.167,75.5 456.5,75.5C 456.5,95.8333 456.5,116.167 456.5,136.5C 453.123,136.068 450.123,136.735 447.5,138.5C 438.207,140.509 428.874,142.843 419.5,145.5C 416.729,145.421 414.063,145.921 411.5,147C 410.177,147.816 409.511,148.983 409.5,150.5C 386.622,162.308 374.955,181.308 374.5,207.5C 373.787,214.857 373.12,222.357 372.5,230C 372.735,230.873 373.069,231.707 373.5,232.5C 393.898,233.178 414.231,233.844 434.5,234.5C 434.5,284.833 434.5,335.167 434.5,385.5C 433.711,385.783 433.044,386.283 432.5,387C 383.998,387.832 335.665,387.665 287.5,386.5C 287.5,386.167 287.5,385.833 287.5,385.5C 479.5,384.833 479.5,384.167 287.5,383.5C 287.167,191.5 286.833,191.5 286.5,383.5C 285.5,383.5 284.5,383.5 283.5,383.5C 283.458,328.96 283.458,274.46 283.5,220C 283.546,218.272 283.046,216.772 282,215.5C 281.722,216.416 281.222,217.082 280.5,217.5C 280.343,216.127 280.51,214.793 281,213.5C 281.667,212.167 282.333,212.167 283,213.5C 283.478,206.159 283.978,198.826 284.5,191.5C 285.23,185.915 286.563,180.582 288.5,175.5C 289.5,175.5 290.5,175.5 291.5,175.5C 291.34,173.801 291.506,172.134 292,170.5C 293.77,167.958 295.27,165.291 296.5,162.5C 299.176,165.851 301.343,169.518 303,173.5C 303.167,172.167 303.333,170.833 303.5,169.5C 302.304,166.213 301.304,162.879 300.5,159.5C 299.325,159.719 298.325,159.386 297.5,158.5C 298.516,155.145 299.516,151.812 300.5,148.5C 300.975,146.216 301.975,144.216 303.5,142.5C 305.455,143.323 307.455,143.49 309.5,143C 308.424,141.274 308.257,139.441 309,137.5C 310.694,135.76 311.861,133.76 312.5,131.5C 313.833,131.5 315.167,131.5 316.5,131.5C 316.5,133.167 316.5,134.833 316.5,136.5C 315.5,136.5 314.5,136.5 313.5,136.5C 313.116,138.665 313.783,140.332 315.5,141.5C 316.065,139.49 317.065,137.824 318.5,136.5C 319.466,134.604 319.799,132.604 319.5,130.5C 318.5,130.5 317.5,130.5 316.5,130.5C 317.043,127.962 318.043,125.628 319.5,123.5C 319.5,123.167 319.5,122.833 319.5,122.5C 323.161,121.352 326.161,119.186 328.5,116C 329.449,115.383 330.282,115.549 331,116.5C 332.778,114.312 334.278,111.979 335.5,109.5C 335.5,109.167 335.5,108.833 335.5,108.5C 339.598,107.728 342.931,105.728 345.5,102.5C 349.347,99.4074 353.68,97.0741 358.5,95.5C 362.409,95.8635 365.409,94.5302 367.5,91.5C 367.842,90.6618 368.508,90.3284 369.5,90.5C 371.857,90.6633 374.19,90.4966 376.5,90C 379.107,88.6478 381.44,87.1478 383.5,85.5C 391.115,82.4436 399.115,80.4436 407.5,79.5C 411.514,79.6655 415.514,79.4988 419.5,79C 423.902,78.3844 427.902,77.2177 431.5,75.5 Z"/></g>
<g><path style="opacity:1" fill="#cfb5e7" d="M 447.5,74.5 C 450.962,73.5184 454.629,73.185 458.5,73.5C 458.5,95.1667 458.5,116.833 458.5,138.5C 457.5,138.5 456.5,138.5 455.5,138.5C 457.471,117.398 458.138,96.065 457.5,74.5C 454.167,74.5 450.833,74.5 447.5,74.5 Z"/></g>
<g><path style="opacity:1" fill="#8c68b5" d="M 431.5,75.5 C 436.64,74.5119 441.974,74.1786 447.5,74.5C 450.833,74.5 454.167,74.5 457.5,74.5C 458.138,96.065 457.471,117.398 455.5,138.5C 452.833,138.5 450.167,138.5 447.5,138.5C 450.123,136.735 453.123,136.068 456.5,136.5C 456.5,116.167 456.5,95.8333 456.5,75.5C 448.167,75.5 439.833,75.5 431.5,75.5 Z"/></g>
<g><path style="opacity:1" fill="#916dbe" d="M 185.5,79.5 C 185.586,80.4959 185.252,81.3292 184.5,82C 180.251,83.1256 175.918,83.7923 171.5,84C 170.833,84.6667 170.167,85.3333 169.5,86C 166.183,86.4983 162.85,86.665 159.5,86.5C 167.728,82.9411 176.395,80.6077 185.5,79.5 Z"/></g>
<g><path style="opacity:1" fill="#956fc0" d="M 383.5,85.5 C 381.44,87.1478 379.107,88.6478 376.5,90C 374.19,90.4966 371.857,90.6633 369.5,90.5C 373.758,87.964 378.424,86.2974 383.5,85.5 Z"/></g>
<g><path style="opacity:1" fill="#8c6bbe" d="M 212.5,75.5 C 220.65,74.5073 228.983,74.1739 237.5,74.5C 237.5,95.5 237.5,116.5 237.5,137.5C 232.819,137.669 228.152,138.002 223.5,138.5C 227.567,136.946 231.9,136.28 236.5,136.5C 236.786,116.14 236.453,95.8065 235.5,75.5C 227.833,75.5 220.167,75.5 212.5,75.5 Z"/></g>
<g><path style="opacity:1" fill="#916dbe" d="M 159.5,86.5 C 159.5,87.5 159.5,88.5 159.5,89.5C 152.394,92.0872 145.061,94.0872 137.5,95.5C 144.337,91.4192 151.67,88.4192 159.5,86.5 Z"/></g>
<g><path style="opacity:1" fill="#906fb8" d="M 367.5,91.5 C 365.409,94.5302 362.409,95.8635 358.5,95.5C 361.088,93.3754 364.088,92.0421 367.5,91.5 Z"/></g>
<g><path style="opacity:1" fill="#9879bd" d="M 345.5,102.5 C 342.931,105.728 339.598,107.728 335.5,108.5C 338.566,106.11 341.9,104.11 345.5,102.5 Z"/></g>
<g><path style="opacity:1" fill="#926fb8" d="M 335.5,109.5 C 334.278,111.979 332.778,114.312 331,116.5C 330.282,115.549 329.449,115.383 328.5,116C 326.161,119.186 323.161,121.352 319.5,122.5C 323.271,119.232 326.938,115.732 330.5,112C 332.078,110.906 333.745,110.072 335.5,109.5 Z"/></g>
<g><path style="opacity:1" fill="#9267c2" d="M 319.5,123.5 C 318.043,125.628 317.043,127.962 316.5,130.5C 317.5,130.5 318.5,130.5 319.5,130.5C 319.799,132.604 319.466,134.604 318.5,136.5C 317.065,137.824 316.065,139.49 315.5,141.5C 313.783,140.332 313.116,138.665 313.5,136.5C 314.5,136.5 315.5,136.5 316.5,136.5C 316.5,134.833 316.5,133.167 316.5,131.5C 315.167,131.5 313.833,131.5 312.5,131.5C 311.861,133.76 310.694,135.76 309,137.5C 308.257,139.441 308.424,141.274 309.5,143C 307.455,143.49 305.455,143.323 303.5,142.5C 308.151,135.491 313.484,129.157 319.5,123.5 Z"/></g>
<g><path style="opacity:1" fill="#9473ba" d="M 419.5,145.5 C 416.241,147.153 412.907,148.819 409.5,150.5C 409.511,148.983 410.177,147.816 411.5,147C 414.063,145.921 416.729,145.421 419.5,145.5 Z"/></g>
<g><path style="opacity:1" fill="#9369bf" d="M 203.5,143.5 C 196.614,145.942 189.947,148.942 183.5,152.5C 183.297,150.362 182.297,148.695 180.5,147.5C 183.297,146.433 186.131,146.433 189,147.5C 193.397,144.55 198.23,143.216 203.5,143.5 Z"/></g>
<g><path style="opacity:1" fill="#a484c2" d="M 79.5,148.5 C 80.3201,152.222 78.9868,154.555 75.5,155.5C 76.0787,152.669 77.412,150.336 79.5,148.5 Z"/></g>
<g><path style="opacity:1" fill="#9466c4" d="M 300.5,148.5 C 299.516,151.812 298.516,155.145 297.5,158.5C 298.325,159.386 299.325,159.719 300.5,159.5C 301.304,162.879 302.304,166.213 303.5,169.5C 303.333,170.833 303.167,172.167 303,173.5C 301.343,169.518 299.176,165.851 296.5,162.5C 295.27,165.291 293.77,167.958 292,170.5C 291.506,172.134 291.34,173.801 291.5,175.5C 290.5,175.5 289.5,175.5 288.5,175.5C 290.97,165.733 294.97,156.733 300.5,148.5 Z"/></g>
<g><path style="opacity:1" fill="#956fc0" d="M 75.5,155.5 C 74.6794,162.464 73.0127,169.131 70.5,175.5C 69.5,175.5 68.5,175.5 67.5,175.5C 69.2053,168.371 71.872,161.704 75.5,155.5 Z"/></g>
<g><path style="opacity:1" fill="#84799a" d="M 161.5,175.5 C 161.068,176.71 160.401,177.71 159.5,178.5C 159.285,176.821 159.952,175.821 161.5,175.5 Z"/></g>
<g><path style="opacity:1" fill="#9879c1" d="M 67.5,175.5 C 68.3366,180.636 67.0033,184.969 63.5,188.5C 64.6977,184.02 66.031,179.687 67.5,175.5 Z"/></g>
<g><path style="opacity:1" fill="#9472b7" d="M 158.5,181.5 C 157.489,184.94 156.489,188.274 155.5,191.5C 155.336,188.813 155.503,186.146 156,183.5C 156.417,182.244 157.25,181.577 158.5,181.5 Z"/></g>
<g><path style="opacity:1" fill="#9a7ac3" d="M 155.5,191.5 C 153.788,204.765 153.121,218.099 153.5,231.5C 152.342,222.009 152.175,212.342 153,202.5C 152.906,198.367 153.74,194.701 155.5,191.5 Z"/></g>
<g><path style="opacity:1" fill="#956ec6" d="M 284.5,191.5 C 283.978,198.826 283.478,206.159 283,213.5C 282.333,212.167 281.667,212.167 281,213.5C 280.51,214.793 280.343,216.127 280.5,217.5C 280.5,221.5 280.5,225.5 280.5,229.5C 280.167,229.5 279.833,229.5 279.5,229.5C 279.5,225.5 279.5,221.5 279.5,217.5C 279.676,208.425 281.343,199.758 284.5,191.5 Z"/></g>
<g><path style="opacity:1" fill="#8b67b2" d="M 153.5,231.5 C 173.424,232.487 193.424,232.821 213.5,232.5C 213.5,233.167 213.5,233.833 213.5,234.5C 195.547,233.527 177.547,233.193 159.5,233.5C 156.918,233.975 154.918,233.308 153.5,231.5 Z"/></g>
<g><path style="opacity:1" fill="#906cb7" d="M 374.5,207.5 C 374.264,215.542 374.597,223.542 375.5,231.5C 395.355,231.837 415.021,232.837 434.5,234.5C 414.231,233.844 393.898,233.178 373.5,232.5C 373.069,231.707 372.735,230.873 372.5,230C 373.12,222.357 373.787,214.857 374.5,207.5 Z"/></g>
<g><path style="opacity:1" fill="#ad91cd" d="M 279.5,217.5 C 279.5,221.5 279.5,225.5 279.5,229.5C 278.521,232.625 278.187,235.958 278.5,239.5C 278.167,239.5 277.833,239.5 277.5,239.5C 277.31,231.944 277.977,224.611 279.5,217.5 Z"/></g>
<g><path style="opacity:1" fill="#8c5fbc" d="M 58.5,239.5 C 58.5,287.5 58.5,335.5 58.5,383.5C 60.1667,384.833 61.8333,386.167 63.5,387.5C 61.5,387.5 59.5,387.5 57.5,387.5C 57.1678,337.997 57.5011,288.664 58.5,239.5 Z"/></g>
<g><path style="opacity:1" fill="#9060ca" d="M 279.5,229.5 C 279.833,229.5 280.167,229.5 280.5,229.5C 281.792,281.198 281.792,332.864 280.5,384.5C 282.743,385.474 285.076,385.808 287.5,385.5C 287.5,385.833 287.5,386.167 287.5,386.5C 284.552,386.777 281.719,386.444 279,385.5C 278.5,336.834 278.333,288.168 278.5,239.5C 278.187,235.958 278.521,232.625 279.5,229.5 Z"/></g>
<g><path style="opacity:1" fill="#bb9ddb" d="M 375.5,231.5 C 395.5,231.5 415.5,231.5 435.5,231.5C 435.832,284.003 435.499,336.336 434.5,388.5C 434.5,387.5 434.5,386.5 434.5,385.5C 434.5,335.167 434.5,284.833 434.5,234.5C 415.021,232.837 395.355,231.837 375.5,231.5 Z"/></g>
<g><path style="opacity:1" fill="#feeefe" d="M 58.5,213.5 C 57.9242,219.485 57.4242,225.485 57,231.5C 56.5,283.166 56.3333,334.832 56.5,386.5C 55.3349,334.668 55.1683,282.668 56,230.5C 56.3333,225.5 56.6667,220.5 57,215.5C 57.2784,214.584 57.7784,213.918 58.5,213.5 Z"/></g>
<g><path style="opacity:1" fill="#8d6bb1" d="M 59.5,210.5 C 59.042,220.161 58.7087,229.828 58.5,239.5C 57.5011,288.664 57.1678,337.997 57.5,387.5C 59.5,387.5 61.5,387.5 63.5,387.5C 111.5,387.5 159.5,387.5 207.5,387.5C 207.5,387.833 207.5,388.167 207.5,388.5C 156.822,389.162 106.489,388.495 56.5,386.5C 56.3333,334.832 56.5,283.166 57,231.5C 57.4242,225.485 57.9242,219.485 58.5,213.5C 58.2627,212.209 58.596,211.209 59.5,210.5 Z"/></g>
<g><path style="opacity:1" fill="#945dd3" d="M 58.5,383.5 C 58.5,335.5 58.5,287.5 58.5,239.5C 59.7605,236.742 60.5939,233.742 61,230.5C 61.8333,281.837 61.6666,333.17 60.5,384.5C 59.8165,384.137 59.1499,383.804 58.5,383.5 Z"/></g>
<g><path style="opacity:1" fill="#945cd5" d="M 287.5,383.5 C 287.5,384.167 287.5,384.833 287.5,385.5C 285.076,385.808 282.743,385.474 280.5,384.5C 281.792,332.864 281.792,281.198 280.5,229.5C 280.5,225.5 280.5,221.5 280.5,217.5C 281.222,217.082 281.722,216.416 282,215.5C 283.046,216.772 283.546,218.272 283.5,220C 283.458,274.46 283.458,328.96 283.5,383.5C 284.5,383.5 285.5,383.5 286.5,383.5C 286.833,191.5 287.167,191.5 287.5,383.5 Z"/></g>
<g><path style="opacity:1" fill="#9062c2" d="M 209.5,383.5 C 208.833,383.5 208.167,383.5 207.5,383.5C 208.167,191.5 208.833,191.5 209.5,383.5 Z"/></g>
<g><path style="opacity:1" fill="#935ed4" d="M 211.5,239.5 C 212.499,287.997 212.832,336.664 212.5,385.5C 211.167,385.5 209.833,385.5 208.5,385.5C 208.167,384.833 207.833,384.167 207.5,383.5C 208.167,383.5 208.833,383.5 209.5,383.5C 210.167,335.5 210.833,287.5 211.5,239.5 Z"/></g>
<g><path style="opacity:1" fill="#9064c0" d="M 159.5,233.5 C 177.547,233.193 195.547,233.527 213.5,234.5C 213.5,285.5 213.5,336.5 213.5,387.5C 211.5,387.5 209.5,387.5 207.5,387.5C 207.328,386.508 207.662,385.842 208.5,385.5C 209.833,385.5 211.167,385.5 212.5,385.5C 212.832,336.664 212.499,287.997 211.5,239.5C 211.714,237.856 211.38,236.356 210.5,235C 193.328,234.832 176.328,234.332 159.5,233.5 Z"/></g>
<g><path style="opacity:1" fill="#a283bf" d="M 213.5,232.5 C 214.499,284.331 214.832,336.331 214.5,388.5C 212.167,388.5 209.833,388.5 207.5,388.5C 207.5,388.167 207.5,387.833 207.5,387.5C 209.5,387.5 211.5,387.5 213.5,387.5C 213.5,336.5 213.5,285.5 213.5,234.5C 213.5,233.833 213.5,233.167 213.5,232.5 Z"/></g>
<g><path style="opacity:1" fill="#945fc3" d="M 287.5,383.5 C 479.5,384.167 479.5,384.833 287.5,385.5C 287.5,384.833 287.5,384.167 287.5,383.5 Z"/></g>
<g><path style="opacity:1" fill="#8866b7" d="M 277.5,239.5 C 277.833,239.5 278.167,239.5 278.5,239.5C 278.333,288.168 278.5,336.834 279,385.5C 281.719,386.444 284.552,386.777 287.5,386.5C 335.665,387.665 383.998,387.832 432.5,387C 433.044,386.283 433.711,385.783 434.5,385.5C 434.5,386.5 434.5,387.5 434.5,388.5C 382.167,388.5 329.833,388.5 277.5,388.5C 277.5,338.833 277.5,289.167 277.5,239.5 Z"/></g>
</svg>
